<?xml version="1.0" encoding="UTF-8"?><svg xmlns="http://www.w3.org/2000/svg" viewBox="0 0 1080 1080"><defs><style>.j{fill:#faea07;}.k{fill:#f47a0b;}</style></defs><g id="a"/><g id="b"/><g id="c"/><g id="d"/><g id="e"/><g id="f"/><g id="g"/><g id="h"><g><g><path class="k" d="M547.74,1060c-7.34,0-14.56-.12-21.45-.36l-4.8-.17c-96.8-3.39-188.2-6.59-275.13-34.44l-4.33-1.39c-46.27-14.81-89.93-28.78-120.94-58.54-32.41-31.11-47.53-74.95-62.6-124.85-24.4-80.77-30.1-167.21-33.54-241.9-2.27-49.49-.14-100.61,1.92-150.05v-.25c.31-7.02,.6-14.05,.88-21.08,2.96-73.69,14.86-139.27,36.4-200.5,9.42-26.78,18.92-52.75,31.49-76.12,15.93-29.62,42-51.54,79.7-67.03,72.29-29.69,146.77-47.43,221.36-52.72,6.37-.45,12.74-.91,19.1-1.37,40.64-2.95,82.65-5.99,122.9-5.99,6.26,0,12.49,.07,18.53,.22,104.29,2.57,214.49,8.17,314.66,45.23,54.57,20.19,92.59,40.22,113.47,77.61,24.28,43.49,41.91,94.79,55.48,161.46,9.96,48.92,15.29,102.77,16.3,164.63,.19,12.13,1.08,23.56,1.94,34.62,.92,11.84,1.78,23.01,1.64,33.25-.41,9.76-.78,19.52-1.15,29.28l-.14,3.63c-2.96,78.04-5.75,151.71-22.72,223.38-14.41,60.83-30.52,104.47-52.25,141.52-15.58,26.57-41.38,47.04-78.86,62.58-69.06,28.65-142.89,45.97-219.44,51.47-10.22,.74-20.88,1.56-29.45,2.22-37.72,2.91-73.35,5.65-108.97,5.65Z"/><path class="j" d="M538.7,43.24c6.1,0,12.16,.07,18.03,.22,102.6,2.52,210.92,8,308.22,43.99,30.6,11.32,51.27,20.99,67.01,31.34,16.32,10.73,27.74,22.57,35.94,37.27,23.25,41.63,40.2,91.11,53.35,155.7,9.71,47.7,14.91,100.36,15.9,160.96,.2,12.76,1.16,25.03,2,35.85,.87,11.25,1.7,21.89,1.58,31.16-.4,9.6-.77,19.31-1.13,28.72l-.15,4.02c-2.92,77-5.67,149.72-22.2,219.49-13.93,58.81-29.36,100.75-50.04,136.01-13.3,22.68-35.96,40.41-69.27,54.23-67.07,27.82-138.81,44.64-213.21,50-9.64,.69-19.09,1.42-29.55,2.23-37.32,2.88-72.58,5.59-107.43,5.59-7.1,0-14.08-.12-20.74-.35l-4.84-.17c-95.35-3.34-185.4-6.49-269.71-33.5l-4.32-1.38-.05-.02c-45.86-14.68-85.47-27.36-113.14-53.91-28.96-27.8-42.55-67.37-57.3-116.2-23.73-78.58-29.33-163.55-32.71-237.04-2.23-48.61-.12-99.28,1.92-148.28v-.25c.31-7.04,.6-14.09,.89-21.14,2.87-71.66,14.41-135.34,35.28-194.66,9.15-26.01,18.35-51.19,30.24-73.29,13.84-25.73,35.98-44.16,69.68-58,70.32-28.88,142.72-46.13,215.18-51.27,6.38-.45,12.76-.91,19.15-1.38,40.27-2.92,81.92-5.94,121.44-5.94m0-40c-40.97,0-83.35,3.07-124.34,6.05-6.36,.46-12.72,.92-19.07,1.37-76.72,5.44-153.28,23.67-227.55,54.17-42.15,17.31-71.5,42.19-89.71,76.05-13.26,24.66-23.06,51.42-32.75,78.96C23.07,282.97,10.8,350.46,7.77,426.17c-.28,7.02-.58,14.04-.87,21.05-2.08,49.95-4.24,101.6-1.92,152.05,3.49,75.89,9.32,163.81,34.37,246.76,15.9,52.64,31.98,99.02,67.9,133.49,34.36,32.98,80.18,47.64,128.69,63.16l4.33,1.39c89.57,28.7,182.32,31.94,280.52,35.38l4.8,.17c7.11,.25,14.56,.38,22.15,.38,36.39,0,72.39-2.77,110.51-5.71,9.6-.74,19.53-1.51,29.35-2.21,78.71-5.66,154.63-23.48,225.67-52.95,41.65-17.28,70.58-40.49,88.45-70.94,22.77-38.83,39.57-84.18,54.46-147.03,17.43-73.58,20.26-148.21,23.25-227.23,.42-11.04,.84-22.08,1.3-33.11,.18-11.25-.73-22.97-1.69-35.36-.84-10.77-1.7-21.91-1.88-33.4-1.03-63.11-6.49-118.16-16.7-168.3-14-68.75-32.3-121.88-57.62-167.22-23.88-42.77-65.15-64.85-123.99-86.62C775.77,11.8,663.68,6.07,557.72,3.46c-6.15-.15-12.54-.23-19.02-.23h0Z"/></g><circle class="j" cx="350.49" cy="479.72" r="123.03"/><path class="j" d="M445.78,622.26c-65.95,0-107.68,25.57-151.92,64.04-4.68,4.07-6.64,11.12-4.44,17.31,4.5,12.62,12.87,25.45,15.12,30.55,6.15,13.95,13.1,27.5,18.36,41.92,14.77,40.43,27.44,98.95,27.56,198.55,.02,15.46,17.13,22.32,25.71,10.32,9-12.58,18.09-28.04,25.66-46.63,11.52-28.3,14.85-52.45,17.33-71.08,5.52-41.44,6.94-76.92,0-114.93-5.81-31.83-27.27-93.09,96.59-69.94,0,0-20.19-41.59-41.72-53.81-6.96-3.95-23.02-6.29-28.27-6.29Z"/><path class="j" d="M767.6,796.25c71.28-80.92,89.38-232.67,90.02-316.53,1.2-155.95-69.62-389.31-286.88-392.77-42.6-.68-78.02,5.78-124.83,30.04-66.17,34.29-120.03,131.69-127.94,203.97-1.12,10.25,14.24,13.01,16.42,2.91,21.5-99.44,100.02-166.62,205.15-154.89,165.65,18.48,188.62,256.95,186.14,311.58-2.49,54.63,1.11,270.65-169.33,309.93-149.53,34.46,57.62,180.21,211.26,5.78Z"/><path class="j" d="M829.16,308.48c9.75-3.78-39.55-150.5-156.74-200.54-57.4-24.51-101.24-21.32-101.24-21.32-42.68-.34-78.15,5.78-125.05,30.04-66.28,34.29-120.24,131.69-128.16,203.97-1.12,10.25,14.26,13.01,16.45,2.91,11.68-53.93,40-96.61,80.36-123.46,37.53-24.97,79.62-31.01,125.14-31.43,138.59-1.27,240.69,93.77,265.92,118.15,14.93,14.43,17.83,23.82,23.32,21.69Z"/><path class="j" d="M771.69,772.11c3.94-2.51,8.52,2.12,5.99,6.04-21.5,33.38-58.38,67.74-93.74,85.02-40.76,19.92-122.45,29.32-175.92-8.05-51.08-35.7-65.35-100.21-80.29-125.51-19.63-33.23-71.48-35.46-134.84-32.14-6.75,.35-9.43-8.92-4.08-13.06,11.19-8.65,35.03-28.63,55.02-39.89,39.6-22.3,121.45-36.89,150.69,.41,38.85,49.57,28.13,72.34,65.64,116.55,33.34,39.3,136.3,58.49,211.16,10.85l.37-.23Z"/></g></g><g id="i"/></svg>