<?xml version="1.0" encoding="utf-8"?>
<!-- Generator: Adobe Illustrator 25.4.1, SVG Export Plug-In . SVG Version: 6.00 Build 0)  -->
<svg version="1.1" xmlns="http://www.w3.org/2000/svg" xmlns:xlink="http://www.w3.org/1999/xlink" x="0px" y="0px"
	 viewBox="0 0 800 800" enable-background="new 0 0 800 800" xml:space="preserve">
<g id="Logo_Ancho">
</g>
<g id="Icono">
</g>
<g id="Logo">
	<g>
		<radialGradient id="SVGID_1_" cx="232.2955" cy="348.2971" r="107.2515" gradientUnits="userSpaceOnUse">
			<stop  offset="0" style="stop-color:#FFFF3C"/>
			<stop  offset="0.1467" style="stop-color:#FFFA3A"/>
			<stop  offset="0.3291" style="stop-color:#FDEA34"/>
			<stop  offset="0.5302" style="stop-color:#FBD12B"/>
			<stop  offset="0.745" style="stop-color:#F8AE1E"/>
			<stop  offset="0.9683" style="stop-color:#F5810E"/>
			<stop  offset="1" style="stop-color:#F47A0B"/>
		</radialGradient>
		<circle fill="url(#SVGID_1_)" cx="232.3" cy="348.3" r="107.25"/>
	</g>
	<g>
		
			<linearGradient id="SVGID_00000183226153971454745840000013754283734700043688_" gradientUnits="userSpaceOnUse" x1="276.8458" y1="550.6339" x2="272.5201" y2="719.3352">
			<stop  offset="0" style="stop-color:#F47A0B"/>
			<stop  offset="1" style="stop-color:#FFFF3C"/>
		</linearGradient>
		<path fill="url(#SVGID_00000183226153971454745840000013754283734700043688_)" d="M315.37,472.56
			c-57.49,0-93.87,22.29-132.43,55.83c-4.08,3.55-5.79,9.69-3.87,15.09c3.92,11.01,11.22,22.19,13.18,26.63
			c5.37,12.16,11.42,23.97,16.01,36.54c12.87,35.25,23.92,86.26,24.03,173.09c0.02,13.47,14.93,19.45,22.42,8.99
			c7.85-10.96,15.77-24.44,22.37-40.65c10.05-24.67,12.94-45.73,15.11-61.96c4.81-36.12,6.05-67.06,0-100.19
			c-5.07-27.74-23.77-81.15,84.2-60.97c0,0-17.6-36.26-36.37-46.91C333.94,474.6,319.94,472.56,315.37,472.56z"/>
	</g>
	
		<linearGradient id="SVGID_00000160898633121583793710000007488561920501765770_" gradientUnits="userSpaceOnUse" x1="566.3768" y1="44.3301" x2="314.3592" y2="648.1223">
		<stop  offset="0" style="stop-color:#F47A0B"/>
		<stop  offset="0.027" style="stop-color:#F4800D"/>
		<stop  offset="0.2524" style="stop-color:#F8AD1E"/>
		<stop  offset="0.4688" style="stop-color:#FBD12B"/>
		<stop  offset="0.6711" style="stop-color:#FDEA34"/>
		<stop  offset="0.8538" style="stop-color:#FFFA3A"/>
		<stop  offset="1" style="stop-color:#FFFF3C"/>
	</linearGradient>
	<path fill="url(#SVGID_00000160898633121583793710000007488561920501765770_)" d="M598.86,624.23
		c59.8-70.54,74.99-202.83,75.53-275.93C675.4,212.34,615.98,8.92,433.71,5.9c-35.74-0.59-65.46,5.04-104.73,26.18
		c-55.51,29.89-100.71,114.8-107.34,177.81c-0.94,8.94,11.94,11.34,13.77,2.54c18.04-86.69,83.92-145.25,172.12-135.03
		C546.5,93.51,565.77,301.39,563.69,349.01c-2.09,47.62,0.94,235.94-142.07,270.18C296.17,649.23,469.96,776.3,598.86,624.23z"/>
	
		<linearGradient id="SVGID_00000083085030692801439400000015058506606640906906_" gradientUnits="userSpaceOnUse" x1="349.535" y1="445.9997" x2="450.9214" y2="713.847">
		<stop  offset="0" style="stop-color:#FFFF3C"/>
		<stop  offset="1" style="stop-color:#F47A0B"/>
	</linearGradient>
	<path fill="url(#SVGID_00000083085030692801439400000015058506606640906906_)" d="M606.24,603.88c3.45-2.2,7.47,1.85,5.25,5.29
		c-18.83,29.24-51.14,59.33-82.11,74.47c-35.7,17.44-107.25,25.68-154.08-7.05c-44.74-31.27-57.24-87.77-70.33-109.93
		c-17.2-29.1-62.6-31.06-118.1-28.15c-5.91,0.31-8.26-7.82-3.57-11.43c9.8-7.58,30.68-25.08,48.19-34.94
		c34.69-19.54,106.38-32.31,131.99,0.36c34.03,43.41,24.64,63.36,57.49,102.08c29.2,34.42,119.38,51.23,184.95,9.51
		C606.02,604.02,606.13,603.95,606.24,603.88z"/>
	
		<linearGradient id="SVGID_00000052074841883388992180000004224233664865145258_" gradientUnits="userSpaceOnUse" x1="511.0674" y1="12.1344" x2="417.9736" y2="235.1714">
		<stop  offset="0" style="stop-color:#FFFF3C"/>
		<stop  offset="0.1629" style="stop-color:#FFFB3A"/>
		<stop  offset="0.3385" style="stop-color:#FEEE36"/>
		<stop  offset="0.5201" style="stop-color:#FCD82E"/>
		<stop  offset="0.7058" style="stop-color:#F9BA23"/>
		<stop  offset="0.8928" style="stop-color:#F69414"/>
		<stop  offset="1" style="stop-color:#F47A0B"/>
	</linearGradient>
	<path fill="url(#SVGID_00000052074841883388992180000004224233664865145258_)" d="M649.61,199.03
		c8.16-3.3-33.13-131.19-131.28-174.82C470.26,2.84,433.54,5.62,433.54,5.62c-35.75-0.3-65.46,5.04-104.73,26.18
		c-55.51,29.89-100.71,114.8-107.34,177.81c-0.94,8.94,11.94,11.34,13.77,2.54c9.78-47.01,33.5-84.22,67.31-107.63
		c31.43-21.77,66.69-27.04,104.81-27.4c116.08-1.11,201.59,81.74,222.73,103C642.59,192.7,645.01,200.88,649.61,199.03z"/>
</g>
<g id="Foto_Perfil">
</g>
</svg>
