<svg xmlns="http://www.w3.org/2000/svg">
<defs>
<font id="E-SQUARE" horiz-adv-x="1136" >
  <font-face 
    font-family="E-SQUARE"
    font-weight="400"
    font-stretch="normal"
    units-per-em="2048"
    panose-1="2 0 5 0 0 0 0 0 0 0"
    ascent="1638"
    descent="-410"
    x-height="936"
    cap-height="1359"
    bbox="-2007 -529 2728 2028"
    underline-thickness="150"
    underline-position="-442"
    unicode-range="U+001D-F002"
  />
<missing-glyph horiz-adv-x="1547" 
d="M100 -397v1710h1335v-1710h-1335zM165 -337h1204v1590h-1204v-1590zM262 1059h28q30 0 42 -53q2 -23 2 -35v-4h-23v2q-5 34 -20 34h-32q-12 0 -19 -28q6 -28 16 -28q0 -3 14 -3h24q28 0 46 -55q4 -21 4 -50q0 -76 -39 -99q-9 -3 -14 -3h-20q-35 0 -49 60v54h17
q0 -27 16 -50q9 -8 15 -8h23q8 0 19 16q10 19 10 30v3q-7 46 -31 46q0 1 -7 1h-23q-30 0 -39 44v81q10 45 40 45zM378 1059h22v-85h20v-56h-20v-164q0 -40 19 -52q4 -1 9 -1v-55h-5q-34 0 -44 68q-1 6 -1 19v185h-18v56h18v85zM651 1059h21v-322h-21v7q-11 -7 -17 -7h-24
q-36 0 -41 64v111q0 40 30 61l8 1h23q13 0 21 -8v93zM699 1059h22v-56h-22v56zM865 1059h138v-56h-59v-266h-22v266h-57v56zM797 975h6q28 0 36 -21q13 -17 13 -53v-89q0 -56 -30 -72q-4 -3 -9 -3h-24q-35 0 -41 66v106q0 44 29 64q9 2 20 2zM1290 975h6q28 0 36 -21
q8 -9 8 -19v-157q-11 -41 -35 -41h-23q-35 0 -42 64v108q0 44 30 64q9 2 20 2zM443 974h23v-149q0 -26 18 -32h24q15 0 18 38v143h22v-237h-22v7q-10 -7 -18 -7h-23q-32 0 -42 56v181zM699 974h22v-237h-22v237zM990 974h22v-140q0 -42 23 -42h16q19 0 23 32v150h22v-253
q-2 -66 -37 -75h-69v56h57q27 0 27 35v6q-9 -8 -29 -8h-4q-31 0 -40 23q-11 15 -11 67v149zM1117 974h21v-7q9 7 17 7h23q36 0 42 -68v-87q0 -60 -28 -76q-5 -3 -17 -3h-13q-15 0 -24 6v-94h-21v322zM769 886v-61q0 -25 19 -32h24q18 6 18 34v57q0 35 -25 35h-14
q-11 0 -16 -10q-6 -10 -6 -23zM1138 825q0 -27 22 -30h13q17 0 23 17q1 10 1 15v59q-2 33 -19 33h-18q-18 0 -22 -29v-65zM1262 886v-61q0 -25 19 -32h24q18 6 18 34v57q0 35 -25 35h-14q-12 0 -16 -10q-6 -10 -6 -23zM590 886v-62q4 -31 19 -31h24q17 0 18 42v37

<glyph glyph-name=".notdef" horiz-adv-x="1547" 
d="M100 -397v1710h1335v-1710h-1335zM165 -337h1204v1590h-1204v-1590zM262 1059h28q30 0 42 -53q2 -23 2 -35v-4h-23v2q-5 34 -20 34h-32q-12 0 -19 -28q6 -28 16 -28q0 -3 14 -3h24q28 0 46 -55q4 -21 4 -50q0 -76 -39 -99q-9 -3 -14 -3h-20q-35 0 -49 60v54h17
q0 -27 16 -50q9 -8 15 -8h23q8 0 19 16q10 19 10 30v3q-7 46 -31 46q0 1 -7 1h-23q-30 0 -39 44v81q10 45 40 45zM378 1059h22v-85h20v-56h-20v-164q0 -40 19 -52q4 -1 9 -1v-55h-5q-34 0 -44 68q-1 6 -1 19v185h-18v56h18v85zM651 1059h21v-322h-21v7q-11 -7 -17 -7h-24
q-36 0 -41 64v111q0 40 30 61l8 1h23q13 0 21 -8v93zM699 1059h22v-56h-22v56zM865 1059h138v-56h-59v-266h-22v266h-57v56zM797 975h6q28 0 36 -21q13 -17 13 -53v-89q0 -56 -30 -72q-4 -3 -9 -3h-24q-35 0 -41 66v106q0 44 29 64q9 2 20 2zM1290 975h6q28 0 36 -21
q8 -9 8 -19v-157q-11 -41 -35 -41h-23q-35 0 -42 64v108q0 44 30 64q9 2 20 2zM443 974h23v-149q0 -26 18 -32h24q15 0 18 38v143h22v-237h-22v7q-10 -7 -18 -7h-23q-32 0 -42 56v181zM699 974h22v-237h-22v237zM990 974h22v-140q0 -42 23 -42h16q19 0 23 32v150h22v-253
q-2 -66 -37 -75h-69v56h57q27 0 27 35v6q-9 -8 -29 -8h-4q-31 0 -40 23q-11 15 -11 67v149zM1117 974h21v-7q9 7 17 7h23q36 0 42 -68v-87q0 -60 -28 -76q-5 -3 -17 -3h-13q-15 0 -24 6v-94h-21v322zM769 886v-61q0 -25 19 -32h24q18 6 18 34v57q0 35 -25 35h-14
q-11 0 -16 -10q-6 -10 -6 -23zM1138 825q0 -27 22 -30h13q17 0 23 17q1 10 1 15v59q-2 33 -19 33h-18q-18 0 -22 -29v-65zM1262 886v-61q0 -25 19 -32h24q18 6 18 34v57q0 35 -25 35h-14q-12 0 -16 -10q-6 -10 -6 -23zM590 886v-62q4 -31 19 -31h24q17 0 18 42v37
q0 35 -14 44l-6 2h-22q-19 -6 -19 -32zM471 711h8v-18h6q10 0 10 -15v-33h-8v30q0 6 -3 7h-2q-3 0 -3 -9v-28h-8v66zM781 711h8v-18h6q10 0 10 -21v-27h-9v36l-5 1l-2 -4v-33h-8v66zM916 711h8v-18h5v-11h-5v-16q0 -8 6 -8v-13h-1q-10 0 -13 18v19h-3v11h3v18zM450 693h11
q3 0 5 -10v-3l-8 -2q0 4 -2 4h-1q-2 0 -3 -4v-14v-6h4q2 0 2 5l8 -3v-3q-1 -12 -10 -12q-13 1 -13 13v22q0 9 7 13zM508 693h6q11 0 11 -24t-14 -24q-10 2 -10 15v21q0 9 7 12zM537 693h9q8 -4 8 -13v-22q0 -12 -13 -13q-12 0 -12 20v10q0 15 8 18zM564 693h10q4 -5 4 -17
h-3q5 -7 5 -15q-1 -16 -11 -16q-11 2 -11 15v6h6v1q-6 1 -6 9v6q0 9 6 11zM590 693h11q6 -4 6 -11v-15h-14v-7q0 -2 2 -2h3l1 6h8v-4q0 -15 -12 -15q-11 0 -11 26v1q0 17 6 21zM628 693h8v-24l1 -11h6l2 6v29h7v-51q0 -10 -7 -14h-9q-6 0 -6 20h3q-5 5 -5 18v27zM665 693h10
q8 -3 8 -18v-10q0 -20 -12 -20q-13 1 -13 13v22q0 9 7 13zM687 693h9v-33q1 -2 2 -2h4l1 6v29h8v-48h-10q-14 0 -14 24v24zM716 693h17v-11q-8 0 -8 -7v-30h-9v48zM759 693h10q8 -3 8 -12q-5 -3 -9 -3q0 4 -3 4h-2q-1 0 -1 -2v-20q0 -2 1 -2h5v5h3q6 -3 6 -6q0 -11 -14 -12
q-11 0 -11 26v1q0 17 7 21zM815 693h9q8 0 8 -22v-10q2 -8 2 -9l-2 -8h-3q-2 0 -2 2q-4 -2 -7 -2h-2q-9 5 -9 17q0 9 4 14v1h-3v6q0 9 5 11zM837 693h16v-11q-8 0 -8 -8v-29h-8v48zM863 693h11q6 -2 6 -15v-17q0 -4 3 -6q-2 -11 -4 -11h-3q0 2 -1 2q-4 -2 -7 -2q-9 0 -10 14
v7q0 7 4 11h-4v5q2 12 5 12zM892 693h11q6 -3 6 -12q-4 -3 -8 -3q0 4 -3 4h-1q-2 0 -2 -2v-20q0 -2 2 -2h3q1 0 1 5h3q5 -3 5 -6q0 -12 -12 -12q-11 0 -11 27q0 17 6 21zM942 693h6q10 0 10 -12v-14h-15v-7q0 -2 2 -2h2q3 0 3 6h9q0 -19 -14 -19q-10 2 -10 15v21q0 9 7 12z
M964 693h16v-11q-9 0 -9 -8v-29h-7v48zM511 682l-3 -4v-18q1 -2 3 -2h2q3 0 3 2v21zM537 673v-6q0 -8 4 -9h4l1 6v14q0 2 -4 4h-1q-4 0 -4 -9zM566 682v-4h4v4h-4zM593 680h5q0 2 -2 2h-1q-2 0 -2 -2zM666 678v-14l1 -6h4q3 1 3 9v6q0 9 -3 9h-2q-1 0 -3 -4zM818 680v-2h4v4
h-2q-2 0 -2 -2zM866 680v-2h5v4h-3q-2 0 -2 -2zM945 682l-1 -2h6v1zM566 666v-6q0 -2 3 -2h2q0 3 1 3q-1 3 -1 5h-5zM818 664v-4q0 -3 2 -3t2 3v6h-2q-2 0 -2 -2zM866 664v-1l1 -6h1q3 1 3 9h-3q-2 0 -2 -2zM637 645v-3q1 -2 3 -2v0q2 0 5 3v2h-8zM725 476h3l11 -1v-18
q2 -70 2 -126l-7 -2h-6q-3 71 -3 138v3v6zM1224 476h1l14 -1q-1 -9 -1 -13q0 -55 3 -131l-11 -2h-4q-2 58 -3 129q1 12 1 18zM790 471h4q0 -2 7 -12q-4 -18 -4 -30v-18q0 -44 15 -58h1q21 0 35 117h2q12 -4 13 -4q-6 -58 -6 -86q0 -31 12 -31q2 -16 2 -20h-8q-13 0 -20 32
h-1q-11 -28 -27 -28h-5q-20 0 -27 61q-1 4 -1 22v11q0 25 8 44zM1094 471h6q12 0 28 -28q12 -22 12 -44v-9q0 -37 -40 -58q-7 -3 -14 -3h-7q-30 0 -35 43v9q0 50 40 88q8 2 10 2zM249 467h9q28 -5 28 -40q0 -34 -33 -49q-12 -5 -27 -7v-37h-1q-5 0 -14 3v34h-5l-5 1
q0 11 5 19h5v0q0 41 -6 41q-6 7 -6 11q18 24 50 24zM1059 381v-8q0 -21 25 -24q22 0 37 27q5 8 5 18v3q0 27 -26 53q-3 0 -3 2q-17 0 -35 -50q-3 -11 -3 -21zM224 440q1 -35 1 -47q1 0 1 -2q29 6 37 17q8 10 8 18q0 18 -15 21h-6q-26 -3 -26 -7zM404 443q19 0 28 -49
q-1 0 -15 -4q-6 33 -13 33q-17 -9 -20 -75q1 -14 1 -15q-10 -2 -15 -2q-13 69 -13 87q12 2 15 2v-1q0 -4 3 -19h1q10 43 28 43zM537 437q20 0 33 -32q2 -9 2 -17v-3q0 -36 -35 -53q-5 -1 -9 -1q-27 4 -27 38q0 50 25 65q2 1 11 3zM614 437q19 0 36 -89q1 0 1 -7
q-8 -7 -12 -7q-15 62 -23 80q-9 -13 -18 -70q-1 0 -5 -10h-7q-7 0 -9 57q-2 14 -2 23q7 2 14 2q3 -17 3 -20h1q7 41 21 41zM1185 437q16 0 35 -96q-9 -7 -13 -7q-15 66 -24 80q-6 -12 -19 -74q-3 -6 -4 -6h-6q-7 0 -10 80q6 2 15 2q1 -19 1 -22h1q7 43 24 43zM472 435
q18 -5 18 -17v-1q0 -2 -10 -8h-1q-4 7 -13 7q-13 0 -16 -11q0 -5 29 -6q20 -11 20 -34q0 -25 -20 -34l-8 -2h-5q-24 0 -34 23v1q1 3 9 11h1q12 -15 28 -15q14 4 14 16q-4 15 -21 15q-28 0 -28 22v3q0 30 37 30zM912 435q13 0 20 -18v-1q-11 -7 -14 -7q0 6 -11 7
q-12 0 -17 -10v-1q0 -5 29 -6q19 -9 19 -36q0 -26 -24 -34h-8q-23 0 -35 23v1q8 11 10 11h1q12 -15 27 -15q14 4 14 16t-16 15q-25 0 -30 11q-2 11 -2 14q0 30 37 30zM1249 434v0q13 -2 14 -2q-1 -18 -1 -26v-9q2 -35 13 -35h1q18 13 18 67v0h15v-3q7 -78 7 -88
q0 -46 -30 -56h-5h-5q-18 0 -23 19q-1 5 -1 10v0q0 15 3 15h1q9 -6 12 -6l-1 -9q0 -8 9 -9h2q23 0 23 42q0 5 -1 21h-1q-8 -24 -26 -24h-1q-19 0 -25 47v17q0 10 2 29zM331 433q23 -4 23 -22v-6q0 -20 -39 -36h-10q0 -11 17 -16q11 0 21 18h4q8 -12 8 -15q-17 -22 -30 -22
h-7q-26 0 -30 45q0 40 32 53zM681 433h11q27 -9 27 -45q-1 -21 -1 -35l2 -16q-9 -8 -13 -8h-1l-2 11q-12 -8 -23 -8h-7q-22 3 -22 21v8q0 30 32 35q11 -1 20 -6v1q-4 25 -17 25q-9 0 -18 -10h-3q-2 1 -8 11v2q12 14 23 14zM983 433q24 -4 24 -23q0 -29 -42 -41h-7v-2
q7 -14 16 -14q10 0 23 18h1q1 0 9 -12q0 -9 -21 -22q-4 -3 -9 -3h-7q-24 0 -29 44q0 40 30 54zM516 370q2 -18 12 -18h3q24 7 26 35v3q-6 26 -20 26h-2q-13 0 -18 -32q-1 -7 -1 -14zM305 390q19 0 33 18v2q-7 2 -9 2q-16 0 -24 -19v-3zM958 390h3q17 0 31 19q-6 3 -9 3h-3
q-16 0 -22 -21v-1zM667 359v-3q0 -3 10 -6q17 0 25 17q-8 7 -19 7q-16 -3 -16 -15zM618 229q13 0 15 -34v-3l-6 -1h-2q-3 21 -8 21q-6 0 -8 -19q1 -2 1 -4q0 -10 2 -39q5 3 9 3h3v-15l-11 -3q5 -57 5 -69h-11q-4 54 -4 65h-1q-5 -2 -10 -2v17q6 0 10 2q-3 21 -3 52
q3 29 17 29h2zM816 229q12 0 16 -37l-8 -1h-2v1q0 15 -7 20q-8 -5 -8 -15q0 -8 3 -46v-1q5 3 10 3h1l1 -8v-7q-1 0 -12 -3l2 -3q0 -12 4 -66h-11q0 6 -4 65q-9 -2 -12 -2v17l11 1q-3 46 -3 52q0 30 19 30zM709 212h4h6v-9q0 -61 3 -132h-11q-2 65 -2 102v39zM735 212h1h8
v-30q0 -32 3 -111h-11q-3 66 -3 136v3q0 2 2 2zM529 209q8 -2 10 -2q-2 -29 -2 -42h2l12 2v-17q-1 0 -14 -2l4 -74l-2 -2h-8q-3 29 -5 75h-13v16l11 1h2v18q0 27 3 27zM994 209q3 0 12 -2q-3 -13 -3 -29v-13h3l12 2v-17h-3l-12 -2l5 -74l-5 -2h-6q-3 62 -3 75h-15l1 8v8
l11 1h1v1q0 21 2 44zM1140 209q3 0 12 -2q-2 -18 -2 -34v-8h2l12 2v-8v-9q-1 0 -14 -2v-6q0 -15 4 -68l-2 -2h-9l-4 75h-13v16l11 1h1zM404 206h10q14 0 23 -23q-6 -6 -6 -9h-3q-9 15 -21 15q-17 0 -35 -26q-9 -19 -9 -34v-5q0 -29 24 -35q2 -1 8 -1q31 3 31 20v10
q-4 3 -12 3h-10v17q28 0 33 -9q2 -7 2 -9q-2 -25 -2 -29q0 -11 4 -26q-1 0 -8 -5h-1q-4 0 -6 22q-6 -8 -29 -12h-2q-38 0 -43 51v4q0 58 45 79zM866 174q23 0 34 -38v-14q0 -34 -34 -50l-7 -1q-16 0 -24 20q-2 11 -2 17v4q0 41 19 57q8 5 14 5zM943 174q15 0 34 -94h-1
q-5 -4 -9 -4q-15 67 -24 79q-7 -7 -23 -79l-2 -1h-4q-6 0 -9 76l8 2h2q3 -16 3 -33h1q9 54 24 54zM487 170q20 -4 20 -20q1 0 1 -2q0 -23 -35 -36q-5 -3 -15 -3v-1q0 -11 17 -17h1q10 0 23 16h3q0 -2 6 -9v-1q-14 -22 -29 -22h-6q-19 0 -27 32v15q0 33 26 46q5 2 15 2z
M1083 170h11q16 0 24 -28q2 -16 3 -18q-1 -6 -3 -26q2 -4 2 -23l-6 -4h-3l-3 12q-10 -11 -25 -11h-4q-21 3 -21 20v8q3 32 30 32q12 0 21 -8v3q0 25 -18 29h-3q-6 0 -17 -8h-1q-1 0 -6 7v2q10 13 19 13zM634 168q2 0 11 -3q0 -74 14 -74q19 12 28 66q1 5 1 11h1q3 0 10 -3
q-3 -24 -3 -45v-12q0 -9 5 -19q-5 -7 -5 -11h-2q-7 4 -8 26h-2q-4 -15 -19 -29h-9q-20 0 -20 75v10zM843 112q2 -23 15 -23h1q16 0 27 25q3 8 3 11q-6 31 -22 31h-4q-15 0 -20 -44zM457 125q23 0 39 22q-2 6 -11 6h-3q-19 0 -25 -28zM1068 97q3 -8 11 -8h6q14 0 22 18
q-9 8 -17 8h-2q-20 -3 -20 -18zM507 -20q1 0 17 -4q-4 -38 -5 -92q0 -34 10 -69q-11 -10 -12 -10h-1q-3 0 -6 13h-2q0 -8 -21 -16q-33 0 -47 42q-3 12 -3 28q0 48 34 58h4q14 0 29 -16v1q0 8 3 65zM316 -26l15 -5q-2 -23 -2 -36v-14q13 3 15 3q2 -20 2 -24h-2q-9 -1 -15 -1
q3 -63 5 -91q-12 -2 -17 -2v1q-5 61 -5 88l-2 2h-14v24h15v9q0 46 5 46zM674 -26h1l15 -5q-2 -28 -2 -45v-5q14 3 16 3l1 -14v-10q-16 -1 -16 -2q0 -23 5 -90q-13 -2 -17 -2v1q-5 75 -5 90h-18v24h17q0 34 3 55zM546 -29q9 0 11 -14v-1q0 -11 -8 -16h-7q-8 5 -8 17
q2 14 12 14zM607 -70q25 0 41 -38q2 -11 2 -17v-9q0 -40 -39 -60q-4 -2 -13 -2q-27 0 -32 41v14q0 51 30 69q10 2 11 2zM800 -70h5q11 0 11 -3v-2q9 5 19 5q25 0 33 -44q0 -11 1 -14q-3 -52 -31 -64l-8 -1h-10l1 -8q0 -6 1 -40h-17q-5 132 -5 171zM915 -70q23 0 39 -35
q4 -13 4 -24q0 -43 -38 -65q-8 -2 -14 -2q-22 0 -31 27q-2 12 -2 23q0 54 30 74q11 2 12 2zM1117 -70q24 0 39 -35q4 -8 4 -19v-8q0 -43 -39 -62q-4 -2 -13 -2q-28 0 -32 41v14q0 51 30 69q10 2 11 2zM1211 -70q17 0 27 -58h1q8 58 27 58h1q24 0 40 -118h-2q-11 -5 -13 -5
h-1q-19 98 -25 98q-10 -22 -17 -82q-3 -10 -10 -10q-8 0 -11 15q-13 76 -19 76q-16 -58 -16 -93q-10 -4 -17 -4v1l-12 104q13 6 17 6q2 -8 4 -31h2q9 43 24 43zM258 -71q24 -5 24 -21v-1q-1 -2 -12 -9h-3q0 7 -13 8h-1q-13 0 -20 -10v-4q0 -6 31 -6q27 -12 27 -38v-5
q0 -28 -22 -38q-5 -3 -10 -3h-9q-23 0 -39 25q0 5 11 16h3q8 -18 30 -18q18 0 18 20q0 15 -21 18q-27 0 -32 12q-4 8 -4 12v8q0 34 42 34zM713 -72q12 -4 15 -4q-1 -23 -1 -34v-6q0 -33 12 -44h5q22 18 22 72v10h17v-1q8 -89 8 -103v-10q0 -44 -28 -60q-10 -4 -16 -4
q-22 0 -29 20q-2 4 -2 9v9q0 15 4 15l14 -7l-1 -8v-4q0 -8 11 -10h4q20 0 25 33q1 4 1 12v20l-1 13h-1q-10 -30 -29 -30h-2q-23 0 -30 50q-1 8 -1 20v9q0 33 3 33zM1033 -73h8q6 0 15 -9q11 -12 11 -18q-11 -13 -12 -13v0q-11 15 -18 15h-2q-12 -5 -18 -28l-4 -21
q0 -22 14 -24h3q11 0 34 16h1q6 -20 6 -22q-25 -18 -47 -18q-23 0 -28 46q0 34 19 64q12 12 18 12zM537 -75h12l6 -1q0 -3 -1 -8q1 -67 4 -109h-18l-1 8q-2 68 -2 110zM350 -76q17 -5 17 -6v-20q0 -67 12 -67h5q17 19 24 55q5 10 6 38h2q15 -2 15 -6q-3 -42 -3 -59v-10
q0 -10 5 -20q0 -6 -10 -18v0q-12 12 -12 25h-1q-11 -29 -28 -29h-3q-29 0 -29 93v24zM454 -132q0 -34 30 -40h3q12 0 15 26v3q0 36 -21 48l-6 1h-2q-17 0 -19 -35v-3zM583 -147q0 -22 15 -25h4q15 0 29 29q2 4 2 9v9q-7 31 -24 31h-2q-21 0 -24 -53zM816 -102q0 -3 3 -67
l7 -1q22 0 26 42q-3 34 -17 34h-1q-10 0 -18 -8zM890 -147v-5q0 -17 15 -20h2q16 0 30 26q4 8 4 18q-6 34 -28 34q-19 0 -23 -53zM1092 -147q0 -25 17 -25h3q14 0 29 30q2 6 2 10v7q-8 31 -25 31h-1q-20 0 -25 -53zM977 -161q9 0 12 -14v-5q-3 -13 -12 -13t-11 15
q1 17 11 17z" />
    <glyph glyph-name=".null" horiz-adv-x="200" 
 />
    <glyph glyph-name=".null" horiz-adv-x="200" 
 />
    <glyph glyph-name="nonmarkingreturn" horiz-adv-x="200" 
 />
    <glyph glyph-name="space" unicode=" " horiz-adv-x="546" 
 />
    <glyph glyph-name="space" unicode="&#xa0;" horiz-adv-x="546" 
 />
    <glyph glyph-name="exclam" unicode="!" horiz-adv-x="573" 
d="M419 318q54 -54 54 -132q0 -77 -54 -132q-55 -54 -132 -54q-78 0 -132 54q-55 55 -55 132q0 78 55 132q54 55 132 55q77 0 132 -55zM136 1359h301v-563l-38 -311h-224l-39 311v563z" />
    <glyph glyph-name="quotedbl" unicode="&#x22;" horiz-adv-x="931" 
d="M831 1358v-372q0 -79 -57 -135q-56 -56 -135 -56h-130v371q0 79 56 135q56 57 135 57h131zM422 1358v-372q0 -79 -56 -135q-57 -56 -136 -56h-130v371q0 79 56 135q56 57 135 57h131z" />
    <glyph glyph-name="numbersign" unicode="#" horiz-adv-x="1654" 
d="M1455 1359l-77 -276h176v-301h-259l-58 -206h317v-301h-401l-76 -275h-301l77 275h-277l-76 -275h-301l77 275h-176v301h259l58 206h-317v301h401l76 276h301l-77 -276h277l76 276h301zM936 576l58 206h-276l-58 -206h276z" />
    <glyph glyph-name="dollar" unicode="$" horiz-adv-x="1481" 
d="M809 1567h109v-211h229q96 0 165 -69t69 -165v-140h-301v56q0 17 -17 17h-145v-200h229q96 0 165 -69q69 -68 69 -165v-391q0 -96 -69 -165q-69 -68 -165 -68h-229v-212h-109v212h-149v-212h-108v212h-218q-96 0 -165 68q-69 69 -69 165v154h301v-70q0 -17 17 -17h134
v258h-218q-96 0 -165 68q-69 69 -69 165v334q0 96 69 165t165 69h218v211h108v-211h149v211zM918 555v-258h145q17 0 17 17v224q0 17 -17 17h-145zM809 297v258h-149v-258h149zM809 855v200h-149v-200h149zM552 855v200h-134q-17 0 -17 -17v-166q0 -17 17 -17h134z" />
    <glyph glyph-name="percent" unicode="%" horiz-adv-x="1727" 
d="M1417 586q0 15 -22 24q-19 9 -47 9t-47 -9q-22 -9 -22 -24v-242q0 -16 22 -25q19 -8 47 -8t47 8q22 9 22 25v242zM1352 860q126 0 215 -90q90 -89 90 -215v-180q0 -126 -90 -215q-89 -90 -215 -90h-8q-126 0 -216 90q-89 89 -89 215v180q0 126 89 215q90 90 216 90h8z
M1273 1359l-546 -1359h-275l546 1359h275zM448 1015q0 15 -22 25q-19 8 -47 8t-47 -8q-22 -9 -22 -25v-242q0 -15 22 -24q19 -9 47 -9t47 9q22 9 22 24v242zM383 1289q126 0 216 -90q89 -89 89 -215v-180q0 -126 -89 -215q-90 -90 -216 -90h-8q-126 0 -215 90
q-90 89 -90 215v180q0 126 90 215q89 90 215 90h8z" />
    <glyph glyph-name="ampersand" unicode="&#x26;" horiz-adv-x="1717" 
d="M886 581q95 61 162 61q10 0 20 -1q46 -6 183 -84q65 -37 130 -37q23 0 46 5q27 5 85 25q65 21 105 31v-207q-38 -9 -115 -35q-61 -20 -93 -24v-5q-13 -131 -110 -220q-97 -90 -228 -90h-632q-140 0 -240 101q-99 101 -99 243v260q0 58 23 95q7 12 62 76q-85 98 -85 228
v11q0 142 99 243q100 102 240 102h555q140 0 240 -102q100 -101 100 -243v-11q0 -168 -86 -266q-48 -60 -213 -73h-5q-34 0 -289 -5q-12 -1 -25 -1h-268q-18 0 -30 -11t-12 -26v-273q0 -15 12 -27q12 -11 30 -11h617q32 0 70 103q-50 23 -92 23q-10 0 -20 -1
q-55 -7 -137 -61v207zM448 1048q-18 0 -30 -11t-12 -27v-81q0 -15 12 -27q12 -11 30 -11h538q17 0 29 11q13 12 13 27v81q0 16 -13 27q-12 11 -29 11h-538z" />
    <glyph glyph-name="quotesingle" unicode="'" horiz-adv-x="522" 
d="M422 1358v-372q0 -79 -56 -135q-57 -56 -136 -56h-130v371q0 79 56 135q56 57 135 57h131z" />
    <glyph glyph-name="parenleft" unicode="(" horiz-adv-x="785" 
d="M685 1358q-279 -475 -279 -834q0 -358 279 -833h-306q-279 475 -279 833q0 359 279 834h306z" />
    <glyph glyph-name="parenright" unicode=")" horiz-adv-x="785" 
d="M406 1358q279 -475 279 -834q0 -358 -279 -833h-306q279 475 279 833q0 359 -279 834h306z" />
    <glyph glyph-name="asterisk" unicode="*" horiz-adv-x="1261" 
d="M732 1359v-378l223 73q22 7 44 7q33 0 65 -16q52 -27 71 -83l26 -81l-359 -117l138 -189q28 -38 28 -83q0 -12 -2 -24q-10 -58 -58 -93l-69 -50l-222 305l-137 -190q-35 -48 -94 -57q-12 -2 -23 -2q-45 0 -83 28l-69 50l222 305l-223 72q-56 19 -83 72q-16 31 -16 64
q0 22 7 44l26 82l359 -117v235q0 59 42 101t101 42h86z" />
    <glyph glyph-name="plus" unicode="+" horiz-adv-x="1256" 
d="M100 377v301h377v378h301v-378h378v-301h-378v-377h-301v377h-377z" />
    <glyph glyph-name="comma" unicode="," horiz-adv-x="643" 
d="M543 216l-222 -502l-221 43l183 510z" />
    <glyph glyph-name="hyphen" unicode="-" horiz-adv-x="826" 
d="M100 553v301h626v-301h-626z" />
    <glyph glyph-name="hyphen" unicode="&#xad;" horiz-adv-x="826" 
d="M100 553v301h626v-301h-626z" />
    <glyph glyph-name="period" unicode="." horiz-adv-x="1547" 
d="M100 -397v1710h1335v-1710h-1335zM165 -337h1204v1590h-1204v-1590zM262 1059h28q30 0 42 -53q2 -23 2 -35v-4h-23v2q-5 34 -20 34h-32q-12 0 -19 -28q6 -28 16 -28q0 -3 14 -3h24q28 0 46 -55q4 -21 4 -50q0 -76 -39 -99q-9 -3 -14 -3h-20q-35 0 -49 60v54h17
q0 -27 16 -50q9 -8 15 -8h23q8 0 19 16q10 19 10 30v3q-7 46 -31 46q0 1 -7 1h-23q-30 0 -39 44v81q10 45 40 45zM378 1059h22v-85h20v-56h-20v-164q0 -40 19 -52q4 -1 9 -1v-55h-5q-34 0 -44 68q-1 6 -1 19v185h-18v56h18v85zM651 1059h21v-322h-21v7q-11 -7 -17 -7h-24
q-36 0 -41 64v111q0 40 30 61l8 1h23q13 0 21 -8v93zM699 1059h22v-56h-22v56zM865 1059h138v-56h-59v-266h-22v266h-57v56zM797 975h6q28 0 36 -21q13 -17 13 -53v-89q0 -56 -30 -72q-4 -3 -9 -3h-24q-35 0 -41 66v106q0 44 29 64q9 2 20 2zM1290 975h6q28 0 36 -21
q8 -9 8 -19v-157q-11 -41 -35 -41h-23q-35 0 -42 64v108q0 44 30 64q9 2 20 2zM443 974h23v-149q0 -26 18 -32h24q15 0 18 38v143h22v-237h-22v7q-10 -7 -18 -7h-23q-32 0 -42 56v181zM699 974h22v-237h-22v237zM990 974h22v-140q0 -42 23 -42h16q19 0 23 32v150h22v-253
q-2 -66 -37 -75h-69v56h57q27 0 27 35v6q-9 -8 -29 -8h-4q-31 0 -40 23q-11 15 -11 67v149zM1117 974h21v-7q9 7 17 7h23q36 0 42 -68v-87q0 -60 -28 -76q-5 -3 -17 -3h-13q-15 0 -24 6v-94h-21v322zM769 886v-61q0 -25 19 -32h24q18 6 18 34v57q0 35 -25 35h-14
q-11 0 -16 -10q-6 -10 -6 -23zM1138 825q0 -27 22 -30h13q17 0 23 17q1 10 1 15v59q-2 33 -19 33h-18q-18 0 -22 -29v-65zM1262 886v-61q0 -25 19 -32h24q18 6 18 34v57q0 35 -25 35h-14q-12 0 -16 -10q-6 -10 -6 -23zM590 886v-62q4 -31 19 -31h24q17 0 18 42v37
q0 35 -14 44l-6 2h-22q-19 -6 -19 -32zM471 711h8v-18h6q10 0 10 -15v-33h-8v30q0 6 -3 7h-2q-3 0 -3 -9v-28h-8v66zM781 711h8v-18h6q10 0 10 -21v-27h-9v36l-5 1l-2 -4v-33h-8v66zM916 711h8v-18h5v-11h-5v-16q0 -8 6 -8v-13h-1q-10 0 -13 18v19h-3v11h3v18zM450 693h11
q3 0 5 -10v-3l-8 -2q0 4 -2 4h-1q-2 0 -3 -4v-14v-6h4q2 0 2 5l8 -3v-3q-1 -12 -10 -12q-13 1 -13 13v22q0 9 7 13zM508 693h6q11 0 11 -24t-14 -24q-10 2 -10 15v21q0 9 7 12zM537 693h9q8 -4 8 -13v-22q0 -12 -13 -13q-12 0 -12 20v10q0 15 8 18zM564 693h10q4 -5 4 -17
h-3q5 -7 5 -15q-1 -16 -11 -16q-11 2 -11 15v6h6v1q-6 1 -6 9v6q0 9 6 11zM590 693h11q6 -4 6 -11v-15h-14v-7q0 -2 2 -2h3l1 6h8v-4q0 -15 -12 -15q-11 0 -11 26v1q0 17 6 21zM628 693h8v-24l1 -11h6l2 6v29h7v-51q0 -10 -7 -14h-9q-6 0 -6 20h3q-5 5 -5 18v27zM665 693h10
q8 -3 8 -18v-10q0 -20 -12 -20q-13 1 -13 13v22q0 9 7 13zM687 693h9v-33q1 -2 2 -2h4l1 6v29h8v-48h-10q-14 0 -14 24v24zM716 693h17v-11q-8 0 -8 -7v-30h-9v48zM759 693h10q8 -3 8 -12q-5 -3 -9 -3q0 4 -3 4h-2q-1 0 -1 -2v-20q0 -2 1 -2h5v5h3q6 -3 6 -6q0 -11 -14 -12
q-11 0 -11 26v1q0 17 7 21zM815 693h9q8 0 8 -22v-10q2 -8 2 -9l-2 -8h-3q-2 0 -2 2q-4 -2 -7 -2h-2q-9 5 -9 17q0 9 4 14v1h-3v6q0 9 5 11zM837 693h16v-11q-8 0 -8 -8v-29h-8v48zM863 693h11q6 -2 6 -15v-17q0 -4 3 -6q-2 -11 -4 -11h-3q0 2 -1 2q-4 -2 -7 -2q-9 0 -10 14
v7q0 7 4 11h-4v5q2 12 5 12zM892 693h11q6 -3 6 -12q-4 -3 -8 -3q0 4 -3 4h-1q-2 0 -2 -2v-20q0 -2 2 -2h3q1 0 1 5h3q5 -3 5 -6q0 -12 -12 -12q-11 0 -11 27q0 17 6 21zM942 693h6q10 0 10 -12v-14h-15v-7q0 -2 2 -2h2q3 0 3 6h9q0 -19 -14 -19q-10 2 -10 15v21q0 9 7 12z
M964 693h16v-11q-9 0 -9 -8v-29h-7v48zM511 682l-3 -4v-18q1 -2 3 -2h2q3 0 3 2v21zM537 673v-6q0 -8 4 -9h4l1 6v14q0 2 -4 4h-1q-4 0 -4 -9zM566 682v-4h4v4h-4zM593 680h5q0 2 -2 2h-1q-2 0 -2 -2zM666 678v-14l1 -6h4q3 1 3 9v6q0 9 -3 9h-2q-1 0 -3 -4zM818 680v-2h4v4
h-2q-2 0 -2 -2zM866 680v-2h5v4h-3q-2 0 -2 -2zM945 682l-1 -2h6v1zM566 666v-6q0 -2 3 -2h2q0 3 1 3q-1 3 -1 5h-5zM818 664v-4q0 -3 2 -3t2 3v6h-2q-2 0 -2 -2zM866 664v-1l1 -6h1q3 1 3 9h-3q-2 0 -2 -2zM637 645v-3q1 -2 3 -2v0q2 0 5 3v2h-8zM725 476h3l11 -1v-18
q2 -70 2 -126l-7 -2h-6q-3 71 -3 138v3v6zM1224 476h1l14 -1q-1 -9 -1 -13q0 -55 3 -131l-11 -2h-4q-2 58 -3 129q1 12 1 18zM790 471h4q0 -2 7 -12q-4 -18 -4 -30v-18q0 -44 15 -58h1q21 0 35 117h2q12 -4 13 -4q-6 -58 -6 -86q0 -31 12 -31q2 -16 2 -20h-8q-13 0 -20 32
h-1q-11 -28 -27 -28h-5q-20 0 -27 61q-1 4 -1 22v11q0 25 8 44zM1094 471h6q12 0 28 -28q12 -22 12 -44v-9q0 -37 -40 -58q-7 -3 -14 -3h-7q-30 0 -35 43v9q0 50 40 88q8 2 10 2zM249 467h9q28 -5 28 -40q0 -34 -33 -49q-12 -5 -27 -7v-37h-1q-5 0 -14 3v34h-5l-5 1
q0 11 5 19h5v0q0 41 -6 41q-6 7 -6 11q18 24 50 24zM1059 381v-8q0 -21 25 -24q22 0 37 27q5 8 5 18v3q0 27 -26 53q-3 0 -3 2q-17 0 -35 -50q-3 -11 -3 -21zM224 440q1 -35 1 -47q1 0 1 -2q29 6 37 17q8 10 8 18q0 18 -15 21h-6q-26 -3 -26 -7zM404 443q19 0 28 -49
q-1 0 -15 -4q-6 33 -13 33q-17 -9 -20 -75q1 -14 1 -15q-10 -2 -15 -2q-13 69 -13 87q12 2 15 2v-1q0 -4 3 -19h1q10 43 28 43zM537 437q20 0 33 -32q2 -9 2 -17v-3q0 -36 -35 -53q-5 -1 -9 -1q-27 4 -27 38q0 50 25 65q2 1 11 3zM614 437q19 0 36 -89q1 0 1 -7
q-8 -7 -12 -7q-15 62 -23 80q-9 -13 -18 -70q-1 0 -5 -10h-7q-7 0 -9 57q-2 14 -2 23q7 2 14 2q3 -17 3 -20h1q7 41 21 41zM1185 437q16 0 35 -96q-9 -7 -13 -7q-15 66 -24 80q-6 -12 -19 -74q-3 -6 -4 -6h-6q-7 0 -10 80q6 2 15 2q1 -19 1 -22h1q7 43 24 43zM472 435
q18 -5 18 -17v-1q0 -2 -10 -8h-1q-4 7 -13 7q-13 0 -16 -11q0 -5 29 -6q20 -11 20 -34q0 -25 -20 -34l-8 -2h-5q-24 0 -34 23v1q1 3 9 11h1q12 -15 28 -15q14 4 14 16q-4 15 -21 15q-28 0 -28 22v3q0 30 37 30zM912 435q13 0 20 -18v-1q-11 -7 -14 -7q0 6 -11 7
q-12 0 -17 -10v-1q0 -5 29 -6q19 -9 19 -36q0 -26 -24 -34h-8q-23 0 -35 23v1q8 11 10 11h1q12 -15 27 -15q14 4 14 16t-16 15q-25 0 -30 11q-2 11 -2 14q0 30 37 30zM1249 434v0q13 -2 14 -2q-1 -18 -1 -26v-9q2 -35 13 -35h1q18 13 18 67v0h15v-3q7 -78 7 -88
q0 -46 -30 -56h-5h-5q-18 0 -23 19q-1 5 -1 10v0q0 15 3 15h1q9 -6 12 -6l-1 -9q0 -8 9 -9h2q23 0 23 42q0 5 -1 21h-1q-8 -24 -26 -24h-1q-19 0 -25 47v17q0 10 2 29zM331 433q23 -4 23 -22v-6q0 -20 -39 -36h-10q0 -11 17 -16q11 0 21 18h4q8 -12 8 -15q-17 -22 -30 -22
h-7q-26 0 -30 45q0 40 32 53zM681 433h11q27 -9 27 -45q-1 -21 -1 -35l2 -16q-9 -8 -13 -8h-1l-2 11q-12 -8 -23 -8h-7q-22 3 -22 21v8q0 30 32 35q11 -1 20 -6v1q-4 25 -17 25q-9 0 -18 -10h-3q-2 1 -8 11v2q12 14 23 14zM983 433q24 -4 24 -23q0 -29 -42 -41h-7v-2
q7 -14 16 -14q10 0 23 18h1q1 0 9 -12q0 -9 -21 -22q-4 -3 -9 -3h-7q-24 0 -29 44q0 40 30 54zM516 370q2 -18 12 -18h3q24 7 26 35v3q-6 26 -20 26h-2q-13 0 -18 -32q-1 -7 -1 -14zM305 390q19 0 33 18v2q-7 2 -9 2q-16 0 -24 -19v-3zM958 390h3q17 0 31 19q-6 3 -9 3h-3
q-16 0 -22 -21v-1zM667 359v-3q0 -3 10 -6q17 0 25 17q-8 7 -19 7q-16 -3 -16 -15zM618 229q13 0 15 -34v-3l-6 -1h-2q-3 21 -8 21q-6 0 -8 -19q1 -2 1 -4q0 -10 2 -39q5 3 9 3h3v-15l-11 -3q5 -57 5 -69h-11q-4 54 -4 65h-1q-5 -2 -10 -2v17q6 0 10 2q-3 21 -3 52
q3 29 17 29h2zM816 229q12 0 16 -37l-8 -1h-2v1q0 15 -7 20q-8 -5 -8 -15q0 -8 3 -46v-1q5 3 10 3h1l1 -8v-7q-1 0 -12 -3l2 -3q0 -12 4 -66h-11q0 6 -4 65q-9 -2 -12 -2v17l11 1q-3 46 -3 52q0 30 19 30zM709 212h4h6v-9q0 -61 3 -132h-11q-2 65 -2 102v39zM735 212h1h8
v-30q0 -32 3 -111h-11q-3 66 -3 136v3q0 2 2 2zM529 209q8 -2 10 -2q-2 -29 -2 -42h2l12 2v-17q-1 0 -14 -2l4 -74l-2 -2h-8q-3 29 -5 75h-13v16l11 1h2v18q0 27 3 27zM994 209q3 0 12 -2q-3 -13 -3 -29v-13h3l12 2v-17h-3l-12 -2l5 -74l-5 -2h-6q-3 62 -3 75h-15l1 8v8
l11 1h1v1q0 21 2 44zM1140 209q3 0 12 -2q-2 -18 -2 -34v-8h2l12 2v-8v-9q-1 0 -14 -2v-6q0 -15 4 -68l-2 -2h-9l-4 75h-13v16l11 1h1zM404 206h10q14 0 23 -23q-6 -6 -6 -9h-3q-9 15 -21 15q-17 0 -35 -26q-9 -19 -9 -34v-5q0 -29 24 -35q2 -1 8 -1q31 3 31 20v10
q-4 3 -12 3h-10v17q28 0 33 -9q2 -7 2 -9q-2 -25 -2 -29q0 -11 4 -26q-1 0 -8 -5h-1q-4 0 -6 22q-6 -8 -29 -12h-2q-38 0 -43 51v4q0 58 45 79zM866 174q23 0 34 -38v-14q0 -34 -34 -50l-7 -1q-16 0 -24 20q-2 11 -2 17v4q0 41 19 57q8 5 14 5zM943 174q15 0 34 -94h-1
q-5 -4 -9 -4q-15 67 -24 79q-7 -7 -23 -79l-2 -1h-4q-6 0 -9 76l8 2h2q3 -16 3 -33h1q9 54 24 54zM487 170q20 -4 20 -20q1 0 1 -2q0 -23 -35 -36q-5 -3 -15 -3v-1q0 -11 17 -17h1q10 0 23 16h3q0 -2 6 -9v-1q-14 -22 -29 -22h-6q-19 0 -27 32v15q0 33 26 46q5 2 15 2z
M1083 170h11q16 0 24 -28q2 -16 3 -18q-1 -6 -3 -26q2 -4 2 -23l-6 -4h-3l-3 12q-10 -11 -25 -11h-4q-21 3 -21 20v8q3 32 30 32q12 0 21 -8v3q0 25 -18 29h-3q-6 0 -17 -8h-1q-1 0 -6 7v2q10 13 19 13zM634 168q2 0 11 -3q0 -74 14 -74q19 12 28 66q1 5 1 11h1q3 0 10 -3
q-3 -24 -3 -45v-12q0 -9 5 -19q-5 -7 -5 -11h-2q-7 4 -8 26h-2q-4 -15 -19 -29h-9q-20 0 -20 75v10zM843 112q2 -23 15 -23h1q16 0 27 25q3 8 3 11q-6 31 -22 31h-4q-15 0 -20 -44zM457 125q23 0 39 22q-2 6 -11 6h-3q-19 0 -25 -28zM1068 97q3 -8 11 -8h6q14 0 22 18
q-9 8 -17 8h-2q-20 -3 -20 -18zM507 -20q1 0 17 -4q-4 -38 -5 -92q0 -34 10 -69q-11 -10 -12 -10h-1q-3 0 -6 13h-2q0 -8 -21 -16q-33 0 -47 42q-3 12 -3 28q0 48 34 58h4q14 0 29 -16v1q0 8 3 65zM316 -26l15 -5q-2 -23 -2 -36v-14q13 3 15 3q2 -20 2 -24h-2q-9 -1 -15 -1
q3 -63 5 -91q-12 -2 -17 -2v1q-5 61 -5 88l-2 2h-14v24h15v9q0 46 5 46zM674 -26h1l15 -5q-2 -28 -2 -45v-5q14 3 16 3l1 -14v-10q-16 -1 -16 -2q0 -23 5 -90q-13 -2 -17 -2v1q-5 75 -5 90h-18v24h17q0 34 3 55zM546 -29q9 0 11 -14v-1q0 -11 -8 -16h-7q-8 5 -8 17
q2 14 12 14zM607 -70q25 0 41 -38q2 -11 2 -17v-9q0 -40 -39 -60q-4 -2 -13 -2q-27 0 -32 41v14q0 51 30 69q10 2 11 2zM800 -70h5q11 0 11 -3v-2q9 5 19 5q25 0 33 -44q0 -11 1 -14q-3 -52 -31 -64l-8 -1h-10l1 -8q0 -6 1 -40h-17q-5 132 -5 171zM915 -70q23 0 39 -35
q4 -13 4 -24q0 -43 -38 -65q-8 -2 -14 -2q-22 0 -31 27q-2 12 -2 23q0 54 30 74q11 2 12 2zM1117 -70q24 0 39 -35q4 -8 4 -19v-8q0 -43 -39 -62q-4 -2 -13 -2q-28 0 -32 41v14q0 51 30 69q10 2 11 2zM1211 -70q17 0 27 -58h1q8 58 27 58h1q24 0 40 -118h-2q-11 -5 -13 -5
h-1q-19 98 -25 98q-10 -22 -17 -82q-3 -10 -10 -10q-8 0 -11 15q-13 76 -19 76q-16 -58 -16 -93q-10 -4 -17 -4v1l-12 104q13 6 17 6q2 -8 4 -31h2q9 43 24 43zM258 -71q24 -5 24 -21v-1q-1 -2 -12 -9h-3q0 7 -13 8h-1q-13 0 -20 -10v-4q0 -6 31 -6q27 -12 27 -38v-5
q0 -28 -22 -38q-5 -3 -10 -3h-9q-23 0 -39 25q0 5 11 16h3q8 -18 30 -18q18 0 18 20q0 15 -21 18q-27 0 -32 12q-4 8 -4 12v8q0 34 42 34zM713 -72q12 -4 15 -4q-1 -23 -1 -34v-6q0 -33 12 -44h5q22 18 22 72v10h17v-1q8 -89 8 -103v-10q0 -44 -28 -60q-10 -4 -16 -4
q-22 0 -29 20q-2 4 -2 9v9q0 15 4 15l14 -7l-1 -8v-4q0 -8 11 -10h4q20 0 25 33q1 4 1 12v20l-1 13h-1q-10 -30 -29 -30h-2q-23 0 -30 50q-1 8 -1 20v9q0 33 3 33zM1033 -73h8q6 0 15 -9q11 -12 11 -18q-11 -13 -12 -13v0q-11 15 -18 15h-2q-12 -5 -18 -28l-4 -21
q0 -22 14 -24h3q11 0 34 16h1q6 -20 6 -22q-25 -18 -47 -18q-23 0 -28 46q0 34 19 64q12 12 18 12zM537 -75h12l6 -1q0 -3 -1 -8q1 -67 4 -109h-18l-1 8q-2 68 -2 110zM350 -76q17 -5 17 -6v-20q0 -67 12 -67h5q17 19 24 55q5 10 6 38h2q15 -2 15 -6q-3 -42 -3 -59v-10
q0 -10 5 -20q0 -6 -10 -18v0q-12 12 -12 25h-1q-11 -29 -28 -29h-3q-29 0 -29 93v24zM454 -132q0 -34 30 -40h3q12 0 15 26v3q0 36 -21 48l-6 1h-2q-17 0 -19 -35v-3zM583 -147q0 -22 15 -25h4q15 0 29 29q2 4 2 9v9q-7 31 -24 31h-2q-21 0 -24 -53zM816 -102q0 -3 3 -67
l7 -1q22 0 26 42q-3 34 -17 34h-1q-10 0 -18 -8zM890 -147v-5q0 -17 15 -20h2q16 0 30 26q4 8 4 18q-6 34 -28 34q-19 0 -23 -53zM1092 -147q0 -25 17 -25h3q14 0 29 30q2 6 2 10v7q-8 31 -25 31h-1q-20 0 -25 -53zM977 -161q9 0 12 -14v-5q-3 -13 -12 -13t-11 15
q1 17 11 17z" />
    <glyph glyph-name="slash" unicode="/" horiz-adv-x="1114" 
d="M1014 1359l-608 -1515h-306l608 1515h306z" />
    <glyph glyph-name="zero" unicode="0" horiz-adv-x="1559" 
d="M1119 1359q140 0 240 -100t100 -240v-680q0 -140 -100 -239q-100 -100 -240 -100h-679q-141 0 -240 100q-100 99 -100 239v680q0 140 100 240q99 100 240 100h679zM443 1052q-37 0 -37 -37v-672q0 -37 37 -37h672q38 0 38 37v672q0 37 -38 37h-672z" />
    <glyph glyph-name="one" unicode="1" horiz-adv-x="507" 
d="M407 1359v-1359h-307v1129q0 95 68 162q67 68 162 68h77z" />
    <glyph glyph-name="two" unicode="2" horiz-adv-x="1480" 
d="M417 558q-17 0 -17 -17v-224q0 -17 17 -17h963v-67q0 -96 -69 -165q-68 -68 -165 -68h-812q-97 0 -166 68q-68 69 -68 165v391q0 97 68 165q69 69 166 69h729q16 0 16 17v166q0 17 -16 17h-925v67q0 96 69 165q68 69 165 69h774q97 0 165 -69q69 -69 69 -165v-334
q0 -96 -69 -165q-68 -68 -165 -68h-729z" />
    <glyph glyph-name="three" unicode="3" horiz-adv-x="1404" 
d="M964 1359q140 0 240 -102q100 -101 100 -243v-107q0 -130 -86 -228q86 -98 86 -228v-107q0 -142 -100 -243t-240 -101h-526q-131 0 -229 90q-97 89 -109 220h856q17 0 29 11q13 12 13 27v158q0 15 -13 26q-12 12 -29 12h-677v271h677q17 0 29 11q13 11 13 27v157
q0 16 -13 27q-12 11 -29 11h-856q12 131 109 220q98 91 229 91h526z" />
    <glyph glyph-name="four" unicode="4" horiz-adv-x="1444" 
d="M1284 1h-318v-154h-307v154h-559v1129q0 95 67 162q68 68 163 68h76v-1053h253v133q0 95 68 162q67 68 162 68h77v-363h88q95 0 163 -67q67 -68 67 -163v-76z" />
    <glyph glyph-name="five" unicode="5" horiz-adv-x="1404" 
d="M372 558q-96 0 -165 68q-69 69 -69 165v334q0 96 69 165t165 69h621q97 0 166 -69q68 -69 68 -165v-67h-771q-17 0 -17 -17v-166q0 -17 17 -17h614q96 0 165 -69q69 -68 69 -165v-391q0 -96 -69 -165q-69 -68 -165 -68h-736q-97 0 -165 68q-69 69 -69 165v67h886
q17 0 17 17v224q0 17 -17 17h-614z" />
    <glyph glyph-name="six" unicode="6" horiz-adv-x="1481" 
d="M1146 801q97 0 166 -69t69 -165v-334q0 -96 -69 -165q-69 -68 -166 -68h-812q-97 0 -165 68q-69 69 -69 165v892q0 96 69 165q68 69 165 69h755q97 0 165 -69q69 -69 69 -165v-67h-906q-16 0 -16 -17v-224q0 -16 16 -16h729zM401 300h662q17 0 17 17v167q0 16 -17 16
h-662v-200z" />
    <glyph glyph-name="seven" unicode="7" horiz-adv-x="1252" 
d="M100 1359h1052v-1130q0 -94 -67 -162q-68 -67 -162 -67h-77v1052h-517q-95 0 -162 68q-67 67 -67 162v77z" />
    <glyph glyph-name="eight" unicode="8" horiz-adv-x="1588" 
d="M1148 1359q140 0 240 -102q100 -101 100 -243v-107q0 -130 -86 -228q86 -98 86 -228v-107q0 -142 -100 -243t-240 -101h-708q-140 0 -240 101t-100 243v107q0 130 86 228q-86 98 -86 228v107q0 142 100 243q100 102 240 102h708zM1140 310q17 0 29 11q12 12 12 27v177
q0 15 -12 27q-12 11 -29 11h-692q-17 0 -29 -11q-13 -12 -13 -27v-177q0 -15 13 -27q12 -11 29 -11h692zM1140 796q17 0 29 11t12 26v177q0 16 -12 27t-29 11h-692q-17 0 -29 -11q-13 -11 -13 -27v-177q0 -15 13 -26q12 -11 29 -11h692z" />
    <glyph glyph-name="nine" unicode="9" horiz-adv-x="1481" 
d="M334 558q-96 0 -165 68q-69 69 -69 165v334q0 96 69 165t165 69h813q96 0 165 -69t69 -165v-892q0 -96 -69 -165q-69 -68 -165 -68h-794q-96 0 -165 68q-69 69 -69 165v67h944q17 0 17 17v224q0 17 -17 17h-729zM1080 1058h-662q-17 0 -17 -17v-166q0 -17 17 -17h662v200
z" />
    <glyph glyph-name="colon" unicode=":" horiz-adv-x="573" 
d="M418 318q55 -54 55 -132q0 -77 -55 -132q-54 -54 -132 -54q-77 0 -132 54q-54 55 -54 132q0 78 54 132q55 55 132 55q78 0 132 -55zM418 969q55 -54 55 -132q0 -77 -55 -132q-54 -54 -132 -54q-77 0 -132 54q-54 55 -54 132q0 78 54 132q55 55 132 55q78 0 132 -55z" />
    <glyph glyph-name="semicolon" unicode=";" horiz-adv-x="570" 
d="M446 216l-222 -502l-221 43l183 510zM418 969q55 -54 55 -132q0 -77 -55 -132q-54 -54 -132 -54q-77 0 -132 54q-54 55 -54 132q0 78 54 132q55 55 132 55q78 0 132 -55z" />
    <glyph glyph-name="semicolon" unicode="&#x37e;" horiz-adv-x="570" 
d="M446 216l-222 -502l-221 43l183 510zM418 969q55 -54 55 -132q0 -77 -55 -132q-54 -54 -132 -54q-77 0 -132 54q-54 55 -54 132q0 78 54 132q55 55 132 55q78 0 132 -55z" />
    <glyph glyph-name="less" unicode="&#x3c;" horiz-adv-x="1027" 
d="M100 747l827 447v-301l-548 -296l548 -296v-301l-827 446v301z" />
    <glyph glyph-name="equal" unicode="=" horiz-adv-x="1026" 
d="M100 133v301h826v-301h-826zM100 633v301h826v-301h-826z" />
    <glyph glyph-name="greater" unicode="&#x3e;" horiz-adv-x="1027" 
d="M927 446l-827 -446v301l548 296l-548 296v301l827 -447v-301z" />
    <glyph glyph-name="question" unicode="?" horiz-adv-x="1401" 
d="M854 535q-16 0 -16 -16v-96h-301v179q0 96 68 165q69 69 166 69h212q17 0 17 17v189q0 17 -17 17h-565q-17 0 -17 -17v-57h-301v140q0 97 69 165q69 69 165 69h733q96 0 165 -69q69 -68 69 -165v-356q0 -96 -69 -165t-165 -69h-213zM827 318q55 -54 55 -131
q0 -78 -55 -132q-54 -55 -131 -55q-78 0 -132 55q-55 54 -55 132q0 77 55 131q54 55 132 55q77 0 131 -55z" />
    <glyph glyph-name="at" unicode="@" horiz-adv-x="1778" 
d="M1465 1129q117 -138 144 -341q8 -60 8 -121q0 -123 -32 -253q-80 -322 -336 -350q-27 -4 -51 -4q-74 0 -127 38q-81 58 -81 147q-47 -45 -111 -45h-185q-66 0 -112 47q-47 47 -47 113l50 464q0 66 47 113q46 47 112 47h175q64 0 111 -46v46h205l-70 -731q15 -62 63 -62
q25 0 59 16q72 29 123 231q29 116 29 217q0 199 -114 340q-151 186 -432 186q-254 0 -415 -180q-160 -180 -160 -435q0 -282 191 -475q176 -180 384 -180q206 0 386 54q183 54 266 144h223q-104 -168 -349 -273q-244 -103 -526 -103q-284 0 -512 232q-241 245 -241 601
q0 328 212 561q213 232 541 232q377 0 572 -230zM1030 777q0 12 -12 12h-217q-11 0 -11 -12l-50 -370q0 -12 11 -12h217q12 0 12 12z" />
    <glyph glyph-name="A" unicode="A" horiz-adv-x="1559" 
d="M1062 709l-69 306q-9 37 -38 37h-352q-29 0 -37 -37l-69 -306h565zM429 408l-93 -408h-306l230 1019q33 148 115 238q92 102 224 102h360q132 0 225 -102q82 -90 115 -238l230 -1019h-307l-92 408h-701z" />
    <glyph glyph-name="B" unicode="B" horiz-adv-x="1559" 
d="M401 796h663q37 0 63 26t26 62v76q0 36 -26 62t-63 26h-663v-252zM401 310h663q37 0 63 26t26 63v75q0 37 -26 63t-63 26h-663v-253zM1295 678q113 -47 148 -121q16 -50 16 -106v-107q0 -142 -100 -243t-240 -101h-526q-105 0 -192 60v-60h-301v1359h301v-61
q87 61 192 61h526q140 0 240 -102q100 -101 100 -243v-107q0 -65 -21 -122q-38 -64 -143 -107z" />
    <glyph glyph-name="C" unicode="C" horiz-adv-x="1559" 
d="M444 1052q-38 0 -38 -37v-672q0 -37 38 -37h671q38 0 38 37v79h306v-83q0 -140 -100 -239q-100 -100 -240 -100h-679q-140 0 -240 100q-100 99 -100 239v680q0 140 100 240t240 100h679q140 0 240 -100t100 -240v-83h-306v79q0 37 -38 37h-671z" />
    <glyph glyph-name="D" unicode="D" horiz-adv-x="1559" 
d="M100 1359h301v-60q87 60 192 60h526q140 0 240 -100t100 -240v-680q0 -140 -100 -239q-100 -100 -240 -100h-526q-105 0 -192 60v-60h-301v1359zM401 1052v-746h602q62 0 106 44t44 105v448q0 62 -44 106q-44 43 -106 43h-602z" />
    <glyph glyph-name="E" unicode="E" horiz-adv-x="1400" 
d="M405 825h798v-291h-798v-191q0 -37 38 -37h860v-306h-864q-140 0 -240 100q-100 99 -100 239v680q0 140 100 240t240 100h864v-307h-860q-38 0 -38 -37v-190z" />
    <glyph glyph-name="F" unicode="F" horiz-adv-x="1400" 
d="M99 -2v1021q0 140 100 240t240 100h864v-307h-860q-38 0 -38 -37v-190h798v-291h-798v-536h-306z" />
    <glyph glyph-name="G" unicode="G" horiz-adv-x="1559" 
d="M665 533v233h794v-427q0 -140 -100 -239q-100 -100 -240 -100h-679q-140 0 -240 100q-100 99 -100 239v680q0 140 100 240t240 100h679q140 0 240 -100t100 -240v-83h-306v79q0 37 -38 37h-671q-38 0 -38 -37v-672q0 -37 38 -37h671q38 0 38 37v190h-488z" />
    <glyph glyph-name="H" unicode="H" horiz-adv-x="1450" 
d="M1049 1359h301v-1359h-301v563h-648v-563h-301v1359h301v-563h648v563z" />
    <glyph glyph-name="I" unicode="I" horiz-adv-x="501" 
d="M100 1359h301v-1359h-301v1359z" />
    <glyph glyph-name="J" unicode="J" horiz-adv-x="1176" 
d="M1076 1359v-1020q0 -140 -100 -239q-99 -100 -240 -100h-296q-69 0 -132 27q-61 25 -108 73q-47 47 -73 108q-27 63 -27 131v121h306v-117q0 -7 3 -14t8 -12t12 -8t15 -3h289q37 0 37 37v1016h306z" />
    <glyph glyph-name="K" unicode="K" horiz-adv-x="1573" 
d="M401 859h584q55 0 97 32q41 32 51 76v392h301v-412q0 -156 -163 -226q202 -65 202 -251v-470h-301v450q-10 45 -52 77q-42 31 -96 31h-623v-558h-301v1359h301v-500z" />
    <glyph glyph-name="L" unicode="L" horiz-adv-x="1297" 
d="M405 1359v-1017q0 -37 38 -37h750v-307h-754q-140 0 -240 100t-100 240v1021h306z" />
    <glyph glyph-name="M" unicode="M" horiz-adv-x="2082" 
d="M947 0q-153 0 -233 234l-249 807q-10 17 -27 17h-21q-17 0 -17 -17v-1040h-300v1123q0 97 69 166q68 68 165 68h198q153 0 233 -234l249 -806q6 -17 27 -17t27 17l249 806q80 234 233 234h198q97 0 165 -68q69 -69 69 -166v-1123h-300v1040q0 17 -17 17h-21
q-17 0 -27 -17l-249 -807q-80 -234 -233 -234h-188z" />
    <glyph glyph-name="N" unicode="N" horiz-adv-x="1559" 
d="M1081 301h61q17 0 17 17v1041h300v-1125q0 -96 -69 -165q-68 -69 -165 -69h-238q-153 0 -233 234l-249 807q-10 17 -27 17h-61q-17 0 -17 -17v-1040h-300v1123q0 97 69 166q68 68 165 68h238q153 0 233 -234l249 -806q6 -17 27 -17z" />
    <glyph glyph-name="O" unicode="O" horiz-adv-x="1559" 
d="M1119 1359q140 0 240 -100t100 -240v-680q0 -140 -100 -239q-100 -100 -240 -100h-679q-140 0 -240 100q-100 99 -100 239v680q0 140 100 240t240 100h679zM444 1052q-38 0 -38 -37v-672q0 -37 38 -37h671q38 0 38 37v672q0 37 -38 37h-671z" />
    <glyph glyph-name="P" unicode="P" horiz-adv-x="1559" 
d="M100 1359h301v-61q87 61 192 61h526q140 0 240 -102q100 -101 100 -243v-260q0 -142 -100 -243t-240 -101h-488q-123 0 -230 78v-488h-301v1359zM401 1068v-369h637q47 0 81 34t34 81v139q0 47 -34 81t-81 34h-637z" />
    <glyph glyph-name="Q" unicode="Q" horiz-adv-x="1559" 
d="M1119 1358q140 0 240 -100t100 -240v-939q0 -131 -89 -229q-88 -97 -217 -109v1273q0 37 -38 37h-671q-38 0 -38 -37v-672q0 -37 38 -37h634v-306h-638q-140 0 -240 100q-100 99 -100 239v680q0 140 100 240t240 100h679z" />
    <glyph glyph-name="R" unicode="R" horiz-adv-x="1559" 
d="M401 766h663q37 0 63 26t26 62v125q0 36 -26 62t-63 26h-663v-301zM1119 1359q140 0 240 -102q100 -101 100 -243v-183q0 -118 -164 -186q164 -68 164 -194v-451h-306v447q0 16 -13 27q-12 11 -29 11h-710v-485h-301v1359h301v-61q87 61 192 61h526z" />
    <glyph glyph-name="S" unicode="S" horiz-adv-x="1538" 
d="M336 558q-96 0 -166 72q-70 71 -70 168v330q0 95 70 162q69 66 166 66h830q97 0 165 -69q69 -68 69 -165v-99h-263v11q0 24 -23 24h-687q-24 0 -24 -24v-159q0 -7 5 -12t12 -5h784q97 0 166 -69q68 -69 68 -165v-390q0 -96 -68 -165q-69 -69 -166 -69h-868q-96 0 -165 69
t-69 165v98h301v-12q0 -24 24 -24h687q23 0 23 24v222q0 7 -4 11q-5 5 -12 5h-785z" />
    <glyph glyph-name="T" unicode="T" horiz-adv-x="1536" 
d="M100 1087v272h1336v-272h-518v-1087h-300v1087h-518z" />
    <glyph glyph-name="U" unicode="U" horiz-adv-x="1444" 
d="M1344 0h-301v60q-87 -60 -192 -60h-411q-140 0 -240 100q-100 99 -100 239v1020h306v-1016q0 -15 11 -26t27 -11h557q15 0 26 11t11 26v1016h306v-1359z" />
    <glyph glyph-name="V" unicode="V" horiz-adv-x="1545" 
d="M825 302q11 0 16 18l346 1038h318l-382 -1107q-41 -118 -86 -174q-60 -77 -148 -77h-238q-88 0 -149 77q-45 57 -85 174l-377 1107h301l358 -1038q6 -18 16 -18h110z" />
    <glyph glyph-name="W" unicode="W" horiz-adv-x="2022" 
d="M842 301q17 0 17 17v1041h304v-1041q0 -17 17 -17h424q17 0 17 17v1041h301v-1125q0 -97 -69 -165q-69 -69 -165 -69h-477q-62 0 -116 31q-53 31 -84 83q-31 -52 -84 -83q-54 -31 -116 -31h-477q-96 0 -165 69t-69 165v1125h301v-1041q0 -17 16 -17h425z" />
    <glyph glyph-name="X" unicode="X" horiz-adv-x="1636" 
d="M1198 849q37 0 37 47v463h301v-384q0 -111 -60 -170q-60 -58 -144 -85q84 -27 144 -85q60 -60 60 -181v-454h-301v515q0 37 -37 37h-761q-36 0 -36 -37v-515h-301v454q0 121 60 181q60 58 144 85q-84 27 -144 85q-60 59 -60 170v384h301v-473q0 -37 36 -37h761z" />
    <glyph glyph-name="Y" unicode="Y" horiz-adv-x="1459" 
d="M580 522h-140q-140 0 -240 100q-100 99 -100 239v497h306v-493q0 -37 38 -37h571q38 0 38 37v493h306v-497q0 -140 -100 -239q-100 -100 -240 -100h-139v-522h-300v522z" />
    <glyph glyph-name="Z" unicode="Z" horiz-adv-x="1469" 
d="M381 378v-61q0 -17 17 -17h1011v-300h-1095q-96 0 -165 69q-69 68 -69 165v238q0 153 234 233l729 249q17 10 17 27v61q0 17 -17 17h-917v300h1000q97 0 166 -69q68 -68 68 -165v-238q0 -153 -234 -233l-728 -249q-17 -6 -17 -27z" />
    <glyph glyph-name="bracketleft" unicode="[" horiz-adv-x="763" 
d="M100 1358h563v-307h-257v-1054h257v-306h-563v1667z" />
    <glyph glyph-name="backslash" unicode="\" horiz-adv-x="1114" 
d="M406 1359l608 -1515h-306l-608 1515h306z" />
    <glyph glyph-name="bracketright" unicode="]" horiz-adv-x="763" 
d="M663 -309h-563v306h257v1054h-257v307h563v-1667z" />
    <glyph glyph-name="asciicircum" unicode="^" horiz-adv-x="1294" 
d="M797 1357l447 -827h-301l-296 548l-296 -548h-301l446 827h301z" />
    <glyph glyph-name="underscore" unicode="_" horiz-adv-x="1026" 
d="M-43 -348v301h1103v-301h-1103z" />
    <glyph glyph-name="grave" unicode="`" horiz-adv-x="1003" 
d="M430 1010l-300 383h426l182 -383h-308z" />
    <glyph glyph-name="a" unicode="a" 
d="M334 0q-97 0 -165 69q-69 68 -69 165v224q7 88 95 95h540v150q0 17 -17 17h-280q-17 0 -17 -17v-48h-301v47q0 97 69 165q68 69 165 69h448q97 0 165 -69q69 -68 69 -165v-702h-301v86q-58 -86 -163 -86h-238zM735 387h-297q-37 0 -37 -37v-97q0 -27 27 -27h280
q27 0 27 27v134z" />
    <glyph glyph-name="b" unicode="b" 
d="M418 655q-17 0 -17 -17v-341q0 -16 17 -16h301q16 0 16 16v341q0 17 -16 17h-301zM802 936q97 0 165 -69q69 -69 69 -165v-468q0 -97 -69 -166q-68 -68 -165 -68h-238q-95 0 -163 66v-66h-301v1359h301v-490q68 67 163 67h238z" />
    <glyph glyph-name="c" unicode="c" 
d="M418 655q-17 0 -17 -17v-341q0 -16 17 -16h301q16 0 16 16v46h301v-109q0 -97 -69 -166q-68 -68 -165 -68h-468q-97 0 -165 68q-69 69 -69 166v468q0 96 69 165q68 69 165 69h468q97 0 165 -69q69 -69 69 -165v-110h-301v46q0 17 -16 17h-301z" />
    <glyph glyph-name="d" unicode="d" 
d="M418 655q-17 0 -17 -17v-341q0 -16 17 -16h301q16 0 16 16v341q0 17 -16 17h-301zM572 936q95 0 163 -67v490h301v-1359h-301v66q-68 -66 -163 -66h-238q-96 0 -165 68q-69 69 -69 166v468q0 96 69 165q68 69 165 69h238z" />
    <glyph glyph-name="e" unicode="e" 
d="M418 710q-17 0 -17 -17v-144h334v144q0 17 -17 17h-300zM1036 448q0 -26 -19 -46q-19 -19 -46 -19h-570v-150q0 -17 17 -17h300q17 0 17 17v68h301v-67q0 -97 -69 -165q-68 -69 -165 -69h-468q-97 0 -165 69q-69 68 -69 165v468q0 97 69 165q68 69 165 69h468
q97 0 165 -69q69 -68 69 -165v-254z" />
    <glyph glyph-name="f" unicode="f" horiz-adv-x="617" 
d="M418 1078q-17 0 -17 -17v-125h176v-212h-176v-724h-301v1125q0 96 69 165t165 69h243v-281h-159z" />
    <glyph glyph-name="g" unicode="g" 
d="M1036 -189q0 -97 -69 -165q-68 -69 -165 -69h-468q-97 0 -165 69q-69 68 -69 165v109h301v-62q0 -16 17 -16h301q16 0 16 16v265q-68 -66 -163 -66h-238q-96 0 -165 68q-69 69 -69 166v411q0 96 69 165q68 69 165 69h238q95 0 163 -67v67h301v-1125zM418 655
q-17 0 -17 -17v-284q0 -16 17 -16h301q16 0 16 16v284q0 17 -16 17h-301z" />
    <glyph glyph-name="h" unicode="h" 
d="M401 869q68 67 163 67h238q97 0 165 -69q69 -69 69 -165v-702h-301v638q0 17 -16 17h-301q-17 0 -17 -17v-638h-301v1359h301v-490z" />
    <glyph glyph-name="i" unicode="i" horiz-adv-x="501" 
d="M401 0h-301v936h301v-936zM382 1339q55 -54 55 -132q0 -77 -55 -132q-54 -54 -132 -54q-77 0 -132 54q-54 55 -54 132q0 78 54 132q55 55 132 55q78 0 132 -55z" />
    <glyph glyph-name="j" unicode="j" horiz-adv-x="591" 
d="M150 942h301v-1125q0 -97 -69 -165q-69 -69 -165 -69h-243v301h159q17 0 17 16v1042zM436 1339q55 -54 55 -132q0 -77 -55 -132q-54 -54 -132 -54q-77 0 -132 54q-54 55 -54 132q0 78 54 132q55 55 132 55q78 0 132 -55z" />
    <glyph glyph-name="k" unicode="k" horiz-adv-x="1119" 
d="M401 630h263q16 0 16 16v281h301v-249q0 -116 -93 -187q131 -65 131 -210v-281h-300v312q0 17 -17 17h-301v-329h-301v1359h301v-729z" />
    <glyph glyph-name="l" unicode="l" horiz-adv-x="501" 
d="M401 0h-301v1359h301v-1359z" />
    <glyph glyph-name="m" unicode="m" horiz-adv-x="1767" 
d="M401 0h-301v936h301v-63q67 63 159 63h179q130 0 199 -110q69 110 198 110h297q97 0 165 -69q69 -68 69 -165v-702h-301v639q0 16 -16 16h-301q-17 0 -17 -16v-639h-301v638q0 17 -16 17h-301q-13 0 -13 -15v-640z" />
    <glyph glyph-name="n" unicode="n" 
d="M401 0h-301v936h301v-63q67 63 159 63h238q97 0 165 -69q69 -68 69 -165v-702h-301v639q0 16 -16 16h-301q-13 0 -13 -13v-642z" />
    <glyph glyph-name="o" unicode="o" 
d="M418 655q-17 0 -17 -17v-341q0 -16 17 -16h301q16 0 16 16v341q0 17 -16 17h-301zM802 936q97 0 165 -69q69 -69 69 -165v-468q0 -97 -69 -166q-68 -68 -165 -68h-468q-97 0 -165 68q-69 69 -69 166v468q0 96 69 165q68 69 165 69h468z" />
    <glyph glyph-name="p" unicode="p" 
d="M719 281q16 0 16 16v341q0 17 -16 17h-301q-17 0 -17 -17v-341q0 -16 17 -16h301zM564 0q-95 0 -163 66v-489h-301v1359h301v-67q68 67 163 67h238q97 0 165 -69q69 -69 69 -165v-468q0 -97 -69 -166q-68 -68 -165 -68h-238z" />
    <glyph glyph-name="q" unicode="q" 
d="M719 282q16 0 16 16v341q0 17 -16 17h-301q-17 0 -17 -17v-341q0 -16 17 -16h301zM334 1q-97 0 -165 68q-69 69 -69 166v468q0 96 69 165t165 69h238q95 0 163 -67v67h301v-1359h-301v489q-68 -66 -163 -66h-238z" />
    <glyph glyph-name="r" unicode="r" horiz-adv-x="1093" 
d="M401 0h-301v936h301v-67q68 67 163 67h238q97 0 165 -69q69 -69 69 -165v-145h-301v61q0 17 -16 17h-301q-17 0 -17 -17v-618z" />
    <glyph glyph-name="s" unicode="s" horiz-adv-x="1138" 
d="M336 377q-96 0 -166 72q-70 71 -70 168v91q0 95 70 162q69 66 166 66h430q97 0 165 -69q69 -68 69 -165v-67h-263v71q0 24 -23 24h-287q-24 0 -24 -24v-110q0 -7 5 -12t12 -5h384q97 0 166 -69q68 -69 68 -165v-111q0 -96 -68 -165q-69 -69 -166 -69h-468q-96 0 -165 69
t-69 165v67h301v-52q0 -24 24 -24h287q23 0 23 24v112q0 7 -4 11q-5 5 -12 5h-385z" />
    <glyph glyph-name="t" unicode="t" horiz-adv-x="804" 
d="M90 936h162v328l301 88v-416h161v-238h-161v-698h-301v698h-162v238z" />
    <glyph glyph-name="u" unicode="u" horiz-adv-x="1132" 
d="M731 936h301v-936h-301v63q-67 -63 -159 -63h-238q-97 0 -165 69q-69 69 -69 165v702h301v-638q0 -17 17 -17h300q13 0 13 13v642z" />
    <glyph glyph-name="v" unicode="v" horiz-adv-x="1165" 
d="M635 302q11 0 16 18l176 616h318l-212 -685q-41 -118 -86 -174q-60 -77 -148 -77h-238q-88 0 -149 77q-45 57 -85 174l-207 685h301l188 -616q6 -18 16 -18h110z" />
    <glyph glyph-name="w" unicode="w" horiz-adv-x="1622" 
d="M642 281q17 0 17 17v638h304v-638q0 -17 17 -17h224q17 0 17 17v638h301v-702q0 -97 -69 -165q-69 -69 -165 -69h-277q-62 0 -116 31q-53 31 -84 83q-31 -52 -84 -83q-54 -31 -116 -31h-277q-96 0 -165 69t-69 165v702h301v-638q0 -17 16 -17h225z" />
    <glyph glyph-name="x" unicode="x" 
d="M718 606q7 0 12 5t5 12v313h301v-224q0 -71 -40 -130q-40 -58 -104 -85q64 -27 104 -85q40 -60 40 -131v-281h-301v332q0 7 -5 12t-12 5h-301q-16 0 -16 -17v-332h-301v281q0 71 40 131q40 58 104 85q-64 27 -104 85q-40 59 -40 130v224h301v-313q0 -17 16 -17h301z" />
    <glyph glyph-name="y" unicode="y" horiz-adv-x="1133" 
d="M733 936h300v-1121q0 -96 -69 -164q-68 -69 -164 -69h-467q-96 0 -164 68q-69 69 -69 165v109h300v-66q0 -16 17 -16h299q17 0 17 16v263q-67 -63 -158 -63h-238q-96 0 -165 68q-68 69 -68 165v645h300v-572q0 -16 16 -16h300q11 0 13 13v575z" />
    <glyph glyph-name="z" unicode="z" horiz-adv-x="1098" 
d="M1018 257v-257h-724q-84 0 -144 60t-60 143v91q8 131 198 202l495 183h-641v257h635q83 0 143 -60t60 -143v-91q6 -119 -197 -202l-465 -183h700z" />
    <glyph glyph-name="braceleft" unicode="{" horiz-adv-x="763" 
d="M100 1358h563v-307h-257v-1054h257v-306h-563v1667z" />
    <glyph glyph-name="bar" unicode="|" horiz-adv-x="441" 
d="M341 1359v-1668h-241v1668h241z" />
    <glyph glyph-name="braceright" unicode="}" horiz-adv-x="763" 
d="M663 -309h-563v306h257v1054h-257v307h563v-1667z" />
    <glyph glyph-name="asciitilde" unicode="~" horiz-adv-x="1209" 
d="M100 928q126 -49 257 -65q49 -6 91 -6q95 0 156 30q102 49 246 49h6q143 -1 253 -47v-241q-109 47 -252 48q-148 0 -253 -50q-61 -30 -156 -30q-42 0 -91 6q-132 16 -257 65v241z" />
    <glyph glyph-name="exclamdown" unicode="&#xa1;" horiz-adv-x="573" 
d="M154 706q-54 54 -54 132q0 77 54 132q55 54 132 54q78 0 132 -54q55 -55 55 -132q0 -78 -55 -132q-54 -55 -132 -55q-77 0 -132 55zM437 -335h-301v563l38 311h224l39 -311v-563z" />
    <glyph glyph-name="cent" unicode="&#xa2;" horiz-adv-x="1559" 
d="M1014 934q77 -10 133 -67q69 -69 69 -165v-110h-301v26q0 17 -16 17h-5l-134 -334h139q16 0 16 16v26h301v-109q0 -97 -69 -166q-68 -68 -165 -68h-342l-63 -156h-146l63 157q-84 6 -145 67q-69 69 -69 166v468q0 96 69 165q68 69 165 69h355l63 157h146zM748 635h-150
q-17 0 -17 -17v-301q0 -16 17 -16h16z" />
    <glyph glyph-name="sterling" unicode="&#xa3;" horiz-adv-x="1299" 
d="M578 1053q-16 0 -27 -11t-11 -27v-219h243v-234h-243v-270q15 -1 30 -1q95 0 154 29q99 48 239 48h6q138 -1 245 -46v-291q-106 46 -245 46h-6q-139 0 -239 -48q-59 -29 -151 -29q-41 0 -89 6q-129 16 -250 63v493h-224v234h224v223q0 140 100 240t240 100h258
q140 0 240 -100t100 -240v-83h-306v79q0 16 -11 27t-26 11h-251z" />
    <glyph glyph-name="currency" unicode="&#xa4;" horiz-adv-x="1138" 
d="M412 516q41 -40 99 -57q29 -8 58 -8t58 8q58 17 99 57q40 41 57 99q9 29 9 58t-9 58q-17 58 -57 99q-41 40 -100 57q-29 8 -58 8t-58 -9q-58 -17 -98 -56q-39 -40 -56 -98q-10 -30 -10 -60q0 -28 9 -56q16 -59 57 -100zM209 923l-159 160l108 109l159 -159q60 40 134 62
q59 19 120 19q55 0 112 -16q77 -23 137 -65l160 159l108 -109l-158 -158q42 -62 65 -138q16 -56 16 -114q0 -57 -16 -115q-23 -76 -65 -138l158 -158l-108 -109l-160 159q-60 -43 -136 -65q-56 -16 -114 -16q-57 0 -115 16q-77 22 -138 65l-159 -159l-108 109l159 158
q-43 62 -65 139q-16 57 -16 114q0 59 18 117q21 74 63 133z" />
    <glyph glyph-name="yen" unicode="&#xa5;" horiz-adv-x="1559" 
d="M779 259v-259h-255v259h-254v118h254v59h-254v118h254v68h-119q-119 0 -204 100q-85 99 -85 239v397h261v-393q0 -37 32 -37h485q32 0 32 37v393h261v-397q0 -140 -85 -239q-85 -100 -204 -100h-119v-68h264v-118h-264v-59h264v-118h-264z" />
    <glyph glyph-name="brokenbar" unicode="&#xa6;" horiz-adv-x="441" 
d="M341 1434v-717h-241v717h241zM341 307v-717h-241v717h241z" />
    <glyph glyph-name="section" unicode="&#xa7;" horiz-adv-x="1504" 
d="M423 571q-17 -1 -17 -17v-168q0 -17 17 -17h675v185q0 17 -17 17h-658zM1098 50q0 17 -17 17h-743q-98 0 -168 69t-70 166v259q0 134 133 161q-133 27 -133 161v240q0 97 70 166t168 69h828q98 0 168 -69t70 -166v-104l-306 -37v57q0 17 -17 17h-658q-17 0 -17 -17v-149
q0 -16 17 -17h743q98 0 168 -69t70 -166v-237q0 -134 -132 -162q132 -27 132 -161v-299q0 -97 -70 -166q-70 -70 -168 -70h-828q-98 0 -168 70q-70 69 -70 166v117l306 37v-70q0 -17 17 -17h658q17 0 17 17v187z" />
    <glyph glyph-name="dieresis" unicode="&#xa8;" horiz-adv-x="1082" 
d="M450 1309q49 -50 49 -120t-49 -120q-50 -50 -120 -50t-120 50t-50 120t50 120t120 50t120 -50zM873 1309q49 -49 49 -119t-49 -120q-50 -50 -120 -50t-120 50t-50 120t50 119q50 50 120 50t120 -50z" />
    <glyph glyph-name="copyright" unicode="&#xa9;" horiz-adv-x="1559" 
d="M1260 1160q199 -199 199 -480q0 -282 -199 -481t-481 -199q-281 0 -480 199t-199 481q0 281 199 480t480 199q282 0 481 -199zM411 1048q-153 -153 -153 -368q0 -216 153 -369t368 -153q216 0 369 153t153 369q0 215 -153 368t-369 153q-215 0 -368 -153zM612 866
q-19 0 -19 -19v-335q0 -19 19 -19h335q19 0 19 19v39h153v-41q0 -71 -50 -120q-50 -50 -120 -50h-339q-71 0 -120 50q-50 49 -50 120v339q0 71 50 120q49 50 120 50h339q70 0 120 -50q50 -49 50 -120v-41h-153v39q0 19 -19 19h-335z" />
    <glyph glyph-name="ordfeminine" unicode="&#xaa;" horiz-adv-x="818" 
d="M254 797q-64 0 -108 41q-46 41 -46 99v135q5 53 63 57h356v90q0 10 -11 10h-185q-11 0 -11 -10v-29h-199v28q0 58 46 99q45 42 109 42h295q64 0 109 -42q46 -41 46 -99v-421h-199v52q-38 -52 -107 -52h-158zM519 1029h-196q-24 0 -24 -22v-58q0 -16 17 -16h185
q18 0 18 16v80z" />
    <glyph glyph-name="guillemotleft" unicode="&#xab;" horiz-adv-x="1280" 
d="M463 267l-343 390l339 386h278l-338 -386l338 -386v-4h-274zM906 267l-343 390l339 386h278l-338 -386l338 -386v-4h-274z" />
    <glyph glyph-name="logicalnot" unicode="&#xac;" horiz-adv-x="1014" 
d="M87 937h840v-491l-1 -1h-198v292h-641v200z" />
    <glyph glyph-name="registered" unicode="&#xae;" horiz-adv-x="1559" 
d="M1260 1160q199 -199 199 -480q0 -282 -199 -481t-481 -199q-281 0 -480 199t-199 481q0 281 199 480t480 199q282 0 481 -199zM411 1048q-153 -153 -153 -368q0 -216 153 -369t368 -153q216 0 369 153t153 369q0 215 -153 368t-369 153q-215 0 -368 -153zM590 738h332
q18 0 31 13t13 31v38q0 18 -13 31t-31 13h-332v-126zM949 1019q70 0 120 -50q50 -51 50 -122v-92q0 -59 -82 -92q82 -35 82 -98v-225h-153v223q0 19 -21 19h-355v-242h-150v679h150v-30q44 30 96 30h263z" />
    <glyph glyph-name="macron" unicode="&#xaf;" horiz-adv-x="1026" 
d="M100 1306v301h626v-301h-626z" />
    <glyph glyph-name="degree" unicode="&#xb0;" horiz-adv-x="760" 
d="M578 1351q82 -82 82 -198t-82 -198t-198 -82t-198 82t-82 198t82 198t198 82t198 -82zM318 1215q-26 -26 -26 -62t26 -62t62 -26t62 26t26 62t-26 62t-62 26t-62 -26z" />
    <glyph glyph-name="plusminus" unicode="&#xb1;" horiz-adv-x="1102" 
d="M100 776v257h322v323h257v-323h323v-257h-323v-322h-257v322h-322zM100 4v257h900v-257h-900z" />
    <glyph glyph-name="uni00B2" unicode="&#xb2;" horiz-adv-x="1096" 
d="M322 798q-12 0 -12 -12v-156q0 -12 12 -12h674v-47q0 -67 -48 -116q-48 -47 -116 -47h-568q-68 0 -116 47q-48 49 -48 116v274q0 67 48 115t116 48h510q11 0 11 12v116q0 12 -11 12h-647v47q0 67 48 116q48 48 115 48h542q68 0 116 -48q48 -49 48 -116v-234
q0 -67 -48 -115t-116 -48h-510z" />
    <glyph glyph-name="uni00B3" unicode="&#xb3;" horiz-adv-x="1043" 
d="M705 1359q98 0 168 -71t70 -170v-75q0 -91 -60 -160q60 -69 60 -160v-74q0 -100 -70 -171q-70 -70 -168 -70h-368q-92 0 -161 63q-68 62 -76 154h599q12 0 21 7q9 9 9 19v111q0 10 -9 18q-9 9 -21 9h-474v189h474q12 0 21 8t9 19v110q0 11 -9 19q-9 7 -21 7h-599
q8 92 76 154q69 64 161 64h368z" />
    <glyph glyph-name="acute" unicode="&#xb4;" horiz-adv-x="1097" 
d="M309 1010l182 383h426l-300 -383h-308z" />
    <glyph glyph-name="mu" unicode="&#xb5;" horiz-adv-x="1370" 
d="M100 1359h301v-423q0 -181 89 -290q80 -99 195 -101h5q113 0 190 95q89 108 89 296v423h301v-1168h-301v269q0 -85 -89 -135q-77 -43 -185 -43h-10q-116 1 -195 51q-89 55 -89 147v-480h-301v1359z" />
    <glyph glyph-name="paragraph" unicode="&#xb6;" horiz-adv-x="1039" 
d="M942 1360v-133h-92v-1227h-134v1227h-129v-1227h-137v699q-165 8 -261 97.5t-96 232.5q0 149 102 240t270 91h477z" />
    <glyph glyph-name="periodcentered" unicode="&#xb7;" horiz-adv-x="546" 
d="M370 791q47 -46 47 -112q0 -65 -47 -112q-46 -46 -112 -46q-65 0 -112 46q-46 47 -46 112q0 66 46 112q47 47 112 47q66 0 112 -47z" />
    <glyph glyph-name="periodcentered" unicode="&#x2219;" horiz-adv-x="546" 
d="M370 791q47 -46 47 -112q0 -65 -47 -112q-46 -46 -112 -46q-65 0 -112 46q-46 47 -46 112q0 66 46 112q47 47 112 47q66 0 112 -47z" />
    <glyph glyph-name="cedilla" unicode="&#xb8;" horiz-adv-x="678" 
d="M278 0h187l-36 -118q69 -8 107 -46q42 -42 42 -116q0 -78 -53 -131q-46 -47 -128 -71q-86 -26 -175 -26q-60 0 -122 12l12 149q65 -4 104 -4q28 0 43 2q95 12 95 80q0 49 -49 65q-25 8 -85 9z" />
    <glyph glyph-name="uni00B9" unicode="&#xb9;" horiz-adv-x="415" 
d="M315 1359v-951h-215v790q0 67 48 113q47 48 113 48h54z" />
    <glyph glyph-name="ordmasculine" unicode="&#xba;" horiz-adv-x="818" 
d="M310 1190q-11 0 -11 -10v-205q0 -9 11 -9h199q10 0 10 9v205q0 10 -10 10h-199zM563 1359q64 0 109 -42q46 -41 46 -99v-281q0 -58 -46 -99q-45 -41 -109 -41h-309q-64 0 -108 41q-46 41 -46 99v281q0 58 46 99q44 42 108 42h309z" />
    <glyph glyph-name="guillemotright" unicode="&#xbb;" horiz-adv-x="1280" 
d="M100 267v4l338 386l-338 386h278l339 -386l-343 -390h-274zM543 267v4l338 386l-338 386h278l339 -386l-343 -390h-274z" />
    <glyph glyph-name="onequarter" unicode="&#xbc;" horiz-adv-x="2200" 
d="M315 1359v-951h-215v790q0 67 48 113q47 48 113 48h54zM1429 1459l-1108 -1575h-206l1108 1575h206zM2100 108h-202v-108h-215v108h-454v790q0 67 47 113q48 48 114 48h53v-737h240v93q0 67 48 113q47 48 113 48h54v-254h41q66 0 114 -47q47 -48 47 -114v-53z" />
    <glyph glyph-name="onehalf" unicode="&#xbd;" horiz-adv-x="2225" 
d="M315 1359v-951h-215v790q0 67 48 113q47 48 113 48h54zM1429 1459l-1108 -1575h-206l1108 1575h206zM1451 390q-12 0 -12 -12v-156q0 -12 12 -12h674v-47q0 -67 -48 -116q-48 -47 -116 -47h-568q-68 0 -116 47q-48 49 -48 116v274q0 67 48 115t116 48h510q11 0 11 12v116
q0 12 -11 12h-647v47q0 67 48 116q48 48 115 48h542q68 0 116 -48q48 -49 48 -116v-234q0 -67 -48 -115t-116 -48h-510z" />
    <glyph glyph-name="threequarters" unicode="&#xbe;" horiz-adv-x="2828" 
d="M705 1359q98 0 168 -71t70 -170v-75q0 -91 -60 -160q60 -69 60 -160v-74q0 -100 -70 -171q-70 -70 -168 -70h-368q-92 0 -161 63q-68 62 -76 154h599q12 0 21 7q9 9 9 19v111q0 10 -9 18q-9 9 -21 9h-474v189h474q12 0 21 8t9 19v110q0 11 -9 19q-9 7 -21 7h-599
q8 92 76 154q69 64 161 64h368zM2057 1459l-1108 -1575h-206l1108 1575h206zM2728 108h-202v-108h-215v108h-454v790q0 67 47 113q48 48 114 48h53v-737h240v93q0 67 48 113q47 48 113 48h54v-254h41q66 0 114 -47q47 -48 47 -114v-53z" />
    <glyph glyph-name="questiondown" unicode="&#xbf;" horiz-adv-x="1401" 
d="M547 489q16 0 16 16v96h301v-179q0 -96 -68 -165q-69 -69 -166 -69h-212q-17 0 -17 -17v-189q0 -17 17 -17h565q17 0 17 17v57h301v-140q0 -97 -69 -165q-69 -69 -165 -69h-733q-96 0 -165 69q-69 68 -69 165v356q0 96 69 165t165 69h213zM574 706q-55 54 -55 131
q0 78 55 132q54 55 131 55q78 0 132 -55q55 -54 55 -132q0 -77 -55 -131q-54 -55 -132 -55q-77 0 -131 55z" />
    <glyph glyph-name="Agrave" unicode="&#xc0;" horiz-adv-x="1789" 
d="M1132 709l-69 306q-9 37 -38 37h-352q-29 0 -37 -37l-69 -306h565zM499 408l-93 -408h-306l230 1019q33 148 115 238q92 102 224 102h360q132 0 225 -102q82 -90 115 -238l230 -1019h-307l-92 408h-701zM789 1433l-300 383h426l182 -383h-308z" />
    <glyph glyph-name="Aacute" unicode="&#xc1;" horiz-adv-x="1789" 
d="M1132 709l-69 306q-9 37 -38 37h-352q-29 0 -37 -37l-69 -306h565zM499 408l-93 -408h-306l230 1019q33 148 115 238q92 102 224 102h360q132 0 225 -102q82 -90 115 -238l230 -1019h-307l-92 408h-701zM692 1433l182 383h426l-300 -383h-308z" />
    <glyph glyph-name="Acircumflex" unicode="&#xc2;" horiz-adv-x="1789" 
d="M1132 709l-69 306q-9 37 -38 37h-352q-29 0 -37 -37l-69 -306h565zM499 408l-93 -408h-306l230 1019q33 148 115 238q92 102 224 102h360q132 0 225 -102q82 -90 115 -238l230 -1019h-307l-92 408h-701zM428 1431l278 385h377l278 -385h-302l-164 225l-165 -225h-302z
" />
    <glyph glyph-name="Atilde" unicode="&#xc3;" horiz-adv-x="1789" 
d="M1132 709l-69 306q-9 37 -38 37h-352q-29 0 -37 -37l-69 -306h565zM499 408l-93 -408h-306l230 1019q33 148 115 238q92 102 224 102h360q132 0 225 -102q82 -90 115 -238l230 -1019h-307l-92 408h-701zM1332 1772q1 -25 1 -48q0 -117 -26 -180q-45 -110 -177 -110
q-82 0 -202 52t-166 52q-73 0 -75 -100h-229q-1 29 -1 51q0 114 63 195q68 88 179 88q66 0 174 -52t172 -52q40 0 50 33q4 12 6 71h231z" />
    <glyph glyph-name="Adieresis" unicode="&#xc4;" horiz-adv-x="1789" 
d="M1132 709l-69 306q-9 37 -38 37h-352q-29 0 -37 -37l-69 -306h565zM499 408l-93 -408h-306l230 1019q33 148 115 238q92 102 224 102h360q132 0 225 -102q82 -90 115 -238l230 -1019h-307l-92 408h-701zM804 1732q49 -50 49 -120t-49 -120q-50 -50 -120 -50t-120 50
t-50 120t50 120t120 50t120 -50zM1227 1732q49 -49 49 -119t-49 -120q-50 -50 -120 -50t-120 50t-50 120t50 119q50 50 120 50t120 -50z" />
    <glyph glyph-name="Aring" unicode="&#xc5;" horiz-adv-x="1789" 
d="M1132 709l-69 306q-9 37 -38 37h-352q-29 0 -37 -37l-69 -306h565zM499 408l-93 -408h-306l230 1019q33 148 115 238q92 102 224 102h360q132 0 225 -102q82 -90 115 -238l230 -1019h-307l-92 408h-701zM1093 1779q82 -77 82 -187t-82 -187q-82 -78 -198 -78t-198 78
q-82 77 -82 187t82 187q82 78 198 78t198 -78zM833 1651q-26 -25 -26 -59t26 -59q26 -24 62 -24t62 24q26 25 26 59t-26 59q-26 24 -62 24t-62 -24z" />
    <glyph glyph-name="AE" unicode="&#xc6;" horiz-adv-x="2414" 
d="M1222 709l-69 306q-9 37 -38 37h-442q-29 0 -37 -37l-69 -306h655zM1382 0l-92 408h-791l-93 -408h-306l230 1019q33 148 115 238q92 102 224 102h1665v-301h-859l60 -262h646v-233h-586l70 -262h669v-301h-952z" />
    <glyph glyph-name="Ccedilla" unicode="&#xc7;" horiz-adv-x="1559" 
d="M444 1052q-38 0 -38 -37v-672q0 -37 38 -37h671q38 0 38 37v79h306v-83q0 -140 -100 -239q-100 -100 -240 -100h-679q-140 0 -240 100q-100 99 -100 239v680q0 140 100 240t240 100h679q140 0 240 -100t100 -240v-83h-306v79q0 37 -38 37h-671zM719 0h187l-36 -118
q69 -8 107 -46q42 -42 42 -116q0 -78 -53 -131q-46 -47 -128 -71q-86 -26 -175 -26q-60 0 -122 12l12 149q65 -4 104 -4q28 0 43 2q95 12 95 80q0 49 -49 65q-25 8 -85 9z" />
    <glyph glyph-name="Egrave" unicode="&#xc8;" horiz-adv-x="1450" 
d="M405 825h798v-291h-798v-191q0 -37 38 -37h860v-306h-864q-140 0 -240 100q-100 99 -100 239v680q0 140 100 240t240 100h864v-307h-860q-38 0 -38 -37v-190zM620 1433l-300 383h426l182 -383h-308z" />
    <glyph glyph-name="Eacute" unicode="&#xc9;" horiz-adv-x="1450" 
d="M405 825h798v-291h-798v-191q0 -37 38 -37h860v-306h-864q-140 0 -240 100q-100 99 -100 239v680q0 140 100 240t240 100h864v-307h-860q-38 0 -38 -37v-190zM522 1433l182 383h426l-300 -383h-308z" />
    <glyph glyph-name="Ecircumflex" unicode="&#xca;" horiz-adv-x="1450" 
d="M405 825h798v-291h-798v-191q0 -37 38 -37h860v-306h-864q-140 0 -240 100q-100 99 -100 239v680q0 140 100 240t240 100h864v-307h-860q-38 0 -38 -37v-190zM259 1431l278 385h377l278 -385h-302l-164 225l-165 -225h-302z" />
    <glyph glyph-name="Edieresis" unicode="&#xcb;" horiz-adv-x="1450" 
d="M405 825h798v-291h-798v-191q0 -37 38 -37h860v-306h-864q-140 0 -240 100q-100 99 -100 239v680q0 140 100 240t240 100h864v-307h-860q-38 0 -38 -37v-190zM634 1732q49 -50 49 -120t-49 -120q-50 -50 -120 -50t-120 50t-50 120t50 120t120 50t120 -50zM1057 1732
q49 -49 49 -119t-49 -120q-50 -50 -120 -50t-120 50t-50 120t50 119q50 50 120 50t120 -50z" />
    <glyph glyph-name="Igrave" unicode="&#xcc;" horiz-adv-x="501" 
d="M355 1359h301v-1359h-301v1359zM400 1433l-300 383h426l182 -383h-308z" />
    <glyph glyph-name="Iacute" unicode="&#xcd;" horiz-adv-x="501" 
d="M152 1359h301v-1359h-301v1359zM100 1433l182 383h426l-300 -383h-308z" />
    <glyph glyph-name="Icircumflex" unicode="&#xce;" horiz-adv-x="501" 
d="M416 1359h301v-1359h-301v1359zM100 1431l278 385h377l278 -385h-302l-164 225l-165 -225h-302z" />
    <glyph glyph-name="Idieresis" unicode="&#xcf;" horiz-adv-x="501" 
d="M390 1359h301v-1359h-301v1359zM450 1732q49 -50 49 -120t-49 -120q-50 -50 -120 -50t-120 50t-50 120t50 120t120 50t120 -50zM873 1732q49 -49 49 -119t-49 -120q-50 -50 -120 -50t-120 50t-50 120t50 119q50 50 120 50t120 -50z" />
    <glyph glyph-name="Eth" unicode="&#xd0;" horiz-adv-x="1590" 
d="M432 549v-243h602q62 0 106 44t44 105v448q0 62 -44 106q-44 43 -106 43h-602v-242h315v-261h-315zM131 810v549h301v-60q87 60 192 60h526q140 0 240 -100t100 -240v-680q0 -140 -100 -239q-100 -100 -240 -100h-526q-105 0 -192 60v-60h-301v549h-130v261h130z" />
    <glyph glyph-name="Ntilde" unicode="&#xd1;" horiz-adv-x="1559" 
d="M1081 301h61q17 0 17 17v1041h300v-1125q0 -96 -69 -165q-68 -69 -165 -69h-238q-153 0 -233 234l-249 807q-10 17 -27 17h-61q-17 0 -17 -17v-1040h-300v1123q0 97 69 166q68 68 165 68h238q153 0 233 -234l249 -806q6 -17 27 -17zM1247 1772q1 -25 1 -48
q0 -117 -26 -180q-45 -110 -177 -110q-82 0 -202 52t-166 52q-73 0 -75 -100h-229q-1 29 -1 51q0 114 63 195q68 88 179 88q66 0 174 -52t172 -52q40 0 50 33q4 12 6 71h231z" />
    <glyph glyph-name="Ograve" unicode="&#xd2;" horiz-adv-x="1559" 
d="M1119 1359q140 0 240 -100t100 -240v-680q0 -140 -100 -239q-100 -100 -240 -100h-679q-140 0 -240 100q-100 99 -100 239v680q0 140 100 240t240 100h679zM444 1052q-38 0 -38 -37v-672q0 -37 38 -37h671q38 0 38 37v672q0 37 -38 37h-671zM674 1433l-300 383h426
l182 -383h-308z" />
    <glyph glyph-name="Oacute" unicode="&#xd3;" horiz-adv-x="1559" 
d="M1119 1359q140 0 240 -100t100 -240v-680q0 -140 -100 -239q-100 -100 -240 -100h-679q-140 0 -240 100q-100 99 -100 239v680q0 140 100 240t240 100h679zM444 1052q-38 0 -38 -37v-672q0 -37 38 -37h671q38 0 38 37v672q0 37 -38 37h-671zM577 1433l182 383h426
l-300 -383h-308z" />
    <glyph glyph-name="Ocircumflex" unicode="&#xd4;" horiz-adv-x="1559" 
d="M1119 1359q140 0 240 -100t100 -240v-680q0 -140 -100 -239q-100 -100 -240 -100h-679q-140 0 -240 100q-100 99 -100 239v680q0 140 100 240t240 100h679zM444 1052q-38 0 -38 -37v-672q0 -37 38 -37h671q38 0 38 37v672q0 37 -38 37h-671zM313 1431l278 385h377
l278 -385h-302l-164 225l-165 -225h-302z" />
    <glyph glyph-name="Otilde" unicode="&#xd5;" horiz-adv-x="1559" 
d="M1119 1359q140 0 240 -100t100 -240v-680q0 -140 -100 -239q-100 -100 -240 -100h-679q-140 0 -240 100q-100 99 -100 239v680q0 140 100 240t240 100h679zM444 1052q-38 0 -38 -37v-672q0 -37 38 -37h671q38 0 38 37v672q0 37 -38 37h-671zM1217 1772q1 -25 1 -48
q0 -117 -26 -180q-45 -110 -177 -110q-82 0 -202 52t-166 52q-73 0 -75 -100h-229q-1 29 -1 51q0 114 63 195q68 88 179 88q66 0 174 -52t172 -52q40 0 50 33q4 12 6 71h231z" />
    <glyph glyph-name="Odieresis" unicode="&#xd6;" horiz-adv-x="1559" 
d="M1119 1359q140 0 240 -100t100 -240v-680q0 -140 -100 -239q-100 -100 -240 -100h-679q-140 0 -240 100q-100 99 -100 239v680q0 140 100 240t240 100h679zM444 1052q-38 0 -38 -37v-672q0 -37 38 -37h671q38 0 38 37v672q0 37 -38 37h-671zM689 1732q49 -50 49 -120
t-49 -120q-50 -50 -120 -50t-120 50t-50 120t50 120t120 50t120 -50zM1112 1732q49 -49 49 -119t-49 -120q-50 -50 -120 -50t-120 50t-50 120t50 119q50 50 120 50t120 -50z" />
    <glyph glyph-name="multiply" unicode="&#xd7;" horiz-adv-x="1256" 
d="M361 188l-212 213l266 266l-267 268l213 212l267 -267l267 267l213 -212l-267 -268l266 -266l-212 -213l-267 266z" />
    <glyph glyph-name="Oslash" unicode="&#xd8;" horiz-adv-x="1559" 
d="M942 1052h-498q-38 0 -38 -37v-672q0 -23 15 -32zM1142 1044l-519 -738h492q38 0 38 37v672q0 20 -11 29zM245 62q-23 16 -45 38q-100 99 -100 239v680q0 140 100 240t240 100h679q19 0 37 -2l72 102h206l-116 -165q21 -15 41 -35q100 -100 100 -240v-680
q0 -140 -100 -239q-100 -100 -240 -100h-679q-16 0 -31 1l-83 -117h-206z" />
    <glyph glyph-name="Ugrave" unicode="&#xd9;" horiz-adv-x="1444" 
d="M1344 0h-301v60q-87 -60 -192 -60h-411q-140 0 -240 100q-100 99 -100 239v1020h306v-1016q0 -15 11 -26t27 -11h557q15 0 26 11t11 26v1016h306v-1359zM617 1433l-300 383h426l182 -383h-308z" />
    <glyph glyph-name="Uacute" unicode="&#xda;" horiz-adv-x="1444" 
d="M1344 0h-301v60q-87 -60 -192 -60h-411q-140 0 -240 100q-100 99 -100 239v1020h306v-1016q0 -15 11 -26t27 -11h557q15 0 26 11t11 26v1016h306v-1359zM519 1433l182 383h426l-300 -383h-308z" />
    <glyph glyph-name="Ucircumflex" unicode="&#xdb;" horiz-adv-x="1444" 
d="M1344 0h-301v60q-87 -60 -192 -60h-411q-140 0 -240 100q-100 99 -100 239v1020h306v-1016q0 -15 11 -26t27 -11h557q15 0 26 11t11 26v1016h306v-1359zM256 1431l278 385h377l278 -385h-302l-164 225l-165 -225h-302z" />
    <glyph glyph-name="Udieresis" unicode="&#xdc;" horiz-adv-x="1444" 
d="M1344 0h-301v60q-87 -60 -192 -60h-411q-140 0 -240 100q-100 99 -100 239v1020h306v-1016q0 -15 11 -26t27 -11h557q15 0 26 11t11 26v1016h306v-1359zM631 1732q49 -50 49 -120t-49 -120q-50 -50 -120 -50t-120 50t-50 120t50 120t120 50t120 -50zM1054 1732
q49 -49 49 -119t-49 -120q-50 -50 -120 -50t-120 50t-50 120t50 119q50 50 120 50t120 -50z" />
    <glyph glyph-name="Yacute" unicode="&#xdd;" horiz-adv-x="1459" 
d="M580 522h-140q-140 0 -240 100q-100 99 -100 239v497h306v-493q0 -37 38 -37h571q38 0 38 37v493h306v-497q0 -140 -100 -239q-100 -100 -240 -100h-139v-522h-300v522zM527 1433l182 383h426l-300 -383h-308z" />
    <glyph glyph-name="Thorn" unicode="&#xde;" horiz-adv-x="1504" 
d="M401 1088q87 61 192 61h476q140 0 240 -102q100 -101 100 -243v-260q0 -142 -100 -243t-240 -101h-438q-123 0 -230 78v-279h-301v1360h301v-271zM401 509h587q47 0 81 34t34 81v99q0 47 -34 81t-81 34h-587v-329z" />
    <glyph glyph-name="germandbls" unicode="&#xdf;" horiz-adv-x="1399" 
d="M481 1048q-33 0 -57 -24q-23 -24 -23 -68v-956h-301v1025q0 334 373 334h378q118 0 205 -76q80 -68 116 -182q25 -77 25 -155q0 -34 -5 -69q-18 -118 -87 -197q132 -36 200 -148q50 -82 50 -175q0 -27 -4 -54q-20 -129 -122 -211q-115 -92 -301 -92h-345v291h293
q87 0 137 43q43 36 43 86v7q-2 56 -52 94q-56 42 -150 42h-145v233h87q44 0 69 39q24 36 24 87t-24 87q-25 39 -69 39h-315z" />
    <glyph glyph-name="agrave" unicode="&#xe0;" 
d="M334 0q-97 0 -165 69q-69 68 -69 165v224q7 88 95 95h540v150q0 17 -17 17h-280q-17 0 -17 -17v-48h-301v47q0 97 69 165q68 69 165 69h448q97 0 165 -69q69 -68 69 -165v-702h-301v86q-58 -86 -163 -86h-238zM735 387h-297q-37 0 -37 -37v-97q0 -27 27 -27h280
q27 0 27 27v134zM463 1010l-300 383h426l182 -383h-308z" />
    <glyph glyph-name="aacute" unicode="&#xe1;" 
d="M334 0q-97 0 -165 69q-69 68 -69 165v224q7 88 95 95h540v150q0 17 -17 17h-280q-17 0 -17 -17v-48h-301v47q0 97 69 165q68 69 165 69h448q97 0 165 -69q69 -68 69 -165v-702h-301v86q-58 -86 -163 -86h-238zM735 387h-297q-37 0 -37 -37v-97q0 -27 27 -27h280
q27 0 27 27v134zM365 1010l182 383h426l-300 -383h-308z" />
    <glyph glyph-name="acircumflex" unicode="&#xe2;" 
d="M334 0q-97 0 -165 69q-69 68 -69 165v224q7 88 95 95h540v150q0 17 -17 17h-280q-17 0 -17 -17v-48h-301v47q0 97 69 165q68 69 165 69h448q97 0 165 -69q69 -68 69 -165v-702h-301v86q-58 -86 -163 -86h-238zM735 387h-297q-37 0 -37 -37v-97q0 -27 27 -27h280
q27 0 27 27v134zM102 1008l278 385h377l278 -385h-302l-164 225l-165 -225h-302z" />
    <glyph glyph-name="atilde" unicode="&#xe3;" 
d="M334 0q-97 0 -165 69q-69 68 -69 165v224q7 88 95 95h540v150q0 17 -17 17h-280q-17 0 -17 -17v-48h-301v47q0 97 69 165q68 69 165 69h448q97 0 165 -69q69 -68 69 -165v-702h-301v86q-58 -86 -163 -86h-238zM735 387h-297q-37 0 -37 -37v-97q0 -27 27 -27h280
q27 0 27 27v134zM1005 1349q1 -25 1 -48q0 -117 -26 -180q-45 -110 -177 -110q-82 0 -202 52t-166 52q-73 0 -75 -100h-229q-1 29 -1 51q0 114 63 195q68 88 179 88q66 0 174 -52t172 -52q40 0 50 33q4 12 6 71h231z" />
    <glyph glyph-name="adieresis" unicode="&#xe4;" 
d="M334 0q-97 0 -165 69q-69 68 -69 165v224q7 88 95 95h540v150q0 17 -17 17h-280q-17 0 -17 -17v-48h-301v47q0 97 69 165q68 69 165 69h448q97 0 165 -69q69 -68 69 -165v-702h-301v86q-58 -86 -163 -86h-238zM735 387h-297q-37 0 -37 -37v-97q0 -27 27 -27h280
q27 0 27 27v134zM477 1309q49 -50 49 -120t-49 -120q-50 -50 -120 -50t-120 50t-50 120t50 120t120 50t120 -50zM900 1309q49 -49 49 -119t-49 -120q-50 -50 -120 -50t-120 50t-50 120t50 119q50 50 120 50t120 -50z" />
    <glyph glyph-name="aring" unicode="&#xe5;" 
d="M334 0q-97 0 -165 69q-69 68 -69 165v224q7 88 95 95h540v150q0 17 -17 17h-280q-17 0 -17 -17v-48h-301v47q0 97 69 165q68 69 165 69h448q97 0 165 -69q69 -68 69 -165v-702h-301v86q-58 -86 -163 -86h-238zM735 387h-297q-37 0 -37 -37v-97q0 -27 27 -27h280
q27 0 27 27v134zM766 1356q82 -77 82 -187t-82 -187q-82 -78 -198 -78t-198 78q-82 77 -82 187t82 187q82 78 198 78t198 -78zM506 1228q-26 -25 -26 -59t26 -59q26 -24 62 -24t62 24q26 25 26 59t-26 59q-26 24 -62 24t-62 -24z" />
    <glyph glyph-name="ae" unicode="&#xe6;" horiz-adv-x="1744" 
d="M735 0v86q-58 -86 -163 -86h-238q-97 0 -165 69q-69 68 -69 165v224q7 88 95 95h540v150q0 17 -17 17h-280q-17 0 -17 -17v-48h-301v47q0 97 69 165q68 69 165 69h448q45 0 83 -15q39 15 84 15h468q97 0 165 -69q69 -68 69 -165v-254q0 -26 -19 -46q-19 -19 -46 -19h-570
v-150q0 -17 17 -17h300q17 0 17 17v68h301v-67q0 -97 -69 -165q-68 -69 -165 -69h-702zM1036 549h334v144q0 17 -17 17h-300q-17 0 -17 -17v-144zM735 387h-297q-37 0 -37 -37v-97q0 -27 27 -27h280q27 0 27 27v134z" />
    <glyph glyph-name="ccedilla" unicode="&#xe7;" 
d="M418 655q-17 0 -17 -17v-341q0 -16 17 -16h301q16 0 16 16v46h301v-109q0 -97 -69 -166q-68 -68 -165 -68h-468q-97 0 -165 68q-69 69 -69 166v468q0 96 69 165q68 69 165 69h468q97 0 165 -69q69 -69 69 -165v-110h-301v46q0 17 -16 17h-301zM507 0h187l-36 -118
q69 -8 107 -46q42 -42 42 -116q0 -78 -53 -131q-46 -47 -128 -71q-86 -26 -175 -26q-60 0 -122 12l12 149q65 -4 104 -4q28 0 43 2q95 12 95 80q0 49 -49 65q-25 8 -85 9z" />
    <glyph glyph-name="egrave" unicode="&#xe8;" 
d="M418 710q-17 0 -17 -17v-144h334v144q0 17 -17 17h-300zM1036 448q0 -26 -19 -46q-19 -19 -46 -19h-570v-150q0 -17 17 -17h300q17 0 17 17v68h301v-67q0 -97 -69 -165q-68 -69 -165 -69h-468q-97 0 -165 69q-69 68 -69 165v468q0 97 69 165q68 69 165 69h468
q97 0 165 -69q69 -68 69 -165v-254zM463 1010l-300 383h426l182 -383h-308z" />
    <glyph glyph-name="eacute" unicode="&#xe9;" 
d="M418 710q-17 0 -17 -17v-144h334v144q0 17 -17 17h-300zM1036 448q0 -26 -19 -46q-19 -19 -46 -19h-570v-150q0 -17 17 -17h300q17 0 17 17v68h301v-67q0 -97 -69 -165q-68 -69 -165 -69h-468q-97 0 -165 69q-69 68 -69 165v468q0 97 69 165q68 69 165 69h468
q97 0 165 -69q69 -68 69 -165v-254zM365 1010l182 383h426l-300 -383h-308z" />
    <glyph glyph-name="ecircumflex" unicode="&#xea;" 
d="M418 710q-17 0 -17 -17v-144h334v144q0 17 -17 17h-300zM1036 448q0 -26 -19 -46q-19 -19 -46 -19h-570v-150q0 -17 17 -17h300q17 0 17 17v68h301v-67q0 -97 -69 -165q-68 -69 -165 -69h-468q-97 0 -165 69q-69 68 -69 165v468q0 97 69 165q68 69 165 69h468
q97 0 165 -69q69 -68 69 -165v-254zM102 1008l278 385h377l278 -385h-302l-164 225l-165 -225h-302z" />
    <glyph glyph-name="edieresis" unicode="&#xeb;" 
d="M418 710q-17 0 -17 -17v-144h334v144q0 17 -17 17h-300zM1036 448q0 -26 -19 -46q-19 -19 -46 -19h-570v-150q0 -17 17 -17h300q17 0 17 17v68h301v-67q0 -97 -69 -165q-68 -69 -165 -69h-468q-97 0 -165 69q-69 68 -69 165v468q0 97 69 165q68 69 165 69h468
q97 0 165 -69q69 -68 69 -165v-254zM477 1309q49 -50 49 -120t-49 -120q-50 -50 -120 -50t-120 50t-50 120t50 120t120 50t120 -50zM900 1309q49 -49 49 -119t-49 -120q-50 -50 -120 -50t-120 50t-50 120t50 119q50 50 120 50t120 -50z" />
    <glyph glyph-name="igrave" unicode="&#xec;" horiz-adv-x="501" 
d="M656 0h-301v936h301v-936zM400 1010l-300 383h426l182 -383h-308z" />
    <glyph glyph-name="iacute" unicode="&#xed;" horiz-adv-x="501" 
d="M453 0h-301v936h301v-936zM100 1010l182 383h426l-300 -383h-308z" />
    <glyph glyph-name="icircumflex" unicode="&#xee;" horiz-adv-x="501" 
d="M717 0h-301v936h301v-936zM100 1008l278 385h377l278 -385h-302l-164 225l-165 -225h-302z" />
    <glyph glyph-name="idieresis" unicode="&#xef;" horiz-adv-x="501" 
d="M681 0h-301v936h301v-936zM440 1309q49 -50 49 -120t-49 -120q-50 -50 -120 -50t-120 50t-50 120t50 120t120 50t120 -50zM863 1309q49 -49 49 -119t-49 -120q-50 -50 -120 -50t-120 50t-50 120t50 119q50 50 120 50t120 -50z" />
    <glyph glyph-name="eth" unicode="&#xf0;" 
d="M418 577q-17 0 -17 -17v-242q0 -17 17 -17h300q17 0 17 17v242q0 17 -17 17h-300zM462 1045q-59 8 -137 8v306q177 0 307 -33l64 105l105 -65l-50 -82q69 -33 118 -79q167 -158 167 -538v-433q0 -96 -69 -165t-165 -69h-468q-96 0 -165 69t-69 165v390q0 96 69 165
q68 69 165 69h360q-33 113 -107 153l-58 -95l-105 66z" />
    <glyph glyph-name="ntilde" unicode="&#xf1;" 
d="M401 0h-301v936h301v-63q67 63 159 63h238q97 0 165 -69q69 -68 69 -165v-702h-301v639q0 16 -16 16h-301q-13 0 -13 -13v-642zM1003 1349q1 -25 1 -48q0 -117 -26 -180q-45 -110 -177 -110q-82 0 -202 52t-166 52q-73 0 -75 -100h-229q-1 29 -1 51q0 114 63 195
q68 88 179 88q66 0 174 -52t172 -52q40 0 50 33q4 12 6 71h231z" />
    <glyph glyph-name="ograve" unicode="&#xf2;" 
d="M418 655q-17 0 -17 -17v-341q0 -16 17 -16h301q16 0 16 16v341q0 17 -16 17h-301zM802 936q97 0 165 -69q69 -69 69 -165v-468q0 -97 -69 -166q-68 -68 -165 -68h-468q-97 0 -165 68q-69 69 -69 166v468q0 96 69 165q68 69 165 69h468zM463 1010l-300 383h426l182 -383
h-308z" />
    <glyph glyph-name="oacute" unicode="&#xf3;" 
d="M418 655q-17 0 -17 -17v-341q0 -16 17 -16h301q16 0 16 16v341q0 17 -16 17h-301zM802 936q97 0 165 -69q69 -69 69 -165v-468q0 -97 -69 -166q-68 -68 -165 -68h-468q-97 0 -165 68q-69 69 -69 166v468q0 96 69 165q68 69 165 69h468zM365 1010l182 383h426l-300 -383
h-308z" />
    <glyph glyph-name="ocircumflex" unicode="&#xf4;" 
d="M418 655q-17 0 -17 -17v-341q0 -16 17 -16h301q16 0 16 16v341q0 17 -16 17h-301zM802 936q97 0 165 -69q69 -69 69 -165v-468q0 -97 -69 -166q-68 -68 -165 -68h-468q-97 0 -165 68q-69 69 -69 166v468q0 96 69 165q68 69 165 69h468zM102 1008l278 385h377l278 -385
h-302l-164 225l-165 -225h-302z" />
    <glyph glyph-name="otilde" unicode="&#xf5;" 
d="M418 655q-17 0 -17 -17v-341q0 -16 17 -16h301q16 0 16 16v341q0 17 -16 17h-301zM802 936q97 0 165 -69q69 -69 69 -165v-468q0 -97 -69 -166q-68 -68 -165 -68h-468q-97 0 -165 68q-69 69 -69 166v468q0 96 69 165q68 69 165 69h468zM1005 1349q1 -25 1 -48
q0 -117 -26 -180q-45 -110 -177 -110q-82 0 -202 52t-166 52q-73 0 -75 -100h-229q-1 29 -1 51q0 114 63 195q68 88 179 88q66 0 174 -52t172 -52q40 0 50 33q4 12 6 71h231z" />
    <glyph glyph-name="odieresis" unicode="&#xf6;" 
d="M418 655q-17 0 -17 -17v-341q0 -16 17 -16h301q16 0 16 16v341q0 17 -16 17h-301zM802 936q97 0 165 -69q69 -69 69 -165v-468q0 -97 -69 -166q-68 -68 -165 -68h-468q-97 0 -165 68q-69 69 -69 166v468q0 96 69 165q68 69 165 69h468zM477 1309q49 -50 49 -120t-49 -120
q-50 -50 -120 -50t-120 50t-50 120t50 120t120 50t120 -50zM900 1309q49 -49 49 -119t-49 -120q-50 -50 -120 -50t-120 50t-50 120t50 119q50 50 120 50t120 -50z" />
    <glyph glyph-name="divide" unicode="&#xf7;" horiz-adv-x="1026" 
d="M100 333v301h826v-301h-826zM645 190q55 -54 55 -132q0 -77 -55 -132q-54 -54 -132 -54q-77 0 -132 54q-54 55 -54 132q0 78 54 132q55 55 132 55q78 0 132 -55zM645 1041q55 -54 55 -132q0 -77 -55 -132q-54 -54 -132 -54q-77 0 -132 54q-54 55 -54 132q0 78 54 132
q55 55 132 55q78 0 132 -55z" />
    <glyph glyph-name="oslash" unicode="&#xf8;" 
d="M581 635h-163q-17 0 -17 -17v-239zM532 301h187q16 0 16 16v273zM177 60l-8 8q-69 69 -69 166v468q0 96 69 165q68 69 165 69h458l77 109h186l-111 -158q12 -9 23 -20q69 -69 69 -165v-468q0 -97 -69 -166q-68 -68 -165 -68h-481l-75 -106h-186z" />
    <glyph glyph-name="ugrave" unicode="&#xf9;" horiz-adv-x="1132" 
d="M731 936h301v-936h-301v63q-67 -63 -159 -63h-238q-97 0 -165 69q-69 69 -69 165v702h301v-638q0 -17 17 -17h300q13 0 13 13v642zM461 1010l-300 383h426l182 -383h-308z" />
    <glyph glyph-name="uacute" unicode="&#xfa;" horiz-adv-x="1132" 
d="M731 936h301v-936h-301v63q-67 -63 -159 -63h-238q-97 0 -165 69q-69 69 -69 165v702h301v-638q0 -17 17 -17h300q13 0 13 13v642zM363 1010l182 383h426l-300 -383h-308z" />
    <glyph glyph-name="ucircumflex" unicode="&#xfb;" horiz-adv-x="1132" 
d="M731 936h301v-936h-301v63q-67 -63 -159 -63h-238q-97 0 -165 69q-69 69 -69 165v702h301v-638q0 -17 17 -17h300q13 0 13 13v642zM100 1008l278 385h377l278 -385h-302l-164 225l-165 -225h-302z" />
    <glyph glyph-name="udieresis" unicode="&#xfc;" horiz-adv-x="1132" 
d="M731 936h301v-936h-301v63q-67 -63 -159 -63h-238q-97 0 -165 69q-69 69 -69 165v702h301v-638q0 -17 17 -17h300q13 0 13 13v642zM475 1309q49 -50 49 -120t-49 -120q-50 -50 -120 -50t-120 50t-50 120t50 120t120 50t120 -50zM898 1309q49 -49 49 -119t-49 -120
q-50 -50 -120 -50t-120 50t-50 120t50 119q50 50 120 50t120 -50z" />
    <glyph glyph-name="yacute" unicode="&#xfd;" horiz-adv-x="1133" 
d="M733 936h300v-1121q0 -96 -69 -164q-68 -69 -164 -69h-467q-96 0 -164 68q-69 69 -69 165v109h300v-66q0 -16 17 -16h299q17 0 17 16v263q-67 -63 -158 -63h-238q-96 0 -165 68q-68 69 -68 165v645h300v-572q0 -16 16 -16h300q11 0 13 13v575zM364 1010l182 383h426
l-300 -383h-308z" />
    <glyph glyph-name="thorn" unicode="&#xfe;" 
d="M719 301q16 0 16 16v301q0 17 -16 17h-301q-17 0 -17 -17v-301q0 -16 17 -16h301zM401 869q68 67 163 67h238q97 0 165 -69q69 -69 69 -165v-468q0 -97 -69 -166q-68 -68 -165 -68h-238q-95 0 -163 66v-489h-301v1782h301v-490z" />
    <glyph glyph-name="ydieresis" unicode="&#xff;" horiz-adv-x="1133" 
d="M733 936h300v-1121q0 -96 -69 -164q-68 -69 -164 -69h-467q-96 0 -164 68q-69 69 -69 165v109h300v-66q0 -16 17 -16h299q17 0 17 16v263q-67 -63 -158 -63h-238q-96 0 -165 68q-68 69 -68 165v645h300v-572q0 -16 16 -16h300q11 0 13 13v575zM476 1309q49 -50 49 -120
t-49 -120q-50 -50 -120 -50t-120 50t-50 120t50 120t120 50t120 -50zM899 1309q49 -49 49 -119t-49 -120q-50 -50 -120 -50t-120 50t-50 120t50 119q50 50 120 50t120 -50z" />
    <glyph glyph-name="Amacron" unicode="&#x100;" horiz-adv-x="1559" 
d="M1062 709l-69 306q-9 37 -38 37h-352q-29 0 -37 -37l-69 -306h565zM429 408l-93 -408h-306l230 1019q33 148 115 238q92 102 224 102h360q132 0 225 -102q82 -90 115 -238l230 -1019h-307l-92 408h-701zM1140 1677v-219h-720v219h720z" />
    <glyph glyph-name="amacron" unicode="&#x101;" 
d="M334 0q-97 0 -165 69q-69 68 -69 165v224q7 88 95 95h540v150q0 17 -17 17h-280q-17 0 -17 -17v-48h-301v47q0 97 69 165q68 69 165 69h448q97 0 165 -69q69 -68 69 -165v-702h-301v86q-58 -86 -163 -86h-238zM735 387h-297q-37 0 -37 -37v-97q0 -27 27 -27h280
q27 0 27 27v134zM928 1254v-219h-720v219h720z" />
    <glyph glyph-name="Abreve" unicode="&#x102;" horiz-adv-x="1559" 
d="M1062 709l-69 306q-9 37 -38 37h-352q-29 0 -37 -37l-69 -306h565zM429 408l-93 -408h-306l230 1019q33 148 115 238q92 102 224 102h360q132 0 225 -102q82 -90 115 -238l230 -1019h-307l-92 408h-701zM1194 1780q-11 -157 -123 -249q-111 -91 -283 -91q-176 0 -289 88
q-116 91 -134 252h229q22 -59 77 -94q52 -31 116 -32h4q61 0 110 30q54 34 73 96h220z" />
    <glyph glyph-name="abreve" unicode="&#x103;" 
d="M334 0q-97 0 -165 69q-69 68 -69 165v224q7 88 95 95h540v150q0 17 -17 17h-280q-17 0 -17 -17v-48h-301v47q0 97 69 165q68 69 165 69h448q97 0 165 -69q69 -68 69 -165v-702h-301v86q-58 -86 -163 -86h-238zM735 387h-297q-37 0 -37 -37v-97q0 -27 27 -27h280
q27 0 27 27v134zM983 1357q-11 -157 -123 -249q-111 -91 -283 -91q-176 0 -289 88q-116 91 -134 252h229q22 -59 77 -94q52 -31 116 -32h4q61 0 110 30q54 34 73 96h220z" />
    <glyph glyph-name="Aogonek" unicode="&#x104;" horiz-adv-x="1559" 
d="M1062 709l-69 306q-9 37 -38 37h-352q-29 0 -37 -37l-69 -306h565zM429 408l-93 -408h-306l230 1019q33 148 115 238q92 102 224 102h360q132 0 225 -102q82 -90 115 -238l230 -1019h-307l-92 408h-701zM1529 0q-176 -142 -176 -212v-4q0 -87 131 -87q11 0 23 1
q31 1 112 36v-155q-64 -28 -161 -31q-17 -1 -33 -1q-132 0 -224 37q-67 28 -106 77q-43 54 -43 123q0 90 59 143q13 12 28 21l84 52h306z" />
    <glyph glyph-name="aogonek" unicode="&#x105;" 
d="M334 0q-97 0 -165 69q-69 68 -69 165v224q7 88 95 95h540v150q0 17 -17 17h-280q-17 0 -17 -17v-48h-301v47q0 97 69 165q68 69 165 69h448q97 0 165 -69q69 -68 69 -165v-702h-301v86q-58 -86 -163 -86h-238zM735 387h-297q-37 0 -37 -37v-97q0 -27 27 -27h280
q27 0 27 27v134zM1036 0q-176 -142 -176 -212v-4q0 -87 131 -87q11 0 23 1q31 1 112 36v-155q-64 -28 -161 -31q-17 -1 -33 -1q-132 0 -224 37q-67 28 -106 77q-43 54 -43 123q0 90 59 143q13 12 28 21l84 52h306z" />
    <glyph glyph-name="Cacute" unicode="&#x106;" horiz-adv-x="1559" 
d="M444 1052q-38 0 -38 -37v-672q0 -37 38 -37h671q38 0 38 37v79h306v-83q0 -140 -100 -239q-100 -100 -240 -100h-679q-140 0 -240 100q-100 99 -100 239v680q0 140 100 240t240 100h679q140 0 240 -100t100 -240v-83h-306v79q0 37 -38 37h-671zM577 1433l182 383h426
l-300 -383h-308z" />
    <glyph glyph-name="cacute" unicode="&#x107;" 
d="M418 655q-17 0 -17 -17v-341q0 -16 17 -16h301q16 0 16 16v46h301v-109q0 -97 -69 -166q-68 -68 -165 -68h-468q-97 0 -165 68q-69 69 -69 166v468q0 96 69 165q68 69 165 69h468q97 0 165 -69q69 -69 69 -165v-110h-301v46q0 17 -16 17h-301zM365 1010l182 383h426
l-300 -383h-308z" />
    <glyph glyph-name="Ccircumflex" unicode="&#x108;" horiz-adv-x="1559" 
d="M444 1052q-38 0 -38 -37v-672q0 -37 38 -37h671q38 0 38 37v79h306v-83q0 -140 -100 -239q-100 -100 -240 -100h-679q-140 0 -240 100q-100 99 -100 239v680q0 140 100 240t240 100h679q140 0 240 -100t100 -240v-83h-306v79q0 37 -38 37h-671zM313 1431l278 385h377
l278 -385h-302l-164 225l-165 -225h-302z" />
    <glyph glyph-name="ccircumflex" unicode="&#x109;" 
d="M418 655q-17 0 -17 -17v-341q0 -16 17 -16h301q16 0 16 16v46h301v-109q0 -97 -69 -166q-68 -68 -165 -68h-468q-97 0 -165 68q-69 69 -69 166v468q0 96 69 165q68 69 165 69h468q97 0 165 -69q69 -69 69 -165v-110h-301v46q0 17 -16 17h-301zM102 1008l278 385h377
l278 -385h-302l-164 225l-165 -225h-302z" />
    <glyph glyph-name="Cdotaccent" unicode="&#x10a;" horiz-adv-x="1559" 
d="M444 1052q-38 0 -38 -37v-672q0 -37 38 -37h671q38 0 38 37v79h306v-83q0 -140 -100 -239q-100 -100 -240 -100h-679q-140 0 -240 100q-100 99 -100 239v680q0 140 100 240t240 100h679q140 0 240 -100t100 -240v-83h-306v79q0 37 -38 37h-671zM900 1806q49 -50 49 -120
t-49 -120q-50 -50 -120 -50t-120 50t-50 120t50 120t120 50t120 -50z" />
    <glyph glyph-name="cdotaccent" unicode="&#x10b;" 
d="M418 655q-17 0 -17 -17v-341q0 -16 17 -16h301q16 0 16 16v46h301v-109q0 -97 -69 -166q-68 -68 -165 -68h-468q-97 0 -165 68q-69 69 -69 166v468q0 96 69 165q68 69 165 69h468q97 0 165 -69q69 -69 69 -165v-110h-301v46q0 17 -16 17h-301zM689 1383q49 -50 49 -120
t-49 -120q-50 -50 -120 -50t-120 50t-50 120t50 120t120 50t120 -50z" />
    <glyph glyph-name="Ccaron" unicode="&#x10c;" horiz-adv-x="1559" 
d="M444 1052q-38 0 -38 -37v-672q0 -37 38 -37h671q38 0 38 37v79h306v-83q0 -140 -100 -239q-100 -100 -240 -100h-679q-140 0 -240 100q-100 99 -100 239v680q0 140 100 240t240 100h679q140 0 240 -100t100 -240v-83h-306v79q0 37 -38 37h-671zM615 1816l165 -226
l164 226h302l-277 -385h-378l-278 385h302z" />
    <glyph glyph-name="ccaron" unicode="&#x10d;" 
d="M418 655q-17 0 -17 -17v-341q0 -16 17 -16h301q16 0 16 16v46h301v-109q0 -97 -69 -166q-68 -68 -165 -68h-468q-97 0 -165 68q-69 69 -69 166v468q0 96 69 165q68 69 165 69h468q97 0 165 -69q69 -69 69 -165v-110h-301v46q0 17 -16 17h-301zM404 1393l165 -226l164 226
h302l-277 -385h-378l-278 385h302z" />
    <glyph glyph-name="Dcaron" unicode="&#x10e;" horiz-adv-x="1559" 
d="M100 1359h301v-60q87 60 192 60h526q140 0 240 -100t100 -240v-680q0 -140 -100 -239q-100 -100 -240 -100h-526q-105 0 -192 60v-60h-301v1359zM401 1052v-746h602q62 0 106 44t44 105v448q0 62 -44 106q-44 43 -106 43h-602zM615 1816l165 -226l164 226h302l-277 -385
h-378l-278 385h302z" />
    <glyph glyph-name="dcaron" unicode="&#x10f;" horiz-adv-x="1501" 
d="M418 635q-17 0 -17 -17v-301q0 -16 17 -16h301q16 0 16 16v301q0 17 -16 17h-301zM572 936q95 0 163 -67v490h301v-1359h-301v66q-68 -66 -163 -66h-238q-96 0 -165 68q-69 69 -69 166v468q0 96 69 165q68 69 165 69h238zM1268 1358q79 0 135 -57q56 -56 56 -135v-371
h-130q-79 0 -136 56q-56 56 -56 135v372h131z" />
    <glyph glyph-name="Dcroat" unicode="&#x110;" horiz-adv-x="1590" 
d="M432 549v-243h602q62 0 106 44t44 105v448q0 62 -44 106q-44 43 -106 43h-602v-242h315v-261h-315zM131 810v549h301v-60q87 60 192 60h526q140 0 240 -100t100 -240v-680q0 -140 -100 -239q-100 -100 -240 -100h-526q-105 0 -192 60v-60h-301v549h-130v261h130z" />
    <glyph glyph-name="dcroat" unicode="&#x111;" horiz-adv-x="1146" 
d="M418 635q-17 0 -17 -17v-301q0 -16 17 -16h301q16 0 16 16v301q0 17 -16 17h-301zM1036 1045v-1045h-301v66q-68 -66 -163 -66h-238q-96 0 -165 68q-69 69 -69 166v468q0 96 69 165q68 69 165 69h238q95 0 163 -67v176h-297v203h297v111h301v-111h100v-203h-100z" />
    <glyph glyph-name="Emacron" unicode="&#x112;" horiz-adv-x="1400" 
d="M405 825h798v-291h-798v-191q0 -37 38 -37h860v-306h-864q-140 0 -240 100q-100 99 -100 239v680q0 140 100 240t240 100h864v-307h-860q-38 0 -38 -37v-190zM1065 1677v-219h-720v219h720z" />
    <glyph glyph-name="emacron" unicode="&#x113;" 
d="M418 710q-17 0 -17 -17v-144h334v144q0 17 -17 17h-300zM1036 448q0 -26 -19 -46q-19 -19 -46 -19h-570v-150q0 -17 17 -17h300q17 0 17 17v68h301v-67q0 -97 -69 -165q-68 -69 -165 -69h-468q-97 0 -165 69q-69 68 -69 165v468q0 97 69 165q68 69 165 69h468
q97 0 165 -69q69 -68 69 -165v-254zM928 1254v-219h-720v219h720z" />
    <glyph glyph-name="Ebreve" unicode="&#x114;" horiz-adv-x="1400" 
d="M405 825h798v-291h-798v-191q0 -37 38 -37h860v-306h-864q-140 0 -240 100q-100 99 -100 239v680q0 140 100 240t240 100h864v-307h-860q-38 0 -38 -37v-190zM1120 1780q-11 -157 -123 -249q-111 -91 -283 -91q-176 0 -289 88q-116 91 -134 252h229q22 -59 77 -94
q52 -31 116 -32h4q61 0 110 30q54 34 73 96h220z" />
    <glyph glyph-name="ebreve" unicode="&#x115;" 
d="M418 710q-17 0 -17 -17v-144h334v144q0 17 -17 17h-300zM1036 448q0 -26 -19 -46q-19 -19 -46 -19h-570v-150q0 -17 17 -17h300q17 0 17 17v68h301v-67q0 -97 -69 -165q-68 -69 -165 -69h-468q-97 0 -165 69q-69 68 -69 165v468q0 97 69 165q68 69 165 69h468
q97 0 165 -69q69 -68 69 -165v-254zM983 1357q-11 -157 -123 -249q-111 -91 -283 -91q-176 0 -289 88q-116 91 -134 252h229q22 -59 77 -94q52 -31 116 -32h4q61 0 110 30q54 34 73 96h220z" />
    <glyph glyph-name="Edotaccent" unicode="&#x116;" horiz-adv-x="1400" 
d="M405 825h798v-291h-798v-191q0 -37 38 -37h860v-306h-864q-140 0 -240 100q-100 99 -100 239v680q0 140 100 240t240 100h864v-307h-860q-38 0 -38 -37v-190zM826 1806q49 -50 49 -120t-49 -120q-50 -50 -120 -50t-120 50t-50 120t50 120t120 50t120 -50z" />
    <glyph glyph-name="edotaccent" unicode="&#x117;" 
d="M418 710q-17 0 -17 -17v-144h334v144q0 17 -17 17h-300zM1036 448q0 -26 -19 -46q-19 -19 -46 -19h-570v-150q0 -17 17 -17h300q17 0 17 17v68h301v-67q0 -97 -69 -165q-68 -69 -165 -69h-468q-97 0 -165 69q-69 68 -69 165v468q0 97 69 165q68 69 165 69h468
q97 0 165 -69q69 -68 69 -165v-254zM689 1383q49 -50 49 -120t-49 -120q-50 -50 -120 -50t-120 50t-50 120t50 120t120 50t120 -50z" />
    <glyph glyph-name="Eogonek" unicode="&#x118;" horiz-adv-x="1400" 
d="M405 825h798v-291h-798v-191q0 -37 38 -37h860v-306h-864q-140 0 -240 100q-100 99 -100 239v680q0 140 100 240t240 100h864v-307h-860q-38 0 -38 -37v-190zM1309 0q-176 -142 -176 -212v-4q0 -87 131 -87q11 0 23 1q31 1 112 36v-155q-64 -28 -161 -31q-17 -1 -33 -1
q-132 0 -224 37q-67 28 -106 77q-43 54 -43 123q0 90 59 143q13 12 28 21l84 52h306z" />
    <glyph glyph-name="eogonek" unicode="&#x119;" 
d="M418 710q-17 0 -17 -17v-144h334v144q0 17 -17 17h-300zM1036 448q0 -26 -19 -46q-19 -19 -46 -19h-570v-150q0 -17 17 -17h300q17 0 17 17v68h301v-67q0 -97 -69 -165q-68 -69 -165 -69h-468q-97 0 -165 69q-69 68 -69 165v468q0 97 69 165q68 69 165 69h468
q97 0 165 -69q69 -68 69 -165v-254zM968 70q-176 -142 -176 -212v-4q0 -87 131 -87q11 0 23 1q31 1 112 36v-155q-64 -28 -161 -31q-17 -1 -33 -1q-132 0 -224 37q-67 28 -106 77q-43 54 -43 123q0 90 59 143q13 12 28 21l84 52h306z" />
    <glyph glyph-name="Ecaron" unicode="&#x11a;" horiz-adv-x="1400" 
d="M405 825h798v-291h-798v-191q0 -37 38 -37h860v-306h-864q-140 0 -240 100q-100 99 -100 239v680q0 140 100 240t240 100h864v-307h-860q-38 0 -38 -37v-190zM541 1816l165 -226l164 226h302l-277 -385h-378l-278 385h302z" />
    <glyph glyph-name="ecaron" unicode="&#x11b;" 
d="M418 710q-17 0 -17 -17v-144h334v144q0 17 -17 17h-300zM1036 448q0 -26 -19 -46q-19 -19 -46 -19h-570v-150q0 -17 17 -17h300q17 0 17 17v68h301v-67q0 -97 -69 -165q-68 -69 -165 -69h-468q-97 0 -165 69q-69 68 -69 165v468q0 97 69 165q68 69 165 69h468
q97 0 165 -69q69 -68 69 -165v-254zM404 1393l165 -226l164 226h302l-277 -385h-378l-278 385h302z" />
    <glyph glyph-name="Gcircumflex" unicode="&#x11c;" horiz-adv-x="1559" 
d="M665 533v233h794v-427q0 -140 -100 -239q-100 -100 -240 -100h-679q-140 0 -240 100q-100 99 -100 239v680q0 140 100 240t240 100h679q140 0 240 -100t100 -240v-83h-306v79q0 37 -38 37h-671q-38 0 -38 -37v-672q0 -37 38 -37h671q38 0 38 37v190h-488zM313 1431
l278 385h377l278 -385h-302l-164 225l-165 -225h-302z" />
    <glyph glyph-name="gcircumflex" unicode="&#x11d;" 
d="M1036 -189q0 -97 -69 -165q-68 -69 -165 -69h-468q-97 0 -165 69q-69 68 -69 165v109h301v-62q0 -16 17 -16h301q16 0 16 16v265q-68 -66 -163 -66h-238q-96 0 -165 68q-69 69 -69 166v411q0 96 69 165q68 69 165 69h238q95 0 163 -67v67h301v-1125zM418 655
q-17 0 -17 -17v-284q0 -16 17 -16h301q16 0 16 16v284q0 17 -16 17h-301zM102 1008l278 385h377l278 -385h-302l-164 225l-165 -225h-302z" />
    <glyph glyph-name="Gbreve" unicode="&#x11e;" horiz-adv-x="1559" 
d="M665 533v233h794v-427q0 -140 -100 -239q-100 -100 -240 -100h-679q-140 0 -240 100q-100 99 -100 239v680q0 140 100 240t240 100h679q140 0 240 -100t100 -240v-83h-306v79q0 37 -38 37h-671q-38 0 -38 -37v-672q0 -37 38 -37h671q38 0 38 37v190h-488zM1194 1780
q-11 -157 -123 -249q-111 -91 -283 -91q-176 0 -289 88q-116 91 -134 252h229q22 -59 77 -94q52 -31 116 -32h4q61 0 110 30q54 34 73 96h220z" />
    <glyph glyph-name="gbreve" unicode="&#x11f;" 
d="M1036 -189q0 -97 -69 -165q-68 -69 -165 -69h-468q-97 0 -165 69q-69 68 -69 165v109h301v-62q0 -16 17 -16h301q16 0 16 16v265q-68 -66 -163 -66h-238q-96 0 -165 68q-69 69 -69 166v411q0 96 69 165q68 69 165 69h238q95 0 163 -67v67h301v-1125zM418 655
q-17 0 -17 -17v-284q0 -16 17 -16h301q16 0 16 16v284q0 17 -16 17h-301zM983 1357q-11 -157 -123 -249q-111 -91 -283 -91q-176 0 -289 88q-116 91 -134 252h229q22 -59 77 -94q52 -31 116 -32h4q61 0 110 30q54 34 73 96h220z" />
    <glyph glyph-name="Gdotaccent" unicode="&#x120;" horiz-adv-x="1559" 
d="M665 533v233h794v-427q0 -140 -100 -239q-100 -100 -240 -100h-679q-140 0 -240 100q-100 99 -100 239v680q0 140 100 240t240 100h679q140 0 240 -100t100 -240v-83h-306v79q0 37 -38 37h-671q-38 0 -38 -37v-672q0 -37 38 -37h671q38 0 38 37v190h-488zM900 1806
q49 -50 49 -120t-49 -120q-50 -50 -120 -50t-120 50t-50 120t50 120t120 50t120 -50z" />
    <glyph glyph-name="gdotaccent" unicode="&#x121;" 
d="M1036 -189q0 -97 -69 -165q-68 -69 -165 -69h-468q-97 0 -165 69q-69 68 -69 165v109h301v-62q0 -16 17 -16h301q16 0 16 16v265q-68 -66 -163 -66h-238q-96 0 -165 68q-69 69 -69 166v411q0 96 69 165q68 69 165 69h238q95 0 163 -67v67h301v-1125zM418 655
q-17 0 -17 -17v-284q0 -16 17 -16h301q16 0 16 16v284q0 17 -16 17h-301zM689 1383q49 -50 49 -120t-49 -120q-50 -50 -120 -50t-120 50t-50 120t50 120t120 50t120 -50z" />
    <glyph glyph-name="uni0122" unicode="&#x122;" horiz-adv-x="1559" 
d="M665 533v233h794v-427q0 -140 -100 -239q-100 -100 -240 -100h-679q-140 0 -240 100q-100 99 -100 239v680q0 140 100 240t240 100h679q140 0 240 -100t100 -240v-83h-306v79q0 37 -38 37h-671q-38 0 -38 -37v-672q0 -37 38 -37h671q38 0 38 37v190h-488zM713 0h187
l-36 -118q69 -8 107 -46q42 -42 42 -116q0 -78 -53 -131q-46 -47 -128 -71q-86 -26 -175 -26q-60 0 -122 12l12 149q65 -4 104 -4q28 0 43 2q95 12 95 80q0 49 -49 65q-25 8 -85 9z" />
    <glyph glyph-name="uni0123" unicode="&#x123;" 
d="M1036 -189q0 -97 -69 -165q-68 -69 -165 -69h-468q-97 0 -165 69q-69 68 -69 165v109h301v-26q0 -16 17 -16h301q16 0 16 16v172q-68 -66 -163 -66h-238q-96 0 -165 68q-69 69 -69 166v468q0 96 69 165q68 69 165 69h238q95 0 163 -67v67h301v-1125zM418 635
q-17 0 -17 -17v-301q0 -16 17 -16h301q16 0 16 16v301q0 17 -16 17h-301zM779 1459v-272q0 -79 -56 -135q-57 -56 -136 -56h-130v271q0 79 56 135q56 57 135 57h131z" />
    <glyph glyph-name="Hcircumflex" unicode="&#x124;" horiz-adv-x="1450" 
d="M1049 1359h301v-1359h-301v563h-648v-563h-301v1359h301v-563h648v563zM259 1431l278 385h377l278 -385h-302l-164 225l-165 -225h-302z" />
    <glyph glyph-name="hcircumflex" unicode="&#x125;" 
d="M401 869q68 67 163 67h238q97 0 165 -69q69 -69 69 -165v-702h-301v638q0 17 -16 17h-301q-17 0 -17 -17v-638h-301v1359h301v-490zM102 1643l278 385h377l278 -385h-302l-164 225l-165 -225h-302z" />
    <glyph glyph-name="Hbar" unicode="&#x126;" horiz-adv-x="1450" 
d="M1049 1189v170h301v-170h137v-220h-137v-969h-301v563h-648v-563h-301v969h-133v220h133v170h301v-170h648zM401 969v-173h648v173h-648z" />
    <glyph glyph-name="hbar" unicode="&#x127;" 
d="M401 1029v-160q68 67 163 67h238q97 0 165 -69q69 -69 69 -165v-702h-301v618q0 17 -16 17h-301q-17 0 -17 -17v-618h-301v1029h-133v220h133v110h301v-110h510v-220h-510z" />
    <glyph glyph-name="Itilde" unicode="&#x128;" horiz-adv-x="501" 
d="M387 1359h301v-1359h-301v1359zM975 1772q1 -25 1 -48q0 -117 -26 -180q-45 -110 -177 -110q-82 0 -202 52t-166 52q-73 0 -75 -100h-229q-1 29 -1 51q0 114 63 195q68 88 179 88q66 0 174 -52t172 -52q40 0 50 33q4 12 6 71h231z" />
    <glyph glyph-name="itilde" unicode="&#x129;" horiz-adv-x="501" 
d="M688 0h-301v936h301v-936zM975 1349q1 -25 1 -48q0 -117 -26 -180q-45 -110 -177 -110q-82 0 -202 52t-166 52q-73 0 -75 -100h-229q-1 29 -1 51q0 114 63 195q68 88 179 88q66 0 174 -52t172 -52q40 0 50 33q4 12 6 71h231z" />
    <glyph glyph-name="Imacron" unicode="&#x12a;" horiz-adv-x="501" 
d="M309 1359h301v-1359h-301v1359zM820 1677v-219h-720v219h720z" />
    <glyph glyph-name="imacron" unicode="&#x12b;" horiz-adv-x="501" 
d="M610 0h-301v936h301v-936zM820 1254v-219h-720v219h720z" />
    <glyph glyph-name="Ibreve" unicode="&#x12c;" horiz-adv-x="501" 
d="M364 1359h301v-1359h-301v1359zM929 1780q-11 -157 -123 -249q-111 -91 -283 -91q-176 0 -289 88q-116 91 -134 252h229q22 -59 77 -94q52 -31 116 -32h4q61 0 110 30q54 34 73 96h220z" />
    <glyph glyph-name="ibreve" unicode="&#x12d;" horiz-adv-x="501" 
d="M665 0h-301v936h301v-936zM929 1357q-11 -157 -123 -249q-111 -91 -283 -91q-176 0 -289 88q-116 91 -134 252h229q22 -59 77 -94q52 -31 116 -32h4q61 0 110 30q54 34 73 96h220z" />
    <glyph glyph-name="Iogonek" unicode="&#x12e;" horiz-adv-x="501" 
d="M366 1359h301v-1359h-301v1359zM577 0q-176 -142 -176 -212v-4q0 -87 131 -87q11 0 23 1q31 1 112 36v-155q-64 -28 -161 -31q-17 -1 -33 -1q-132 0 -224 37q-67 28 -106 77q-43 54 -43 123q0 90 59 143q13 12 28 21l84 52h306z" />
    <glyph glyph-name="iogonek" unicode="&#x12f;" horiz-adv-x="501" 
d="M595 0h-301v936h301v-936zM576 1339q55 -54 55 -132q0 -77 -55 -132q-54 -54 -132 -54q-77 0 -132 54q-54 55 -54 132q0 78 54 132q55 55 132 55q78 0 132 -55zM541 0q-176 -142 -176 -212v-4q0 -87 131 -87q11 0 23 1q31 1 112 36v-155q-64 -28 -161 -31q-17 -1 -33 -1
q-132 0 -224 37q-67 28 -106 77q-43 54 -43 123q0 90 59 143q13 12 28 21l84 52h306z" />
    <glyph glyph-name="Idotaccent" unicode="&#x130;" horiz-adv-x="501" 
d="M119 1359h301v-1359h-301v1359zM390 1806q49 -50 49 -120t-49 -120q-50 -50 -120 -50t-120 50t-50 120t50 120t120 50t120 -50z" />
    <glyph glyph-name="dotlessi" unicode="&#x131;" horiz-adv-x="501" 
d="M401 0h-301v936h301v-936z" />
    <glyph glyph-name="IJ" unicode="&#x132;" horiz-adv-x="1502" 
d="M100 1359h301v-1359h-301v1359zM1402 1359v-1020q0 -140 -100 -239q-99 -100 -240 -100h-296q-69 0 -132 27q-61 25 -108 73q-47 47 -73 108q-27 63 -27 131v121h306v-117q0 -7 3 -14t8 -12t12 -8t15 -3h289q37 0 37 37v1016h306z" />
    <glyph glyph-name="ij" unicode="&#x133;" horiz-adv-x="1047" 
d="M437 0h-301v936h301v-936zM418 1339q55 -54 55 -132q0 -77 -55 -132q-54 -54 -132 -54q-77 0 -132 54q-54 55 -54 132q0 78 54 132q55 55 132 55q78 0 132 -55zM606 942h301v-1125q0 -97 -69 -165q-69 -69 -165 -69h-243v301h159q17 0 17 16v1042zM892 1339
q55 -54 55 -132q0 -77 -55 -132q-54 -54 -132 -54q-77 0 -132 54q-54 55 -54 132q0 78 54 132q55 55 132 55q78 0 132 -55z" />
    <glyph glyph-name="Jcircumflex" unicode="&#x134;" horiz-adv-x="1176" 
d="M1076 1359v-1020q0 -140 -100 -239q-99 -100 -240 -100h-296q-69 0 -132 27q-61 25 -108 73q-47 47 -73 108q-27 63 -27 131v121h306v-117q0 -7 3 -14t8 -12t12 -8t15 -3h289q37 0 37 37v1016h306zM474 1431l278 385h377l278 -385h-302l-164 225l-165 -225h-302z" />
    <glyph glyph-name="jcircumflex" unicode="&#x135;" horiz-adv-x="733" 
d="M-100 1008l278 385h377l278 -385h-302l-164 225l-165 -225h-302zM217 942h301v-1125q0 -97 -69 -165q-69 -69 -165 -69h-243v301h159q17 0 17 16v1042z" />
    <glyph glyph-name="uni0136" unicode="&#x136;" horiz-adv-x="1573" 
d="M401 859h584q55 0 97 32q41 32 51 76v392h301v-412q0 -156 -163 -226q202 -65 202 -251v-470h-301v450q-10 45 -52 77q-42 31 -96 31h-623v-558h-301v1359h301v-500zM756 -20h103q85 0 171 -51q48 -33 69 -92q5 -22 5 -30v-58q0 -74 -96 -146q-102 -54 -209 -54h-99
q-76 0 -233 27v153h2q148 -34 225 -34q119 0 119 77v8q0 37 -34 52q-22 9 -45 9q-31 0 -164 -31q-2 0 -2 2q0 14 33 146q96 22 155 22z" />
    <glyph glyph-name="uni0137" unicode="&#x137;" horiz-adv-x="1119" 
d="M401 630h263q16 0 16 16v281h301v-249q0 -116 -93 -187q131 -65 131 -210v-281h-300v312q0 17 -17 17h-301v-329h-301v1359h301v-729zM476 -30h103q85 0 171 -51q48 -33 69 -92q5 -22 5 -30v-58q0 -74 -96 -146q-102 -54 -209 -54h-99q-76 0 -233 27v153h2
q148 -34 225 -34q119 0 119 77v8q0 37 -34 52q-22 9 -45 9q-31 0 -164 -31q-2 0 -2 2q0 14 33 146q96 22 155 22z" />
    <glyph glyph-name="kgreenlandic" unicode="&#x138;" horiz-adv-x="1119" 
d="M401 630h263q16 0 16 16v291h301v-259q0 -116 -93 -187q131 -65 131 -210v-281h-300v312q0 17 -17 17h-301v-329h-301v939h301v-309z" />
    <glyph glyph-name="Lacute" unicode="&#x139;" horiz-adv-x="1297" 
d="M405 1359v-1017q0 -37 38 -37h750v-307h-754q-140 0 -240 100t-100 240v1021h306zM446 1433l182 383h426l-300 -383h-308z" />
    <glyph glyph-name="lacute" unicode="&#x13a;" horiz-adv-x="501" 
d="M554 0h-301v1359h301v-1359zM245 1437l182 383h426l-300 -383h-308z" />
    <glyph glyph-name="uni013B" unicode="&#x13b;" horiz-adv-x="1297" 
d="M401 271h796v-271h-1097v1359h301v-1088zM626 -40h103q85 0 171 -51q48 -33 69 -92q5 -22 5 -30v-58q0 -74 -96 -146q-102 -54 -209 -54h-99q-76 0 -233 27v153h2q148 -34 225 -34q119 0 119 77v8q0 37 -34 52q-22 9 -45 9q-31 0 -164 -31q-2 0 -2 2q0 14 33 146
q96 22 155 22z" />
    <glyph glyph-name="uni013C" unicode="&#x13c;" horiz-adv-x="501" 
d="M401 0h-301v1359h301v-1359zM253 -40h103q85 0 171 -51q48 -33 69 -92q5 -22 5 -30v-58q0 -74 -96 -146q-102 -54 -209 -54h-99q-76 0 -233 27v153h2q148 -34 225 -34q119 0 119 77v8q0 37 -34 52q-22 9 -45 9q-31 0 -164 -31q-2 0 -2 2q0 14 33 146q96 22 155 22z" />
    <glyph glyph-name="Lcaron" unicode="&#x13d;" horiz-adv-x="1297" 
d="M401 271h796v-271h-1097v1359h301v-1088zM1139 1358v-272q0 -79 -56 -135q-57 -56 -136 -56h-130v271q0 79 56 135q56 57 135 57h131z" />
    <glyph glyph-name="lcaron" unicode="&#x13e;" horiz-adv-x="908" 
d="M401 0h-301v1359h301v-1359zM854 1355v-272q0 -79 -56 -135q-57 -56 -136 -56h-130v271q0 79 56 135q56 57 135 57h131z" />
    <glyph glyph-name="Ldot" unicode="&#x13f;" horiz-adv-x="1297" 
d="M405 1359v-1017q0 -37 38 -37h750v-307h-754q-140 0 -240 100t-100 240v1021h306zM1055 966q47 -46 47 -112q0 -65 -47 -112q-46 -46 -112 -46q-65 0 -112 46q-46 47 -46 112q0 66 46 112q47 47 112 47q66 0 112 -47z" />
    <glyph glyph-name="ldot" unicode="&#x140;" horiz-adv-x="818" 
d="M401 0h-301v1359h301v-1359zM755 791q47 -46 47 -112q0 -65 -47 -112q-46 -46 -112 -46q-65 0 -112 46q-46 47 -46 112q0 66 46 112q47 47 112 47q66 0 112 -47z" />
    <glyph glyph-name="Lslash" unicode="&#x141;" horiz-adv-x="1297" 
d="M401 271h796v-271h-1097v1359h301v-1088zM-50 452v180l629 412v-180z" />
    <glyph glyph-name="lslash" unicode="&#x142;" horiz-adv-x="529" 
d="M411 0h-301v1359h301v-1359zM-50 452v180l629 412v-180z" />
    <glyph glyph-name="Nacute" unicode="&#x143;" horiz-adv-x="1559" 
d="M1081 301h61q17 0 17 17v1041h300v-1125q0 -96 -69 -165q-68 -69 -165 -69h-238q-153 0 -233 234l-249 807q-10 17 -27 17h-61q-17 0 -17 -17v-1040h-300v1123q0 97 69 166q68 68 165 68h238q153 0 233 -234l249 -806q6 -17 27 -17zM577 1433l182 383h426l-300 -383h-308
z" />
    <glyph glyph-name="nacute" unicode="&#x144;" 
d="M401 0h-301v936h301v-63q67 63 159 63h238q97 0 165 -69q69 -68 69 -165v-702h-301v639q0 16 -16 16h-301q-13 0 -13 -13v-642zM363 1010l182 383h426l-300 -383h-308z" />
    <glyph glyph-name="uni0145" unicode="&#x145;" horiz-adv-x="1559" 
d="M1081 301h61q17 0 17 17v1041h300v-1125q0 -96 -69 -165q-68 -69 -165 -69h-238q-153 0 -233 234l-249 807q-10 17 -27 17h-61q-17 0 -17 -17v-1040h-300v1123q0 97 69 166q68 68 165 68h238q153 0 233 -234l249 -806q6 -17 27 -17zM726 -40h103q85 0 171 -51
q48 -33 69 -92q5 -22 5 -30v-58q0 -74 -96 -146q-102 -54 -209 -54h-99q-76 0 -233 27v153h2q148 -34 225 -34q119 0 119 77v8q0 37 -34 52q-22 9 -45 9q-31 0 -164 -31q-2 0 -2 2q0 14 33 146q96 22 155 22z" />
    <glyph glyph-name="uni0146" unicode="&#x146;" 
d="M401 0h-301v936h301v-63q67 63 159 63h238q97 0 165 -69q69 -68 69 -165v-702h-301v619q0 16 -16 16h-301q-13 0 -13 -13v-622zM526 -40h103q85 0 171 -51q48 -33 69 -92q5 -22 5 -30v-58q0 -74 -96 -146q-102 -54 -209 -54h-99q-76 0 -233 27v153h2q148 -34 225 -34
q119 0 119 77v8q0 37 -34 52q-22 9 -45 9q-31 0 -164 -31q-2 0 -2 2q0 14 33 146q96 22 155 22z" />
    <glyph glyph-name="Ncaron" unicode="&#x147;" horiz-adv-x="1559" 
d="M1081 301h61q17 0 17 17v1041h300v-1125q0 -96 -69 -165q-68 -69 -165 -69h-238q-153 0 -233 234l-249 807q-10 17 -27 17h-61q-17 0 -17 -17v-1040h-300v1123q0 97 69 166q68 68 165 68h238q153 0 233 -234l249 -806q6 -17 27 -17zM615 1816l165 -226l164 226h302
l-277 -385h-378l-278 385h302z" />
    <glyph glyph-name="ncaron" unicode="&#x148;" 
d="M401 0h-301v936h301v-63q67 63 159 63h238q97 0 165 -69q69 -68 69 -165v-702h-301v639q0 16 -16 16h-301q-13 0 -13 -13v-642zM402 1393l165 -226l164 226h302l-277 -385h-378l-278 385h302z" />
    <glyph glyph-name="napostrophe" unicode="&#x149;" horiz-adv-x="1469" 
d="M731 0h-301v936h301v-63q67 63 159 63h238q97 0 165 -69q69 -68 69 -165v-702h-301v619q0 16 -16 16h-301q-13 0 -13 -13v-622zM139 1357q79 0 135 -57q56 -56 56 -135v-371h-130q-79 0 -136 56q-56 56 -56 135v372h131z" />
    <glyph glyph-name="Eng" unicode="&#x14a;" horiz-adv-x="1345" 
d="M616 237q110 -20 164 -20q89 0 134 49q36 39 49 100q6 35 19 211l-1 -1v343q0 82 -58 141q-59 59 -141 59h-219q-81 0 -139 -59q-59 -57 -60 -138v-926h-264v1368h246v-45q70 45 199 45h255q183 0 314 -131t131 -314v-368q-10 -278 -78 -392q-99 -167 -371 -179
q-20 -1 -40 -1q-99 0 -261 46z" />
    <glyph glyph-name="eng" unicode="&#x14b;" horiz-adv-x="1000" 
d="M640 -24l1 639q0 32 -23 56q-24 23 -56 23h-124q-33 0 -56 -23q-23 -22 -23 -55v-618h-259v938h462q149 0 244 -95q94 -94 94 -226v-594q-4 -183 -56 -267q-74 -124 -265 -132q-16 -1 -32 -1q-96 0 -228 62l130 177q82 -16 108 -16q51 0 68 26q15 21 15 106z" />
    <glyph glyph-name="Omacron" unicode="&#x14c;" horiz-adv-x="1559" 
d="M1119 1359q140 0 240 -100t100 -240v-680q0 -140 -100 -239q-100 -100 -240 -100h-679q-140 0 -240 100q-100 99 -100 239v680q0 140 100 240t240 100h679zM444 1052q-38 0 -38 -37v-672q0 -37 38 -37h671q38 0 38 37v672q0 37 -38 37h-671zM1140 1677v-219h-720v219h720
z" />
    <glyph glyph-name="omacron" unicode="&#x14d;" 
d="M418 655q-17 0 -17 -17v-341q0 -16 17 -16h301q16 0 16 16v341q0 17 -16 17h-301zM802 936q97 0 165 -69q69 -69 69 -165v-468q0 -97 -69 -166q-68 -68 -165 -68h-468q-97 0 -165 68q-69 69 -69 166v468q0 96 69 165q68 69 165 69h468zM928 1254v-219h-720v219h720z" />
    <glyph glyph-name="Obreve" unicode="&#x14e;" horiz-adv-x="1559" 
d="M1119 1359q140 0 240 -100t100 -240v-680q0 -140 -100 -239q-100 -100 -240 -100h-679q-140 0 -240 100q-100 99 -100 239v680q0 140 100 240t240 100h679zM444 1052q-38 0 -38 -37v-672q0 -37 38 -37h671q38 0 38 37v672q0 37 -38 37h-671zM1194 1780
q-11 -157 -123 -249q-111 -91 -283 -91q-176 0 -289 88q-116 91 -134 252h229q22 -59 77 -94q52 -31 116 -32h4q61 0 110 30q54 34 73 96h220z" />
    <glyph glyph-name="obreve" unicode="&#x14f;" 
d="M418 655q-17 0 -17 -17v-341q0 -16 17 -16h301q16 0 16 16v341q0 17 -16 17h-301zM802 936q97 0 165 -69q69 -69 69 -165v-468q0 -97 -69 -166q-68 -68 -165 -68h-468q-97 0 -165 68q-69 69 -69 166v468q0 96 69 165q68 69 165 69h468zM983 1357q-11 -157 -123 -249
q-111 -91 -283 -91q-176 0 -289 88q-116 91 -134 252h229q22 -59 77 -94q52 -31 116 -32h4q61 0 110 30q54 34 73 96h220z" />
    <glyph glyph-name="Ohungarumlaut" unicode="&#x150;" horiz-adv-x="1559" 
d="M1119 1359q140 0 240 -100t100 -240v-680q0 -140 -100 -239q-100 -100 -240 -100h-679q-140 0 -240 100q-100 99 -100 239v680q0 140 100 240t240 100h679zM444 1052q-38 0 -38 -37v-672q0 -37 38 -37h671q38 0 38 37v672q0 37 -38 37h-671zM222 1433l182 383h426
l-300 -383h-308zM730 1433l182 383h426l-300 -383h-308z" />
    <glyph glyph-name="ohungarumlaut" unicode="&#x151;" 
d="M508 655q-17 0 -17 -17v-341q0 -16 17 -16h301q16 0 16 16v341q0 17 -16 17h-301zM892 936q97 0 165 -69q69 -69 69 -165v-468q0 -97 -69 -166q-68 -68 -165 -68h-468q-97 0 -165 68q-69 69 -69 166v468q0 96 69 165q68 69 165 69h468zM210 1010l182 383h426l-300 -383
h-308zM718 1010l182 383h426l-300 -383h-308z" />
    <glyph glyph-name="OE" unicode="&#x152;" horiz-adv-x="2465" 
d="M444 1052q-38 0 -38 -37v-672q0 -37 38 -37h671q38 0 38 37v672q0 37 -38 37h-671zM1155 2q-18 -2 -36 -2h-679q-140 0 -240 100q-100 99 -100 239v680q0 140 100 240t240 100h679q18 0 36 -2v2h1210v-301h-908q2 -19 2 -39v-223h793v-233h-793v-224q0 -19 -2 -38h908
v-301h-1210v2z" />
    <glyph glyph-name="oe" unicode="&#x153;" horiz-adv-x="1771" 
d="M886 15q-39 -15 -84 -15h-468q-97 0 -165 68q-69 69 -69 166v468q0 96 69 165q68 69 165 69h468q45 0 83 -15q39 15 84 15h468q97 0 165 -69q69 -68 69 -165v-254q0 -26 -19 -46q-19 -19 -46 -19h-570v-110q0 -17 17 -17h300q17 0 17 17v28h301v-67q0 -97 -69 -165
q-68 -69 -165 -69h-468q-45 0 -83 15zM1036 549h334v104q0 17 -17 17h-300q-17 0 -17 -17v-104zM735 618q0 17 -16 17h-301q-17 0 -17 -17v-301q0 -16 17 -16h301q16 0 16 16v301z" />
    <glyph glyph-name="Racute" unicode="&#x154;" horiz-adv-x="1559" 
d="M401 766h663q37 0 63 26t26 62v125q0 36 -26 62t-63 26h-663v-301zM1119 1359q140 0 240 -102q100 -101 100 -243v-183q0 -118 -164 -186q164 -68 164 -194v-451h-306v447q0 16 -13 27q-12 11 -29 11h-710v-485h-301v1359h301v-61q87 61 192 61h526zM577 1433l182 383
h426l-300 -383h-308z" />
    <glyph glyph-name="racute" unicode="&#x155;" 
d="M401 0h-301v936h301v-67q68 67 163 67h238q97 0 165 -69q69 -69 69 -165v-145h-301v61q0 17 -16 17h-301q-17 0 -17 -17v-618zM365 1010l182 383h426l-300 -383h-308z" />
    <glyph glyph-name="uni0156" unicode="&#x156;" horiz-adv-x="1559" 
d="M401 766h663q37 0 63 26t26 62v125q0 36 -26 62t-63 26h-663v-301zM1119 1359q140 0 240 -102q100 -101 100 -243v-183q0 -118 -164 -186q164 -68 164 -194v-451h-306v447q0 16 -13 27q-12 11 -29 11h-710v-485h-301v1359h301v-61q87 61 192 61h526zM756 -20h103
q85 0 171 -51q48 -33 69 -92q5 -22 5 -30v-58q0 -74 -96 -146q-102 -54 -209 -54h-99q-76 0 -233 27v153h2q148 -34 225 -34q119 0 119 77v8q0 37 -34 52q-22 9 -45 9q-31 0 -164 -31q-2 0 -2 2q0 14 33 146q96 22 155 22z" />
    <glyph glyph-name="uni0157" unicode="&#x157;" 
d="M401 0h-301v936h301v-67q68 67 163 67h238q97 0 165 -69q69 -69 69 -165v-145h-301v61q0 17 -16 17h-301q-17 0 -17 -17v-618zM576 -20h103q85 0 171 -51q48 -33 69 -92q5 -22 5 -30v-58q0 -74 -96 -146q-102 -54 -209 -54h-99q-76 0 -233 27v153h2q148 -34 225 -34
q119 0 119 77v8q0 37 -34 52q-22 9 -45 9q-31 0 -164 -31q-2 0 -2 2q0 14 33 146q96 22 155 22z" />
    <glyph glyph-name="Rcaron" unicode="&#x158;" horiz-adv-x="1559" 
d="M401 766h663q37 0 63 26t26 62v125q0 36 -26 62t-63 26h-663v-301zM1119 1359q140 0 240 -102q100 -101 100 -243v-183q0 -118 -164 -186q164 -68 164 -194v-451h-306v447q0 16 -13 27q-12 11 -29 11h-710v-485h-301v1359h301v-61q87 61 192 61h526zM615 1816l165 -226
l164 226h302l-277 -385h-378l-278 385h302z" />
    <glyph glyph-name="rcaron" unicode="&#x159;" 
d="M401 0h-301v936h301v-67q68 67 163 67h238q97 0 165 -69q69 -69 69 -165v-145h-301v61q0 17 -16 17h-301q-17 0 -17 -17v-618zM404 1393l165 -226l164 226h302l-277 -385h-378l-278 385h302z" />
    <glyph glyph-name="Sacute" unicode="&#x15a;" horiz-adv-x="1538" 
d="M336 558q-96 0 -166 72q-70 71 -70 168v330q0 95 70 162q69 66 166 66h830q97 0 165 -69q69 -68 69 -165v-99h-263v11q0 24 -23 24h-687q-24 0 -24 -24v-159q0 -7 5 -12t12 -5h784q97 0 166 -69q68 -69 68 -165v-390q0 -96 -68 -165q-69 -69 -166 -69h-868q-96 0 -165 69
t-69 165v98h301v-12q0 -24 24 -24h687q23 0 23 24v222q0 7 -4 11q-5 5 -12 5h-785zM566 1433l182 383h426l-300 -383h-308z" />
    <glyph glyph-name="sacute" unicode="&#x15b;" horiz-adv-x="1138" 
d="M336 377q-96 0 -166 72q-70 71 -70 168v91q0 95 70 162q69 66 166 66h430q97 0 165 -69q69 -68 69 -165v-67h-263v71q0 24 -23 24h-287q-24 0 -24 -24v-110q0 -7 5 -12t12 -5h384q97 0 166 -69q68 -69 68 -165v-111q0 -96 -68 -165q-69 -69 -166 -69h-468q-96 0 -165 69
t-69 165v67h301v-52q0 -24 24 -24h287q23 0 23 24v112q0 7 -4 11q-5 5 -12 5h-385zM366 1010l182 383h426l-300 -383h-308z" />
    <glyph glyph-name="Scircumflex" unicode="&#x15c;" horiz-adv-x="1538" 
d="M336 558q-96 0 -166 72q-70 71 -70 168v330q0 95 70 162q69 66 166 66h830q97 0 165 -69q69 -68 69 -165v-99h-263v11q0 24 -23 24h-687q-24 0 -24 -24v-159q0 -7 5 -12t12 -5h784q97 0 166 -69q68 -69 68 -165v-390q0 -96 -68 -165q-69 -69 -166 -69h-868q-96 0 -165 69
t-69 165v98h301v-12q0 -24 24 -24h687q23 0 23 24v222q0 7 -4 11q-5 5 -12 5h-785zM303 1431l278 385h377l278 -385h-302l-164 225l-165 -225h-302z" />
    <glyph glyph-name="scircumflex" unicode="&#x15d;" horiz-adv-x="1138" 
d="M336 377q-96 0 -166 72q-70 71 -70 168v91q0 95 70 162q69 66 166 66h430q97 0 165 -69q69 -68 69 -165v-67h-263v71q0 24 -23 24h-287q-24 0 -24 -24v-110q0 -7 5 -12t12 -5h384q97 0 166 -69q68 -69 68 -165v-111q0 -96 -68 -165q-69 -69 -166 -69h-468q-96 0 -165 69
t-69 165v67h301v-52q0 -24 24 -24h287q23 0 23 24v112q0 7 -4 11q-5 5 -12 5h-385zM103 1008l278 385h377l278 -385h-302l-164 225l-165 -225h-302z" />
    <glyph glyph-name="Scedilla" unicode="&#x15e;" horiz-adv-x="1538" 
d="M336 558q-96 0 -166 72q-70 71 -70 168v330q0 95 70 162q69 66 166 66h830q97 0 165 -69q69 -68 69 -165v-99h-263v11q0 24 -23 24h-687q-24 0 -24 -24v-159q0 -7 5 -12t12 -5h784q97 0 166 -69q68 -69 68 -165v-390q0 -96 -68 -165q-69 -69 -166 -69h-868q-96 0 -165 69
t-69 165v98h301v-12q0 -24 24 -24h687q23 0 23 24v222q0 7 -4 11q-5 5 -12 5h-785zM708 0h187l-36 -118q69 -8 107 -46q42 -42 42 -116q0 -78 -53 -131q-46 -47 -128 -71q-86 -26 -175 -26q-60 0 -122 12l12 149q65 -4 104 -4q28 0 43 2q95 12 95 80q0 49 -49 65
q-25 8 -85 9z" />
    <glyph glyph-name="scedilla" unicode="&#x15f;" horiz-adv-x="1138" 
d="M336 377q-96 0 -166 72q-70 71 -70 168v91q0 95 70 162q69 66 166 66h430q97 0 165 -69q69 -68 69 -165v-67h-263v71q0 24 -23 24h-287q-24 0 -24 -24v-110q0 -7 5 -12t12 -5h384q97 0 166 -69q68 -69 68 -165v-111q0 -96 -68 -165q-69 -69 -166 -69h-468q-96 0 -165 69
t-69 165v67h301v-52q0 -24 24 -24h287q23 0 23 24v112q0 7 -4 11q-5 5 -12 5h-385zM508 0h187l-36 -118q69 -8 107 -46q42 -42 42 -116q0 -78 -53 -131q-46 -47 -128 -71q-86 -26 -175 -26q-60 0 -122 12l12 149q65 -4 104 -4q28 0 43 2q95 12 95 80q0 49 -49 65
q-25 8 -85 9z" />
    <glyph glyph-name="Scaron" unicode="&#x160;" horiz-adv-x="1538" 
d="M336 558q-96 0 -166 72q-70 71 -70 168v330q0 95 70 162q69 66 166 66h830q97 0 165 -69q69 -68 69 -165v-99h-263v11q0 24 -23 24h-687q-24 0 -24 -24v-159q0 -7 5 -12t12 -5h784q97 0 166 -69q68 -69 68 -165v-390q0 -96 -68 -165q-69 -69 -166 -69h-868q-96 0 -165 69
t-69 165v98h301v-12q0 -24 24 -24h687q23 0 23 24v222q0 7 -4 11q-5 5 -12 5h-785zM605 1816l165 -226l164 226h302l-277 -385h-378l-278 385h302z" />
    <glyph glyph-name="scaron" unicode="&#x161;" horiz-adv-x="1138" 
d="M336 377q-96 0 -166 72q-70 71 -70 168v91q0 95 70 162q69 66 166 66h430q97 0 165 -69q69 -68 69 -165v-67h-263v71q0 24 -23 24h-287q-24 0 -24 -24v-110q0 -7 5 -12t12 -5h384q97 0 166 -69q68 -69 68 -165v-111q0 -96 -68 -165q-69 -69 -166 -69h-468q-96 0 -165 69
t-69 165v67h301v-52q0 -24 24 -24h287q23 0 23 24v112q0 7 -4 11q-5 5 -12 5h-385zM405 1393l165 -226l164 226h302l-277 -385h-378l-278 385h302z" />
    <glyph glyph-name="uni0162" unicode="&#x162;" horiz-adv-x="1536" 
d="M100 1087v272h1336v-272h-518v-1087h-300v1087h-518zM681 0h187l-36 -118q69 -8 107 -46q42 -42 42 -116q0 -78 -53 -131q-46 -47 -128 -71q-86 -26 -175 -26q-60 0 -122 12l12 149q65 -4 104 -4q28 0 43 2q95 12 95 80q0 49 -49 65q-25 8 -85 9z" />
    <glyph glyph-name="uni0163" unicode="&#x163;" horiz-adv-x="804" 
d="M90 936h162v328l301 88v-416h161v-238h-161v-698h-301v698h-162v238zM317 0h187l-36 -118q69 -8 107 -46q42 -42 42 -116q0 -78 -53 -131q-46 -47 -128 -71q-86 -26 -175 -26q-60 0 -122 12l12 149q65 -4 104 -4q28 0 43 2q95 12 95 80q0 49 -49 65q-25 8 -85 9z" />
    <glyph glyph-name="Tcaron" unicode="&#x164;" horiz-adv-x="1536" 
d="M100 1087v272h1336v-272h-518v-1087h-300v1087h-518zM604 1816l165 -226l164 226h302l-277 -385h-378l-278 385h302z" />
    <glyph glyph-name="tcaron" unicode="&#x165;" horiz-adv-x="1148" 
d="M90 936h162v328l301 88v-416h161v-238h-161v-698h-301v698h-162v238zM912 1358q79 0 135 -57q56 -56 56 -135v-371h-130q-79 0 -136 56q-56 56 -56 135v372h131z" />
    <glyph glyph-name="Tbar" unicode="&#x166;" horiz-adv-x="1536" 
d="M618 773v314h-518v272h1336v-272h-518v-314h309v-244h-309v-529h-300v529h-309v244h309z" />
    <glyph glyph-name="tbar" unicode="&#x167;" horiz-adv-x="824" 
d="M262 511v187h-162v238h162v328l301 88v-416h161v-238h-161v-187h154v-244h-154v-267h-301v267h-154v244h154z" />
    <glyph glyph-name="Utilde" unicode="&#x168;" horiz-adv-x="1444" 
d="M1344 0h-301v60q-87 -60 -192 -60h-411q-140 0 -240 100q-100 99 -100 239v1020h306v-1016q0 -15 11 -26t27 -11h557q15 0 26 11t11 26v1016h306v-1359zM1159 1772q1 -25 1 -48q0 -117 -26 -180q-45 -110 -177 -110q-82 0 -202 52t-166 52q-73 0 -75 -100h-229
q-1 29 -1 51q0 114 63 195q68 88 179 88q66 0 174 -52t172 -52q40 0 50 33q4 12 6 71h231z" />
    <glyph glyph-name="utilde" unicode="&#x169;" horiz-adv-x="1132" 
d="M731 936h301v-936h-301v63q-67 -63 -159 -63h-238q-97 0 -165 69q-69 69 -69 165v702h301v-618q0 -17 17 -17h300q13 0 13 13v622zM1003 1349q1 -25 1 -48q0 -117 -26 -180q-45 -110 -177 -110q-82 0 -202 52t-166 52q-73 0 -75 -100h-229q-1 29 -1 51q0 114 63 195
q68 88 179 88q66 0 174 -52t172 -52q40 0 50 33q4 12 6 71h231z" />
    <glyph glyph-name="Umacron" unicode="&#x16a;" horiz-adv-x="1444" 
d="M1344 0h-301v60q-87 -60 -192 -60h-411q-140 0 -240 100q-100 99 -100 239v1020h306v-1016q0 -15 11 -26t27 -11h557q15 0 26 11t11 26v1016h306v-1359zM1082 1677v-219h-720v219h720z" />
    <glyph glyph-name="umacron" unicode="&#x16b;" horiz-adv-x="1132" 
d="M731 936h301v-936h-301v63q-67 -63 -159 -63h-238q-97 0 -165 69q-69 69 -69 165v702h301v-618q0 -17 17 -17h300q13 0 13 13v622zM926 1254v-219h-720v219h720z" />
    <glyph glyph-name="Ubreve" unicode="&#x16c;" horiz-adv-x="1444" 
d="M1344 0h-301v60q-87 -60 -192 -60h-411q-140 0 -240 100q-100 99 -100 239v1020h306v-1016q0 -15 11 -26t27 -11h557q15 0 26 11t11 26v1016h306v-1359zM1137 1798q-11 -169 -123 -268q-111 -98 -283 -98q-176 0 -289 95q-116 98 -134 271h229q22 -64 77 -101
q52 -34 116 -35h4q61 0 110 33q54 36 73 103h220z" />
    <glyph glyph-name="ubreve" unicode="&#x16d;" horiz-adv-x="1132" 
d="M731 936h301v-936h-301v63q-67 -63 -159 -63h-238q-97 0 -165 69q-69 69 -69 165v702h301v-618q0 -17 17 -17h300q13 0 13 13v622zM981 1375q-11 -169 -123 -268q-111 -98 -283 -98q-176 0 -289 95q-116 98 -134 271h229q22 -64 77 -101q52 -34 116 -35h4q61 0 110 33
q54 36 73 103h220z" />
    <glyph glyph-name="Uring" unicode="&#x16e;" horiz-adv-x="1444" 
d="M1344 0h-301v60q-87 -60 -192 -60h-411q-140 0 -240 100q-100 99 -100 239v1020h306v-1016q0 -15 11 -26t27 -11h557q15 0 26 11t11 26v1016h306v-1359zM920 1779q82 -77 82 -187t-82 -187q-82 -78 -198 -78t-198 78q-82 77 -82 187t82 187q82 78 198 78t198 -78z
M660 1651q-26 -25 -26 -59t26 -59q26 -24 62 -24t62 24q26 25 26 59t-26 59q-26 24 -62 24t-62 -24z" />
    <glyph glyph-name="uring" unicode="&#x16f;" horiz-adv-x="1132" 
d="M731 936h301v-936h-301v63q-67 -63 -159 -63h-238q-97 0 -165 69q-69 69 -69 165v702h301v-618q0 -17 17 -17h300q13 0 13 13v622zM764 1356q82 -77 82 -187t-82 -187q-82 -78 -198 -78t-198 78q-82 77 -82 187t82 187q82 78 198 78t198 -78zM504 1228q-26 -25 -26 -59
t26 -59q26 -24 62 -24t62 24q26 25 26 59t-26 59q-26 24 -62 24t-62 -24z" />
    <glyph glyph-name="Uhungarumlaut" unicode="&#x170;" horiz-adv-x="1444" 
d="M1344 0h-301v60q-87 -60 -192 -60h-411q-140 0 -240 100q-100 99 -100 239v1020h306v-1016q0 -15 11 -26t27 -11h557q15 0 26 11t11 26v1016h306v-1359zM164 1433l182 383h426l-300 -383h-308zM672 1433l182 383h426l-300 -383h-308z" />
    <glyph glyph-name="uhungarumlaut" unicode="&#x171;" horiz-adv-x="1132" 
d="M823 936h301v-936h-301v63q-67 -63 -159 -63h-238q-97 0 -165 69q-69 69 -69 165v702h301v-618q0 -17 17 -17h300q13 0 13 13v622zM100 1010l182 383h426l-300 -383h-308zM608 1010l182 383h426l-300 -383h-308z" />
    <glyph glyph-name="Uogonek" unicode="&#x172;" horiz-adv-x="1444" 
d="M1344 0h-301v60q-87 -60 -192 -60h-411q-140 0 -240 100q-100 99 -100 239v1020h306v-1016q0 -15 11 -26t27 -11h557q15 0 26 11t11 26v1016h306v-1359zM881 0q-176 -142 -176 -212v-4q0 -87 131 -87q11 0 23 1q31 1 112 36v-155q-64 -28 -161 -31q-17 -1 -33 -1
q-132 0 -224 37q-67 28 -106 77q-43 54 -43 123q0 90 59 143q13 12 28 21l84 52h306z" />
    <glyph glyph-name="uogonek" unicode="&#x173;" horiz-adv-x="1132" 
d="M731 936h301v-936h-301v63q-67 -63 -159 -63h-238q-97 0 -165 69q-69 69 -69 165v702h301v-618q0 -17 17 -17h300q13 0 13 13v622zM1032 0q-173 -142 -173 -212v-4q0 -87 129 -87q10 0 22 1q31 1 110 36v-155q-63 -28 -158 -31q-17 -1 -32 -1q-130 0 -220 37
q-66 28 -104 77q-42 54 -42 123q0 90 58 143q13 12 27 21l83 52h300z" />
    <glyph glyph-name="Wcircumflex" unicode="&#x174;" horiz-adv-x="2022" 
d="M842 301q17 0 17 17v1041h304v-1041q0 -17 17 -17h424q17 0 17 17v1041h301v-1125q0 -97 -69 -165q-69 -69 -165 -69h-477q-62 0 -116 31q-53 31 -84 83q-31 -52 -84 -83q-54 -31 -116 -31h-477q-96 0 -165 69t-69 165v1125h301v-1041q0 -17 16 -17h425zM545 1431
l278 385h377l278 -385h-302l-164 225l-165 -225h-302z" />
    <glyph glyph-name="wcircumflex" unicode="&#x175;" horiz-adv-x="1622" 
d="M642 301q17 0 17 17v618h304v-618q0 -17 17 -17h224q17 0 17 17v618h301v-702q0 -97 -69 -165q-69 -69 -165 -69h-277q-62 0 -116 31q-53 31 -84 83q-31 -52 -84 -83q-54 -31 -116 -31h-277q-96 0 -165 69t-69 165v702h301v-618q0 -17 16 -17h225zM345 1008l278 385h377
l278 -385h-302l-164 225l-165 -225h-302z" />
    <glyph glyph-name="Ycircumflex" unicode="&#x176;" horiz-adv-x="1459" 
d="M580 522h-140q-140 0 -240 100q-100 99 -100 239v497h306v-493q0 -37 38 -37h571q38 0 38 37v493h306v-497q0 -140 -100 -239q-100 -100 -240 -100h-139v-522h-300v522zM263 1431l278 385h377l278 -385h-302l-164 225l-165 -225h-302z" />
    <glyph glyph-name="ycircumflex" unicode="&#x177;" horiz-adv-x="1133" 
d="M733 936h300v-1121q0 -96 -69 -164q-68 -69 -164 -69h-467q-96 0 -164 68q-69 69 -69 165v109h300v-26q0 -16 17 -16h299q17 0 17 16v223q-67 -63 -158 -63h-238q-96 0 -165 68q-68 69 -68 165v645h300v-562q0 -16 16 -16h300q11 0 13 13v565zM100 1008l278 385h377
l278 -385h-302l-164 225l-165 -225h-302z" />
    <glyph glyph-name="Ydieresis" unicode="&#x178;" horiz-adv-x="1459" 
d="M580 522h-140q-140 0 -240 100q-100 99 -100 239v497h306v-493q0 -37 38 -37h571q38 0 38 37v493h306v-497q0 -140 -100 -239q-100 -100 -240 -100h-139v-522h-300v522zM639 1732q49 -50 49 -120t-49 -120q-50 -50 -120 -50t-120 50t-50 120t50 120t120 50t120 -50z
M1062 1732q49 -49 49 -119t-49 -120q-50 -50 -120 -50t-120 50t-50 120t50 119q50 50 120 50t120 -50z" />
    <glyph glyph-name="Zacute" unicode="&#x179;" horiz-adv-x="1469" 
d="M381 378v-61q0 -17 17 -17h1011v-300h-1095q-96 0 -165 69q-69 68 -69 165v238q0 153 234 233l729 249q17 10 17 27v61q0 17 -17 17h-917v300h1000q97 0 166 -69q68 -68 68 -165v-238q0 -153 -234 -233l-728 -249q-17 -6 -17 -27zM542 1433l182 383h426l-300 -383h-308z
" />
    <glyph glyph-name="zacute" unicode="&#x17a;" horiz-adv-x="1098" 
d="M1018 277v-277h-724q-84 0 -144 60t-60 143v121q0 146 198 202l395 133h-541v277h635q83 0 143 -60t60 -143v-121q0 -146 -197 -202l-395 -133h630zM351 1010l182 383h426l-300 -383h-308z" />
    <glyph glyph-name="Zdotaccent" unicode="&#x17b;" horiz-adv-x="1469" 
d="M381 378v-61q0 -17 17 -17h1011v-300h-1095q-96 0 -165 69q-69 68 -69 165v238q0 153 234 233l729 249q17 10 17 27v61q0 17 -17 17h-917v300h1000q97 0 166 -69q68 -68 68 -165v-238q0 -153 -234 -233l-728 -249q-17 -6 -17 -27zM865 1806q49 -50 49 -120t-49 -120
q-50 -50 -120 -50t-120 50t-50 120t50 120t120 50t120 -50z" />
    <glyph glyph-name="zdotaccent" unicode="&#x17c;" horiz-adv-x="1098" 
d="M1018 277v-277h-724q-84 0 -144 60t-60 143v121q0 146 198 202l395 133h-541v277h635q83 0 143 -60t60 -143v-121q0 -146 -197 -202l-395 -133h630zM675 1383q49 -50 49 -120t-49 -120q-50 -50 -120 -50t-120 50t-50 120t50 120t120 50t120 -50z" />
    <glyph glyph-name="Zcaron" unicode="&#x17d;" horiz-adv-x="1469" 
d="M381 378v-61q0 -17 17 -17h1011v-300h-1095q-96 0 -165 69q-69 68 -69 165v238q0 153 234 233l729 249q17 10 17 27v61q0 17 -17 17h-917v300h1000q97 0 166 -69q68 -68 68 -165v-238q0 -153 -234 -233l-728 -249q-17 -6 -17 -27zM580 1816l165 -226l164 226h302
l-277 -385h-378l-278 385h302z" />
    <glyph glyph-name="zcaron" unicode="&#x17e;" horiz-adv-x="1098" 
d="M1020 277v-277h-724q-84 0 -144 60t-60 143v121q0 146 198 202l395 133h-541v277h635q83 0 143 -60t60 -143v-121q0 -146 -197 -202l-395 -133h630zM392 1393l165 -226l164 226h302l-277 -385h-378l-278 385h302z" />
    <glyph glyph-name="longs" unicode="&#x17f;" horiz-adv-x="623" 
d="M83 955q0 98 55 190q116 199 475 215v-271q-175 -9 -215 -75q-25 -39 -25 -80v-935h-290v956z" />
    <glyph glyph-name="circumflex" unicode="&#x2c6;" horiz-adv-x="1133" 
d="M100 1008l278 385h377l278 -385h-302l-164 225l-165 -225h-302z" />
    <glyph glyph-name="caron" unicode="&#x2c7;" horiz-adv-x="1133" 
d="M402 1393l165 -226l164 226h302l-277 -385h-378l-278 385h302z" />
    <glyph glyph-name="uni02C9" unicode="&#x2c9;" horiz-adv-x="920" 
d="M820 1254v-219h-720v219h720z" />
    <glyph glyph-name="breve" unicode="&#x2d8;" horiz-adv-x="1029" 
d="M929 1357q-11 -157 -123 -249q-111 -91 -283 -91q-176 0 -289 88q-116 91 -134 252h229q22 -59 77 -94q52 -31 116 -32h4q61 0 110 30q54 34 73 96h220z" />
    <glyph glyph-name="dotaccent" unicode="&#x2d9;" horiz-adv-x="539" 
d="M390 1383q49 -50 49 -120t-49 -120q-50 -50 -120 -50t-120 50t-50 120t50 120t120 50t120 -50z" />
    <glyph glyph-name="ring" unicode="&#x2da;" horiz-adv-x="760" 
d="M578 1356q82 -77 82 -187t-82 -187q-82 -78 -198 -78t-198 78q-82 77 -82 187t82 187q82 78 198 78t198 -78zM318 1228q-26 -25 -26 -59t26 -59q26 -24 62 -24t62 24q26 25 26 59t-26 59q-26 24 -62 24t-62 -24z" />
    <glyph glyph-name="ogonek" unicode="&#x2db;" horiz-adv-x="767" 
d="M577 0q-176 -142 -176 -212v-4q0 -87 131 -87q11 0 23 1q31 1 112 36v-155q-64 -28 -161 -31q-17 -1 -33 -1q-132 0 -224 37q-67 28 -106 77q-43 54 -43 123q0 90 59 143q13 12 28 21l84 52h306z" />
    <glyph glyph-name="tilde" unicode="&#x2dc;" horiz-adv-x="1081" 
d="M975 1349q1 -25 1 -48q0 -117 -26 -180q-45 -110 -177 -110q-82 0 -202 52t-166 52q-73 0 -75 -100h-229q-1 29 -1 51q0 114 63 195q68 88 179 88q66 0 174 -52t172 -52q40 0 50 33q4 12 6 71h231z" />
    <glyph glyph-name="hungarumlaut" unicode="&#x2dd;" horiz-adv-x="1148" 
d="M105 1010l182 383h426l-300 -383h-308zM613 1010l182 383h426l-300 -383h-308z" />
    <glyph glyph-name="endash" unicode="&#x2013;" horiz-adv-x="1024" 
d="M-12 646h1048v-222h-1048v222z" />
    <glyph glyph-name="emdash" unicode="&#x2014;" horiz-adv-x="2048" 
d="M-12 646h2072v-222h-2072v222z" />
    <glyph glyph-name="quoteleft" unicode="&#x2018;" horiz-adv-x="522" 
d="M231 1358q79 0 135 -57q56 -56 56 -135v-371h-130q-79 0 -136 56q-56 56 -56 135v372h131z" />
    <glyph glyph-name="quoteright" unicode="&#x2019;" horiz-adv-x="522" 
d="M422 1358v-372q0 -79 -56 -135q-57 -56 -136 -56h-130v371q0 79 56 135q56 57 135 57h131z" />
    <glyph glyph-name="quotesinglbase" unicode="&#x201a;" horiz-adv-x="522" 
d="M422 36v-372q0 -79 -56 -135q-57 -56 -136 -56h-130v371q0 79 56 135q56 57 135 57h131z" />
    <glyph glyph-name="quotedblleft" unicode="&#x201c;" horiz-adv-x="973" 
d="M231 1358q79 0 135 -57q56 -56 56 -135v-371h-130q-79 0 -136 56q-56 56 -56 135v372h131zM682 1358q79 0 135 -57q56 -56 56 -135v-371h-130q-79 0 -136 56q-56 56 -56 135v372h131z" />
    <glyph glyph-name="quotedblright" unicode="&#x201d;" horiz-adv-x="973" 
d="M422 1358v-372q0 -79 -56 -135q-57 -56 -136 -56h-130v371q0 79 56 135q56 57 135 57h131zM873 1358v-372q0 -79 -56 -135q-57 -56 -136 -56h-130v371q0 79 56 135q56 57 135 57h131z" />
    <glyph glyph-name="quotedblbase" unicode="&#x201e;" horiz-adv-x="973" 
d="M422 282v-372q0 -79 -56 -135q-57 -56 -136 -56h-130v371q0 79 56 135q56 57 135 57h131zM873 282v-372q0 -79 -56 -135q-57 -56 -136 -56h-130v371q0 79 56 135q56 57 135 57h131z" />
    <glyph glyph-name="bullet" unicode="&#x2022;" horiz-adv-x="822" 
d="M631 899q91 -91 91 -220t-91 -220t-220 -91t-220 91t-91 220t91 220t220 91t220 -91z" />
    <glyph glyph-name="ellipsis" unicode="&#x2026;" horiz-adv-x="2048" 
d="M418 318q55 -54 55 -132q0 -77 -55 -132q-54 -54 -132 -54q-77 0 -132 54q-54 55 -54 132q0 78 54 132q55 55 132 55q78 0 132 -55zM1101 318q55 -54 55 -132q0 -77 -55 -132q-54 -54 -132 -54q-77 0 -132 54q-54 55 -54 132q0 78 54 132q55 55 132 55q78 0 132 -55z
M1784 318q55 -54 55 -132q0 -77 -55 -132q-54 -54 -132 -54q-77 0 -132 54q-54 55 -54 132q0 78 54 132q55 55 132 55q78 0 132 -55z" />
    <glyph glyph-name="perthousand" unicode="&#x2030;" horiz-adv-x="2440" 
d="M1417 586q0 15 -22 24q-19 9 -47 9t-47 -9q-22 -9 -22 -24v-242q0 -16 22 -25q19 -8 47 -8t47 8q22 9 22 25v242zM1352 860q126 0 215 -90q90 -89 90 -215v-180q0 -126 -90 -215q-89 -90 -215 -90h-8q-126 0 -216 90q-89 89 -89 215v180q0 126 89 215q90 90 216 90h8z
M1273 1359l-546 -1359h-275l546 1359h275zM448 1015q0 15 -22 25q-19 8 -47 8t-47 -8q-22 -9 -22 -25v-242q0 -15 22 -24q19 -9 47 -9t47 9q22 9 22 24v242zM383 1289q126 0 216 -90q89 -89 89 -215v-180q0 -126 -89 -215q-90 -90 -216 -90h-8q-126 0 -215 90
q-90 89 -90 215v180q0 126 90 215q89 90 215 90h8zM2130 586q0 15 -22 24q-19 9 -47 9t-47 -9q-22 -9 -22 -24v-242q0 -16 22 -25q19 -8 47 -8t47 8q22 9 22 25v242zM2065 860q126 0 215 -90q90 -89 90 -215v-180q0 -126 -90 -215q-89 -90 -215 -90h-8q-126 0 -216 90
q-89 89 -89 215v180q0 126 89 215q90 90 216 90h8z" />
    <glyph glyph-name="guilsinglleft" unicode="&#x2039;" horiz-adv-x="737" 
d="M363 267l-343 390l339 386h278l-338 -386l338 -386v-4h-274z" />
    <glyph glyph-name="guilsinglright" unicode="&#x203a;" horiz-adv-x="737" 
d="M100 267v4l338 386l-338 386h278l339 -386l-343 -390h-274z" />
    <glyph glyph-name="fraction" unicode="&#x2044;" horiz-adv-x="714" 
d="M1014 1459l-1108 -1575h-206l1108 1575h206z" />
    <glyph glyph-name="fraction" unicode="&#x2215;" horiz-adv-x="714" 
d="M1014 1459l-1108 -1575h-206l1108 1575h206z" />
    <glyph glyph-name="uni2070" unicode="&#x2070;" horiz-adv-x="1151" 
d="M813 1559q98 0 168 -70t70 -168v-476q0 -98 -70 -167q-70 -70 -168 -70h-475q-99 0 -168 70q-70 69 -70 167v476q0 98 70 168q69 70 168 70h475zM340 1344q-26 0 -26 -26v-470q0 -26 26 -26h471q26 0 26 26v470q0 26 -26 26h-471z" />
    <glyph glyph-name="uni2074" unicode="&#x2074;" horiz-adv-x="1071" 
d="M971 609h-202v-108h-215v108h-454v790q0 67 47 113q48 48 114 48h53v-737h240v93q0 67 48 113q47 48 113 48h54v-254h41q66 0 114 -47q47 -48 47 -114v-53z" />
    <glyph glyph-name="uni2075" unicode="&#x2075;" horiz-adv-x="1043" 
d="M290 998q-67 0 -115 48t-48 115v234q0 67 48 116q48 48 115 48h435q68 0 116 -48q48 -49 48 -116v-47h-540q-12 0 -12 -12v-116q0 -12 12 -12h430q67 0 116 -48q48 -48 48 -115v-274q0 -67 -48 -116q-49 -47 -116 -47h-515q-68 0 -116 47q-48 49 -48 116v47h620
q12 0 12 12v156q0 12 -12 12h-430z" />
    <glyph glyph-name="uni2076" unicode="&#x2076;" horiz-adv-x="1097" 
d="M832 1168q68 0 116 -48q49 -48 49 -115v-234q0 -67 -49 -116q-48 -47 -116 -47h-568q-68 0 -116 47q-48 49 -48 116v624q0 67 48 116q48 48 116 48h528q68 0 116 -48q48 -49 48 -116v-47h-634q-11 0 -11 -12v-156q0 -12 11 -12h510zM311 818h463q12 0 12 12v117
q0 11 -12 11h-463v-140z" />
    <glyph glyph-name="uni2077" unicode="&#x2077;" horiz-adv-x="936" 
d="M100 1559h736v-791q0 -66 -46 -113q-48 -47 -114 -47h-54v736h-362q-66 0 -113 48q-47 47 -47 113v54z" />
    <glyph glyph-name="uni2078" unicode="&#x2078;" horiz-adv-x="1172" 
d="M834 1559q98 0 168 -71t70 -170v-75q0 -91 -61 -160q61 -69 61 -160v-74q0 -100 -70 -171q-70 -70 -168 -70h-496q-98 0 -168 70q-70 71 -70 171v74q0 91 60 160q-60 69 -60 160v75q0 99 70 170t168 71h496zM828 825q12 0 20 7q9 9 9 19v124q0 11 -9 19q-8 8 -20 8h-484
q-12 0 -21 -8t-9 -19v-124q0 -10 9 -19q9 -7 21 -7h484zM828 1165q12 0 20 8q9 7 9 18v124q0 11 -9 19q-8 7 -20 7h-484q-12 0 -21 -7q-9 -8 -9 -19v-124q0 -11 9 -18q9 -8 21 -8h484z" />
    <glyph glyph-name="uni2079" unicode="&#x2079;" horiz-adv-x="1097" 
d="M264 998q-67 0 -116 48q-48 48 -48 115v234q0 67 48 116q49 48 116 48h569q67 0 115 -48q49 -49 49 -116v-624q0 -67 -49 -116q-48 -47 -115 -47h-556q-67 0 -115 47q-49 49 -49 116v47h661q12 0 12 12v156q0 12 -12 12h-510zM786 1348h-463q-12 0 -12 -12v-116
q0 -12 12 -12h463v140z" />
    <glyph glyph-name="uni207A" unicode="&#x207a;" horiz-adv-x="939" 
d="M100 781v210h264v265h211v-265h264v-210h-264v-264h-211v264h-264z" />
    <glyph glyph-name="uni207B" unicode="&#x207b;" horiz-adv-x="778" 
d="M100 623v211h578v-211h-578z" />
    <glyph glyph-name="uni207C" unicode="&#x207c;" horiz-adv-x="778" 
d="M100 573v211h578v-211h-578zM100 923v211h578v-211h-578z" />
    <glyph glyph-name="uni207D" unicode="&#x207d;" horiz-adv-x="610" 
d="M510 1558q-196 -332 -196 -584q0 -250 196 -583h-215q-195 333 -195 583q0 252 195 584h215z" />
    <glyph glyph-name="uni207E" unicode="&#x207e;" horiz-adv-x="610" 
d="M314 1558q196 -332 196 -584q0 -250 -196 -583h-214q195 333 195 583q0 252 -195 584h214z" />
    <glyph glyph-name="uni2080" unicode="&#x2080;" horiz-adv-x="1151" 
d="M813 476q98 0 168 -70t70 -168v-476q0 -98 -70 -167q-70 -70 -168 -70h-475q-99 0 -168 70q-70 69 -70 167v476q0 98 70 168q69 70 168 70h475zM340 261q-26 0 -26 -26v-470q0 -26 26 -26h471q26 0 26 26v470q0 26 -26 26h-471z" />
    <glyph glyph-name="uni2081" unicode="&#x2081;" horiz-adv-x="415" 
d="M315 476v-951h-215v790q0 67 48 113q47 48 113 48h54z" />
    <glyph glyph-name="uni2082" unicode="&#x2082;" horiz-adv-x="1096" 
d="M322 -85q-12 0 -12 -12v-156q0 -12 12 -12h674v-47q0 -67 -48 -116q-48 -47 -116 -47h-568q-68 0 -116 47q-48 49 -48 116v274q0 67 48 115t116 48h510q11 0 11 12v116q0 12 -11 12h-647v47q0 67 48 116q48 48 115 48h542q68 0 116 -48q48 -49 48 -116v-234
q0 -67 -48 -115t-116 -48h-510z" />
    <glyph glyph-name="uni2083" unicode="&#x2083;" horiz-adv-x="1043" 
d="M705 476q98 0 168 -71t70 -170v-75q0 -91 -60 -160q60 -69 60 -160v-74q0 -100 -70 -171q-70 -70 -168 -70h-368q-92 0 -161 63q-68 62 -76 154h599q12 0 21 7q9 9 9 19v111q0 10 -9 18q-9 9 -21 9h-474v189h474q12 0 21 8t9 19v110q0 11 -9 19q-9 7 -21 7h-599
q8 92 76 154q69 64 161 64h368z" />
    <glyph glyph-name="uni2084" unicode="&#x2084;" horiz-adv-x="1071" 
d="M971 -421h-202v-108h-215v108h-454v790q0 67 47 113q48 48 114 48h53v-737h240v93q0 67 48 113q47 48 113 48h54v-254h41q66 0 114 -47q47 -48 47 -114v-53z" />
    <glyph glyph-name="uni2085" unicode="&#x2085;" horiz-adv-x="1043" 
d="M290 -85q-67 0 -115 48t-48 115v234q0 67 48 116q48 48 115 48h435q68 0 116 -48q48 -49 48 -116v-47h-540q-12 0 -12 -12v-116q0 -12 12 -12h430q67 0 116 -48q48 -48 48 -115v-274q0 -67 -48 -116q-49 -47 -116 -47h-515q-68 0 -116 47q-48 49 -48 116v47h620
q12 0 12 12v156q0 12 -12 12h-430z" />
    <glyph glyph-name="uni2086" unicode="&#x2086;" horiz-adv-x="1097" 
d="M832 85q68 0 116 -48q49 -48 49 -115v-234q0 -67 -49 -116q-48 -47 -116 -47h-568q-68 0 -116 47q-48 49 -48 116v624q0 67 48 116q48 48 116 48h528q68 0 116 -48q48 -49 48 -116v-47h-634q-11 0 -11 -12v-156q0 -12 11 -12h510zM311 -265h463q12 0 12 12v117
q0 11 -12 11h-463v-140z" />
    <glyph glyph-name="uni2087" unicode="&#x2087;" horiz-adv-x="936" 
d="M100 476h736v-791q0 -66 -46 -113q-48 -47 -114 -47h-54v736h-362q-66 0 -113 48q-47 47 -47 113v54z" />
    <glyph glyph-name="uni2088" unicode="&#x2088;" horiz-adv-x="1172" 
d="M834 476q98 0 168 -71t70 -170v-75q0 -91 -61 -160q61 -69 61 -160v-74q0 -100 -70 -171q-70 -70 -168 -70h-496q-98 0 -168 70q-70 71 -70 171v74q0 91 60 160q-60 69 -60 160v75q0 99 70 170t168 71h496zM828 -258q12 0 20 7q9 9 9 19v124q0 11 -9 19q-8 8 -20 8h-484
q-12 0 -21 -8t-9 -19v-124q0 -10 9 -19q9 -7 21 -7h484zM828 82q12 0 20 8q9 7 9 18v124q0 11 -9 19q-8 7 -20 7h-484q-12 0 -21 -7q-9 -8 -9 -19v-124q0 -11 9 -18q9 -8 21 -8h484z" />
    <glyph glyph-name="uni2089" unicode="&#x2089;" horiz-adv-x="1097" 
d="M264 -85q-67 0 -116 48q-48 48 -48 115v234q0 67 48 116q49 48 116 48h569q67 0 115 -48q49 -49 49 -116v-624q0 -67 -49 -116q-48 -47 -115 -47h-556q-67 0 -115 47q-49 49 -49 116v47h661q12 0 12 12v156q0 12 -12 12h-510zM786 265h-463q-12 0 -12 -12v-116
q0 -12 12 -12h463v140z" />
    <glyph glyph-name="uni208A" unicode="&#x208a;" horiz-adv-x="939" 
d="M100 -105v210h264v265h211v-265h264v-210h-264v-264h-211v264h-264z" />
    <glyph glyph-name="uni208B" unicode="&#x208b;" horiz-adv-x="778" 
d="M100 -106v211h578v-211h-578z" />
    <glyph glyph-name="uni208C" unicode="&#x208c;" horiz-adv-x="778" 
d="M100 -281v211h578v-211h-578zM100 69v211h578v-211h-578z" />
    <glyph glyph-name="uni208D" unicode="&#x208d;" horiz-adv-x="610" 
d="M510 646q-196 -332 -196 -584q0 -250 196 -583h-215q-195 333 -195 583q0 252 195 584h215z" />
    <glyph glyph-name="uni208E" unicode="&#x208e;" horiz-adv-x="610" 
d="M314 646q196 -332 196 -584q0 -250 -196 -583h-214q195 333 195 583q0 252 -195 584h214z" />
    <glyph glyph-name="franc" unicode="&#x20a3;" horiz-adv-x="1417" 
d="M100 370v989h1250v-301h-949v-262h796v-233h-796v-193h354v-187h-354v-183h-301v183h-200v187h200z" />
    <glyph glyph-name="lira" unicode="&#x20a4;" horiz-adv-x="1299" 
d="M234 621v91h-224v144h224v163q0 140 100 240t240 100h258q140 0 240 -100t100 -240v-83h-306v79q0 16 -11 27t-26 11h-251q-16 0 -27 -11t-11 -27v-159h243v-144h-243v-91h245v-140h-245v-189q15 -1 30 -1q95 0 154 29q99 48 239 48h6q138 -1 245 -46v-291
q-106 46 -245 46h-6q-139 0 -239 -48q-59 -29 -151 -29q-41 0 -89 6q-129 16 -250 63v412h-221v140h221z" />
    <glyph glyph-name="peseta" unicode="&#x20a7;" horiz-adv-x="2725" 
d="M371 1048v-329h573q43 0 73 34q31 34 31 81v99q0 47 -31 81q-30 34 -73 34h-573zM1319 698q-14 -107 -86 -187q-90 -101 -216 -101h-439q-111 0 -207 78v-488h-271v1359h271v-61q78 61 173 61h473q126 0 216 -102q90 -101 90 -243v-78h36v328l301 88v-416h693
q97 0 165 -69q69 -68 69 -165v-67h-263v11q0 24 -23 24h-287q-24 0 -24 -24v-60q0 -7 5 -12t12 -5h384q97 0 166 -69q68 -69 68 -165v-101q0 -96 -68 -165q-69 -69 -166 -69h-468q-96 0 -165 69t-69 165v67h301v-12q0 -24 24 -24h287q23 0 23 24v62q0 7 -4 11q-5 5 -12 5
h-385q-96 0 -166 72q-70 71 -70 168v91h-27v-698h-301v698h-40z" />
    <glyph glyph-name="Euro" unicode="&#x20ac;" horiz-adv-x="1453" 
d="M540 1053q-16 0 -27 -11t-11 -27v-107h566l-29 -189h-537v-86h502l-29 -189h-473v-100q0 -16 11 -27t27 -11h672q24 0 46 11l90 -290q-63 -27 -132 -27h-680q-140 0 -240 100t-100 240v104h-171l38 189h133v86h-171l38 189h133v111q0 140 100 240t240 100h660
q108 0 197 -64l-150 -257q-22 15 -51 15h-652z" />
    <glyph glyph-name="uni2116" unicode="&#x2116;" horiz-adv-x="2597" 
d="M1039 1359q140 0 240 -100t100 -240v-1019h-307v1015q0 15 -11 26t-26 11h-597q-15 0 -26 -11t-11 -26v-1015h-301v1359h301v-57q85 57 186 57h452zM1871 1055q-17 0 -17 -17v-301q0 -16 17 -16h301q16 0 16 16v301q0 17 -16 17h-301zM2255 1356q97 0 165 -69
q69 -69 69 -165v-468q0 -97 -69 -166q-68 -68 -165 -68h-468q-97 0 -165 68q-69 69 -69 166v468q0 96 69 165q68 69 165 69h468zM1551 298h939v-298h-939v298z" />
    <glyph glyph-name="trademark" unicode="&#x2122;" horiz-adv-x="1683" 
d="M100 1250v109h601v-109h-233v-435h-135v435h-233zM-1626 815q-69 0 -105 94l-112 322q-4 7 -12 7h-9q-8 0 -8 -7v-416h-135v450q0 38 31 66q31 27 74 27h89q69 0 105 -93l112 -323q3 -7 12 -7q10 0 13 7l112 323q36 93 105 93h89q43 0 74 -27q31 -28 31 -66v-450h-135
v416q0 7 -8 7h-9q-8 0 -12 -7l-112 -322q-36 -94 -105 -94h-85z" />
    <glyph glyph-name="partialdiff" unicode="&#x2202;" horiz-adv-x="917" 
d="M666 665q-8 37 -37 60q-30 24 -68 24h-205q-44 0 -76 -31q-32 -32 -32 -76v-386q0 -44 32 -76t76 -32h205q44 0 76 32t32 76v392zM488 1105q-109 135 -258 143l-74 4l8 148l74 -4q166 -8 296 -125q36 -32 69 -73q105 -130 168 -333q44 -143 46 -250v-359q0 -106 -75 -181
t-181 -75h-205q-106 0 -181 75t-75 181v386q0 105 75 180q75 76 181 76h205q22 0 43 -4q-48 127 -116 211z" />
    <glyph glyph-name="Delta" unicode="&#x2206;" horiz-adv-x="1201" 
d="M10 0l590 1400l591 -1400h-1181zM990 133l-390 924l-389 -924h779z" />
    <glyph glyph-name="product" unicode="&#x220f;" horiz-adv-x="1152" 
d="M1127 1400v-149h-223v-1251h-148v1251h-360v-1251h-148v1251h-223v149h1102z" />
    <glyph glyph-name="summation" unicode="&#x2211;" horiz-adv-x="1258" 
d="M308 1251l774 -551l-774 -551h900v-149h-1158v148l776 552l-776 552v148h1158v-149h-900z" />
    <glyph glyph-name="minus" unicode="&#x2212;" horiz-adv-x="1026" 
d="M100 333v301h826v-301h-826z" />
    <glyph glyph-name="radical" unicode="&#x221a;" horiz-adv-x="931" 
d="M475 1676h446v-123h-342l-256 -1553h-127l-181 525l116 40l109 -315z" />
    <glyph glyph-name="infinity" unicode="&#x221e;" horiz-adv-x="2019" 
d="M483 325q-57 0 -112 18q-55 19 -104 55q-49 37 -86 90t-59 124t-22 160q0 90 22 162q22 70 60 125q38 53 87 90q50 36 104 54q55 19 110 19q97 -2 185 -40q89 -40 167 -107q80 -68 146 -152l28 -37l29 37q66 84 146 152q78 67 167 107q87 38 185 40q55 0 109 -19
q55 -18 104 -54q50 -37 87 -90q38 -53 60 -125q22 -71 23 -162q-1 -91 -23 -162t-59 -124q-39 -54 -88 -89q-48 -36 -104 -54q-55 -18 -109 -18q-99 1 -185 39q-89 38 -167 105q-80 68 -146 152l-29 37l-28 -37q-67 -84 -146 -152q-79 -67 -167 -105q-87 -38 -185 -39z
M479 471q108 0 215 67q103 65 210 203l23 31l-23 31q-55 71 -119 132q-68 62 -141 98q-79 39 -165 40q-71 -1 -127 -38q-58 -37 -91 -105q-34 -68 -34 -158t34 -158q33 -68 91 -106q56 -36 127 -37zM1115 802l-23 -30l23 -31q57 -75 119 -133q66 -62 141 -98q78 -38 165 -39
q71 1 127 37q57 38 91 106q33 68 34 158q-1 94 -36 162q-34 68 -92 104q-57 35 -124 35q-87 -1 -165 -39q-75 -37 -141 -98q-64 -60 -119 -134z" />
    <glyph glyph-name="integral" unicode="&#x222b;" horiz-adv-x="858" 
d="M538 1470q121 165 335 165q37 0 76 -5l-28 -163q-22 2 -43 2q-132 0 -204 -93q-50 -65 -61 -139v-1q-34 -199 -103 -603q-69 -400 -103 -601q-16 -111 -89 -209q-121 -165 -335 -165q-37 0 -76 5l28 163q22 -2 43 -2q132 0 204 93q50 65 61 139v1q35 202 103 602
q69 402 103 602q16 111 89 209z" />
    <glyph glyph-name="approxequal" unicode="&#x2248;" horiz-adv-x="1209" 
d="M100 780q126 -49 257 -65q49 -6 91 -6q95 0 156 30q102 49 246 49h6q143 -1 253 -47v-241q-109 47 -252 48q-148 0 -253 -50q-61 -30 -156 -30q-42 0 -91 6q-132 16 -257 65v241zM100 460q126 -49 257 -65q49 -6 91 -6q95 0 156 30q102 49 246 49h6q143 -1 253 -47v-241
q-109 47 -252 48q-148 0 -253 -50q-61 -30 -156 -30q-42 0 -91 6q-132 16 -257 65v241z" />
    <glyph glyph-name="lessequal" unicode="&#x2264;" horiz-adv-x="1027" 
d="M100 1009l827 447v-301l-548 -296l548 -296v-301l-827 446v301zM101 0v235h826v-235h-826z" />
    <glyph glyph-name="greaterequal" unicode="&#x2265;" horiz-adv-x="1027" 
d="M927 708l-827 -446v301l548 296l-548 296v301l827 -447v-301zM100 0v235h826v-235h-826z" />
    <glyph glyph-name="uniF001" unicode="&#xf001;" horiz-adv-x="1178" 
d="M418 1078q-17 0 -17 -17v-125h176v-212h-176v-724h-301v1125q0 96 69 165t165 69h243v-281h-159zM1078 0h-301v936h301v-936zM1059 1339q55 -54 55 -132q0 -77 -55 -132q-54 -54 -132 -54q-77 0 -132 54q-54 55 -54 132q0 78 54 132q55 55 132 55q78 0 132 -55z" />
    <glyph glyph-name="uniF001" unicode="&#xfb01;" horiz-adv-x="1178" 
d="M418 1078q-17 0 -17 -17v-125h176v-212h-176v-724h-301v1125q0 96 69 165t165 69h243v-281h-159zM1078 0h-301v936h301v-936zM1059 1339q55 -54 55 -132q0 -77 -55 -132q-54 -54 -132 -54q-77 0 -132 54q-54 55 -54 132q0 78 54 132q55 55 132 55q78 0 132 -55z" />
    <glyph glyph-name="uniF002" unicode="&#xf002;" horiz-adv-x="1178" 
d="M418 1078q-17 0 -17 -17v-125h176v-212h-176v-724h-301v1125q0 96 69 165t165 69h243v-281h-159zM1078 0h-301v1359h301v-1359z" />
    <glyph glyph-name="uniF002" unicode="&#xfb02;" horiz-adv-x="1178" 
d="M418 1078q-17 0 -17 -17v-125h176v-212h-176v-724h-301v1125q0 96 69 165t165 69h243v-281h-159zM1078 0h-301v1359h301v-1359z" />
    </font>
</defs>
</svg>
