<?xml version="1.0" encoding="utf-8"?>
<!-- Generator: Adobe Illustrator 26.1.0, SVG Export Plug-In . SVG Version: 6.00 Build 0)  -->
<svg version="1.1" xmlns="http://www.w3.org/2000/svg" xmlns:xlink="http://www.w3.org/1999/xlink" x="0px" y="0px"
	 viewBox="0 0 1920 1080" style="enable-background:new 0 0 1920 1080;" xml:space="preserve">
<style type="text/css">
	.st0{fill:none;}
	.st1{opacity:0.62;fill:url(#SVGID_00000057832329342268566240000003162186282211259308_);}
	
		.st2{clip-path:url(#SVGID_00000162343228508167415340000015057900125415490465_);fill:url(#SVGID_00000000198570071157637240000010528327986937476254_);}
</style>
<g id="Capa_2">
	<g>
		<defs>
			<rect id="SVGID_1_" x="-0.6" width="1920.6" height="1079.9"/>
		</defs>
		<clipPath id="SVGID_00000139265553385266803990000010375955604415054503_">
			<use xlink:href="#SVGID_1_"  style="overflow:visible;"/>
		</clipPath>
	</g>
</g>
<g id="Capa_1">
	<rect y="-0.1" class="st0" width="1920" height="1080"/>
	
		<radialGradient id="SVGID_00000111185453112020539620000000203954134402249133_" cx="419.8886" cy="1080.2471" r="1" gradientTransform="matrix(1627.9979 -1867.3206 -966.1434 -842.319 361503.2812 1694318.25)" gradientUnits="userSpaceOnUse">
		<stop  offset="0" style="stop-color:#FFCE00;stop-opacity:0.1"/>
		<stop  offset="0.5247" style="stop-color:#FCFF88;stop-opacity:5.000000e-02"/>
		<stop  offset="1" style="stop-color:#FFCE00;stop-opacity:0.1"/>
	</radialGradient>
	
		<rect y="-0.1" style="opacity:0.62;fill:url(#SVGID_00000111185453112020539620000000203954134402249133_);" width="1920" height="1080"/>
	<g>
		<defs>
			<rect id="SVGID_00000183217670837326448210000017174519099886072194_" y="89.9" width="992" height="990"/>
		</defs>
		<clipPath id="SVGID_00000150817597923511741910000005505992222976510337_">
			<use xlink:href="#SVGID_00000183217670837326448210000017174519099886072194_"  style="overflow:visible;"/>
		</clipPath>
		
			<radialGradient id="SVGID_00000145024809158339105090000016965333573467545529_" cx="419.7249" cy="1080.2852" r="1" gradientTransform="matrix(734.6859 -762.5933 -764.1056 -736.1428 517051.1875 1116462.25)" gradientUnits="userSpaceOnUse">
			<stop  offset="8.248968e-02" style="stop-color:#FFB000;stop-opacity:0.18"/>
			<stop  offset="1" style="stop-color:#F7DA0B;stop-opacity:0"/>
		</radialGradient>
		
			<path style="clip-path:url(#SVGID_00000150817597923511741910000005505992222976510337_);fill:url(#SVGID_00000145024809158339105090000016965333573467545529_);" d="
			M-1,1079.9h-0.6H-1z M0.2,1079.9l524.6-13.5c0.2,4.5,0.2,9,0.2,13.5H0H0.2z M-0.8,1079.9H-1h-0.6H-0.8z M-0.2,1079.9H0h0.2h0.2
			h0.2l519.9-67.7c1.1,9,2.1,18.1,2.9,27.3l-523,40.4H0.2H-0.2h-0.5H-0.2z M510.4,957.7c2.1,9,4,18,5.8,27l-515.7,95L510.4,957.7z
			 M-0.2,1079.9h0.3h0.2H-0.2z M494.7,904.6c3,8.7,5.9,17.5,8.5,26.3L0.3,1079.7L494.7,904.6z M473.7,853.6
			c4,8.3,7.7,16.7,11.2,25.2L0.5,1079.5L473.7,853.6z M0,1079.9h0.2H0z M447.4,805.3c4.8,7.9,9.3,15.7,13.8,23.7L0.6,1079.7
			L447.4,805.3z M0,1079.9l0.2-0.2L0,1079.9z M0.2,1079.9l416.1-319.6c5.6,7.2,10.9,14.6,16.1,22.1l-432,297.3L0.2,1079.9z
			 M0,1079.9l380.7-361.2c6.3,6.6,12.4,13.3,18.3,20.4L0,1079.9z M0,1079.7L341.1,681c6.9,5.9,13.6,12,20.4,18.3L0,1079.7z
			 M0,1079.7v-0.2l297.6-431.8c7.5,5.1,14.9,10.6,22.2,16L0,1079.7z M0.2,1079.4l250.7-460.5c8,4.3,16.1,9,23.8,13.8L0.2,1079.4z
			 M201,595.1c8.5,3.5,16.9,7.2,25.2,11.2L0,1079.4L201,595.1z M149,576.7c8.8,2.6,17.7,5.5,26.3,8.5l-175.1,494L149,576.7z
			 M0,1079.9v-0.2V1079.9z M95.2,563.8c9.1,1.6,18.1,3.5,27,5.8l-122,509.8L95.2,563.8z M0,1079.9v-0.2V1079.9z M0,1079.9v-0.2v-0.2
			l40.8-522.8c9.1,0.6,18.1,1.6,27.3,2.9L0.3,1079.4v0.2v0.2L0,1079.9z M0,1079.9V555.2c4.5,0,9,0,13.5,0.2L0,1079.7V1079.9z
			 M0,555.2v524.7h-0.2h-0.5h-0.2H-1h-0.6V555.2H0z M0.2,1079.9l524.6-13.5l465.3-12c0.2,8.5,0.3,17,0.3,25.5H0H0.2z M-0.8,1079.9
			H-1h-0.6H-0.8z M-0.2,1079.9H0h0.2h0.2h0.2l520.1-67.9L982,951.8c2.2,17,4,34.2,5.3,51.3l-464.1,35.9l-523,40.8H0.2H-0.2h-0.5
			H-0.2z M0.5,1079.7l510-121.9l452.7-108.3c4,16.8,7.7,33.9,10.8,51l-457.8,84.2L0.5,1079.7z M-0.2,1079.9H0H-0.2z M494.7,904.6
			l438.9-155.3c5.8,16.4,11.2,32.9,16.1,49.6L503.2,931L0.3,1079.7L494.7,904.6z M0,1079.9h0.2H0z M473.7,853.6L893.6,653
			c7.5,15.6,14.6,31.4,21.2,47.7L484.8,879L0.3,1079.7L473.7,853.6z M447.4,805.3L844,561.9c9,14.8,17.7,29.7,26,44.9L0.5,1079.7
			L447.4,805.3z M0,1079.9l0.2-0.2L0,1079.9z M0.2,1079.9l416.1-319.6l369.2-283.5c10.4,13.6,20.5,27.6,30.5,41.7L432.4,782.4
			l-432,297.3L0.2,1079.9z M0.2,1079.9l380.6-361.2l337.6-320.4c11.9,12.5,23.3,25.2,34.5,38.3L399,738.9L0.2,1079.9z M0,1079.7
			L341.1,681l302.4-353.6c13.2,11.2,25.8,22.6,38.4,34.5L361.3,699.3L0,1079.7z M0,1079.7v-0.2l297.6-431.8l264.1-383.3
			c14.3,9.8,28.1,19.9,41.7,30.5L319.8,664L0,1079.7z M0.2,1079.4l473-869.2c15.2,8.3,30.2,17,44.9,26L274.5,632.7L0.2,1079.4z
			 M201,595.1l178.3-429.9c16.1,6.7,31.9,13.8,47.7,21.2L226.3,606.4l-226.2,473L201,595.1z M149,576.7l131.9-446.2
			c16.7,5,33.4,10.3,49.6,16L175.1,585.2L0,1079.2L149,576.7z M0,1079.9v-0.2V1079.9z M0.2,1079.4l95-515.5l84.3-457.6
			c17.2,3.2,34.2,6.7,51,10.8L122.2,569.4L0.2,1079.4z M0,1079.9v-0.2V1079.9z M0,1079.9v-0.2v-0.2l40.8-522.8l36-464
			C93.9,94,111.1,96,128.1,98L67.9,559.5L0,1079.4v0.2v0.2V1079.9z M0,1079.9v-990c8.5,0,17,0.2,25.5,0.3l-12,465.2L0,1079.7V1079.9
			z M0,89.9v990h-0.2h-0.5h-0.2H-1h-0.6v-990H0z"/>
	</g>
</g>
</svg>
